<?xml version="1.0" standalone="no"?>
 <!DOCTYPE svg PUBLIC "-//W3C//DTD SVG 1.1//EN" 
 "http://www.w3.org/Graphics/SVG/1.1/DTD/svg11.dtd"> 
<svg
  xmlns:svg="http://www.w3.org/2000/svg"
  xmlns="http://www.w3.org/2000/svg"
  xmlns:xlink="http://www.w3.org/1999/xlink"
  version="1.1"
  width="60.1980mm" height="93.7514mm" viewBox="0.0000 0.0000 60.1980 93.7514">
<title>SVG Image created as LED-board-PWM-F_Cu.svg date 2024/07/14 14:34:27 </title>
  <desc>Image generated by PCBNEW </desc>
<g style="fill:#000000; fill-opacity:1.0000;stroke:#000000; stroke-opacity:1.0000;
stroke-linecap:round; stroke-linejoin:round;"
 transform="translate(0 0) scale(1 1)">
<path style="fill:#000000; fill-opacity:1.0000; stroke:none;fill-rule:evenodd;"
d="M 55.9620,17.5102
54.4380,17.5102
54.4380,15.9863
55.9620,15.9863
Z" /> 
</g>
<g style="fill:#000000; fill-opacity:1.0000; stroke:none;">
<circle cx="55.2000" cy="21.8283" r="0.7620" /> 
</g>
<g style="fill:#000000; fill-opacity:1.0000; stroke:none;">
<circle cx="55.2000" cy="26.9082" r="0.7620" /> 
</g>
<g style="fill:#000000; fill-opacity:1.0000; stroke:none;">
<circle cx="55.2000" cy="31.9882" r="0.7620" /> 
<path style="fill:#000000; fill-opacity:1.0000; stroke:none;fill-rule:evenodd;"
d="M 15.0806,79.0733
15.0616,79.1689
15.0074,79.2500
14.9263,79.3042
14.8306,79.3233
14.1306,79.3233
14.0349,79.3042
13.9538,79.2500
13.8996,79.1689
13.8806,79.0733
13.8806,77.8233
13.8996,77.7276
13.9538,77.6465
14.0349,77.5923
14.1306,77.5733
14.8306,77.5733
14.9263,77.5923
15.0074,77.6465
15.0616,77.7276
15.0806,77.8233
Z" /> 
</g>
<g style="fill:none; 
stroke:#000000; stroke-width:1.2000; stroke-opacity:1; 
stroke-linecap:round; stroke-linejoin:round;">
<path d="M12.4806 78.7232
L12.4806 78.1732
" />
</g>
<g style="fill:#000000; fill-opacity:1.0000; stroke:none;">
<circle cx="40.1000" cy="5.2482" r="1.5000" /> 
<path style="fill:#000000; fill-opacity:1.0000; stroke:none;fill-rule:evenodd;"
d="M 32.2250,51.2732
30.3750,51.2732
30.3750,49.4232
32.2250,49.4232
Z" /> 
</g>
<g style="fill:#000000; fill-opacity:1.0000; stroke:none;">
<circle cx="31.3000" cy="47.8083" r="0.9250" /> 
</g>
<g style="fill:#000000; fill-opacity:1.0000; stroke:none;">
<circle cx="31.3000" cy="45.2682" r="0.9250" /> 
<path style="fill:#000000; fill-opacity:1.0000; stroke:none;fill-rule:evenodd;"
d="M 2.8806,76.8233
2.8996,76.7276
2.9538,76.6465
3.0349,76.5923
3.1306,76.5733
3.8306,76.5733
3.9263,76.5923
4.0074,76.6465
4.0616,76.7276
4.0806,76.8233
4.0806,78.0733
4.0616,78.1689
4.0074,78.2500
3.9263,78.3042
3.8306,78.3233
3.1306,78.3233
3.0349,78.3042
2.9538,78.2500
2.8996,78.1689
2.8806,78.0733
Z" /> 
</g>
<g style="fill:none; 
stroke:#000000; stroke-width:1.2000; stroke-opacity:1; 
stroke-linecap:round; stroke-linejoin:round;">
<path d="M5.4806 77.1732
L5.4806 77.7232
" />
</g>
<g style="fill:#000000; fill-opacity:1.0000; stroke:none;">
<circle cx="35.0000" cy="52.3483" r="0.8000" /> 
</g>
<g style="fill:#000000; fill-opacity:1.0000; stroke:none;">
<circle cx="35.0000" cy="42.1882" r="0.8000" /> 
<path style="fill:#000000; fill-opacity:1.0000; stroke:none;fill-rule:evenodd;"
d="M 3.9010,14.0707
3.9010,12.7127
5.2590,12.7127
5.2590,14.0707
Z" /> 
<circle cx="4.5800" cy="15.9317" r="0.6790" /> 
</g>
<g style="fill:#000000; fill-opacity:1.0000; stroke:none;">
<circle cx="4.5800" cy="18.4718" r="0.6790" /> 
</g>
<g style="fill:#000000; fill-opacity:1.0000; stroke:none;">
<circle cx="4.5800" cy="21.0117" r="0.6790" /> 
</g>
<g style="fill:#000000; fill-opacity:1.0000; stroke:none;">
<circle cx="4.5800" cy="23.5517" r="0.6790" /> 
</g>
<g style="fill:#000000; fill-opacity:1.0000; stroke:none;">
<circle cx="4.5800" cy="26.0917" r="0.6790" /> 
</g>
<g style="fill:#000000; fill-opacity:1.0000; stroke:none;">
<circle cx="4.5800" cy="28.6318" r="0.6790" /> 
</g>
<g style="fill:#000000; fill-opacity:1.0000; stroke:none;">
<circle cx="19.8200" cy="28.6318" r="0.6790" /> 
</g>
<g style="fill:#000000; fill-opacity:1.0000; stroke:none;">
<circle cx="19.8200" cy="26.0917" r="0.6790" /> 
</g>
<g style="fill:#000000; fill-opacity:1.0000; stroke:none;">
<circle cx="19.8200" cy="23.5517" r="0.6790" /> 
</g>
<g style="fill:#000000; fill-opacity:1.0000; stroke:none;">
<circle cx="19.8200" cy="21.0117" r="0.6790" /> 
</g>
<g style="fill:#000000; fill-opacity:1.0000; stroke:none;">
<circle cx="19.8200" cy="18.4718" r="0.6790" /> 
</g>
<g style="fill:#000000; fill-opacity:1.0000; stroke:none;">
<circle cx="19.8200" cy="15.9317" r="0.6790" /> 
</g>
<g style="fill:#000000; fill-opacity:1.0000; stroke:none;">
<circle cx="19.8200" cy="13.3918" r="0.6790" /> 
<path style="fill:#000000; fill-opacity:1.0000; stroke:none;fill-rule:evenodd;"
d="M 9.2000,52.6482
7.2000,52.6482
7.2000,50.6482
9.2000,50.6482
Z" /> 
</g>
<g style="fill:#000000; fill-opacity:1.0000; stroke:none;">
<circle cx="8.2000" cy="44.0482" r="1.0000" /> 
<path style="fill:#000000; fill-opacity:1.0000; stroke:none;fill-rule:evenodd;"
d="M 19.0474,78.7267
19.0474,77.2027
20.5714,77.2027
20.5714,78.7267
Z" /> 
</g>
<g style="fill:#000000; fill-opacity:1.0000; stroke:none;">
<circle cx="22.3494" cy="77.9647" r="0.7620" /> 
</g>
<g style="fill:#000000; fill-opacity:1.0000; stroke:none;">
<circle cx="24.8894" cy="77.9647" r="0.7620" /> 
</g>
<g style="fill:#000000; fill-opacity:1.0000; stroke:none;">
<circle cx="27.4294" cy="77.9647" r="0.7620" /> 
</g>
<g style="fill:#000000; fill-opacity:1.0000; stroke:none;">
<circle cx="29.9694" cy="77.9647" r="0.7620" /> 
</g>
<g style="fill:#000000; fill-opacity:1.0000; stroke:none;">
<circle cx="32.5094" cy="77.9647" r="0.7620" /> 
<path style="fill:#000000; fill-opacity:1.0000; stroke:none;fill-rule:evenodd;"
d="M 55.4267,75.2274
56.9507,75.2274
56.9507,76.7514
55.4267,76.7514
Z" /> 
</g>
<g style="fill:#000000; fill-opacity:1.0000; stroke:none;">
<circle cx="56.1887" cy="68.3695" r="0.7620" /> 
</g>
<g style="fill:#000000; fill-opacity:1.0000; stroke:none;">
<circle cx="56.1887" cy="60.7494" r="0.7620" /> 
</g>
<g style="fill:#000000; fill-opacity:1.0000; stroke:none;">
<circle cx="24.8000" cy="42.2682" r="0.8000" /> 
</g>
<g style="fill:#000000; fill-opacity:1.0000; stroke:none;">
<circle cx="24.8000" cy="52.4282" r="0.8000" /> 
</g>
<g style="fill:none; 
stroke:#000000; stroke-width:1.1430; stroke-opacity:1; 
stroke-linecap:round; stroke-linejoin:round;">
<path d="M6.3730 68.9123
L6.6270 68.9123
" />
<path d="M6.3730 66.8803
L6.6270 66.8803
" />
<path d="M6.3730 64.8482
L6.6270 64.8482
" />
<path d="M6.3730 62.8162
L6.6270 62.8162
" />
</g>
<g style="fill:#000000; fill-opacity:1.0000; stroke:none;">
<circle cx="2.0200" cy="57.7482" r="0.8000" /> 
</g>
<g style="fill:#000000; fill-opacity:1.0000; stroke:none;">
<circle cx="12.1800" cy="57.7482" r="0.8000" /> 
<path style="fill:#000000; fill-opacity:1.0000; stroke:none;fill-rule:evenodd;"
d="M 45.5250,51.0532
43.6750,51.0532
43.6750,49.2032
45.5250,49.2032
Z" /> 
<circle cx="44.6000" cy="47.5882" r="0.9250" /> 
</g>
<g style="fill:#000000; fill-opacity:1.0000; stroke:none;">
<circle cx="44.6000" cy="45.0482" r="0.9250" /> 
</g>
<g style="fill:#000000; fill-opacity:1.0000; stroke:none;">
<circle cx="20.5000" cy="42.2682" r="0.8000" /> 
</g>
<g style="fill:#000000; fill-opacity:1.0000; stroke:none;">
<circle cx="20.5000" cy="52.4282" r="0.8000" /> 
<circle cx="38.6000" cy="42.1683" r="0.8000" /> 
</g>
<g style="fill:#000000; fill-opacity:1.0000; stroke:none;">
<circle cx="38.6000" cy="52.3282" r="0.8000" /> 
<path style="fill:#000000; fill-opacity:1.0000; stroke:none;fill-rule:evenodd;"
d="M 49.8960,56.4397
49.8960,55.0317
51.3040,55.0317
51.3040,56.4397
Z" /> 
<circle cx="53.1000" cy="55.7357" r="0.7040" /> 
</g>
<g style="fill:#000000; fill-opacity:1.0000; stroke:none;">
<circle cx="55.6000" cy="55.7357" r="0.7040" /> 
</g>
<g style="fill:#000000; fill-opacity:1.0000; stroke:none;">
<circle cx="50.6000" cy="49.7357" r="0.7040" /> 
</g>
<g style="fill:#000000; fill-opacity:1.0000; stroke:none;">
<circle cx="53.1000" cy="49.7357" r="0.7040" /> 
</g>
<g style="fill:#000000; fill-opacity:1.0000; stroke:none;">
<circle cx="55.6000" cy="49.7357" r="0.7040" /> 
</g>
<g style="fill:#000000; fill-opacity:1.0000; stroke:none;">
<circle cx="20.1000" cy="5.2482" r="1.5000" /> 
<path style="fill:#000000; fill-opacity:1.0000; stroke:none;fill-rule:evenodd;"
d="M 39.3500,58.4306
41.3500,58.4306
41.3500,60.4306
39.3500,60.4306
Z" /> 
</g>
<g style="fill:#000000; fill-opacity:1.0000; stroke:none;">
<circle cx="40.3500" cy="64.4306" r="1.0000" /> 
<path style="fill:#000000; fill-opacity:1.0000; stroke:none;fill-rule:evenodd;"
d="M 41.3500,78.9159
39.3500,78.9159
39.3500,76.9159
41.3500,76.9159
Z" /> 
</g>
<g style="fill:#000000; fill-opacity:1.0000; stroke:none;">
<circle cx="40.3500" cy="72.9159" r="1.0000" /> 
</g>
<g style="fill:#000000; fill-opacity:1.0000; stroke:none;">
<circle cx="19.3000" cy="4.4482" r="0.3000" /> 
</g>
<g style="fill:#000000; fill-opacity:1.0000; stroke:none;">
<circle cx="19.3000" cy="6.0482" r="0.3000" /> 
</g>
<g style="fill:#000000; fill-opacity:1.0000; stroke:none;">
<circle cx="20.9000" cy="4.4482" r="0.3000" /> 
</g>
<g style="fill:#000000; fill-opacity:1.0000; stroke:none;">
<circle cx="20.1000" cy="6.0482" r="0.3000" /> 
</g>
<g style="fill:#000000; fill-opacity:1.0000; stroke:none;">
<circle cx="20.1000" cy="4.4482" r="0.3000" /> 
</g>
<g style="fill:#000000; fill-opacity:1.0000; stroke:none;">
<circle cx="20.1000" cy="5.2482" r="0.3000" /> 
</g>
<g style="fill:#000000; fill-opacity:1.0000; stroke:none;">
<circle cx="20.9000" cy="5.2482" r="0.3000" /> 
</g>
<g style="fill:#000000; fill-opacity:1.0000; stroke:none;">
<circle cx="19.3000" cy="5.2482" r="0.3000" /> 
</g>
<g style="fill:#000000; fill-opacity:1.0000; stroke:none;">
<circle cx="20.9000" cy="6.0482" r="0.3000" /> 
</g>
<g style="fill:#000000; fill-opacity:1.0000; stroke:none;">
<circle cx="40.9000" cy="5.2482" r="0.3000" /> 
</g>
<g style="fill:#000000; fill-opacity:1.0000; stroke:none;">
<circle cx="40.1000" cy="5.2482" r="0.3000" /> 
</g>
<g style="fill:#000000; fill-opacity:1.0000; stroke:none;">
<circle cx="40.9000" cy="6.0482" r="0.3000" /> 
</g>
<g style="fill:#000000; fill-opacity:1.0000; stroke:none;">
<circle cx="39.3000" cy="5.2482" r="0.3000" /> 
</g>
<g style="fill:#000000; fill-opacity:1.0000; stroke:none;">
<circle cx="39.3000" cy="4.4482" r="0.3000" /> 
</g>
<g style="fill:#000000; fill-opacity:1.0000; stroke:none;">
<circle cx="39.3000" cy="6.0482" r="0.3000" /> 
</g>
<g style="fill:#000000; fill-opacity:1.0000; stroke:none;">
<circle cx="40.1000" cy="4.4482" r="0.3000" /> 
</g>
<g style="fill:#000000; fill-opacity:1.0000; stroke:none;">
<circle cx="40.9000" cy="4.4482" r="0.3000" /> 
</g>
<g style="fill:#000000; fill-opacity:1.0000; stroke:none;">
<circle cx="40.1000" cy="6.0482" r="0.3000" /> 
</g>
<g style="fill:#000000; fill-opacity:1.0000; stroke:none;">
<circle cx="42.8000" cy="27.9482" r="0.3000" /> 
</g>
<g style="fill:none; 
stroke:#000000; stroke-width:1.5000; stroke-opacity:1; 
stroke-linecap:round; stroke-linejoin:round;">
<path d="M31.5200 45.0482
L31.3000 45.2682
" />
<path d="M44.6000 45.0482
L31.5200 45.0482
" />
<path d="M27.9000 51.9806
L40.3500 64.4306
" />
<path d="M12.4806 76.4676
L13.4500 75.4982
" />
</g>
<g style="fill:none; 
stroke:#000000; stroke-width:0.1270; stroke-opacity:1; 
stroke-linecap:round; stroke-linejoin:round;">
<path d="M41.7200 42.1683
L44.6000 45.0482
" />
</g>
<g style="fill:none; 
stroke:#000000; stroke-width:1.0000; stroke-opacity:1; 
stroke-linecap:round; stroke-linejoin:round;">
<path d="M29.9694 75.1788
L32.2323 72.9159
" />
</g>
<g style="fill:none; 
stroke:#000000; stroke-width:1.5000; stroke-opacity:1; 
stroke-linecap:round; stroke-linejoin:round;">
<path d="M27.9000 47.5482
L27.9000 51.9806
" />
</g>
<g style="fill:none; 
stroke:#000000; stroke-width:1.0000; stroke-opacity:1; 
stroke-linecap:round; stroke-linejoin:round;">
<path d="M51.6422 72.9159
L56.1887 68.3695
" />
</g>
<g style="fill:none; 
stroke:#000000; stroke-width:1.5000; stroke-opacity:1; 
stroke-linecap:round; stroke-linejoin:round;">
<path d="M21.0729 74.1482
L24.8894 77.9647
" />
<path d="M13.4500 75.4982
L14.8000 74.1482
" />
<path d="M12.4806 78.4483
L12.4806 76.4676
" />
</g>
<g style="fill:none; 
stroke:#000000; stroke-width:1.0000; stroke-opacity:1; 
stroke-linecap:round; stroke-linejoin:round;">
<path d="M29.9694 77.9647
L29.9694 75.1788
" />
<path d="M40.3500 72.9159
L51.6422 72.9159
" />
</g>
<g style="fill:none; 
stroke:#000000; stroke-width:1.5000; stroke-opacity:1; 
stroke-linecap:round; stroke-linejoin:round;">
<path d="M5.4806 77.4483
L11.5000 77.4483
" />
<path d="M24.8894 77.9647
L22.3494 77.9647
" />
</g>
<g style="fill:none; 
stroke:#000000; stroke-width:0.1270; stroke-opacity:1; 
stroke-linecap:round; stroke-linejoin:round;">
<path d="M38.6000 42.1683
L41.7200 42.1683
" />
</g>
<g style="fill:none; 
stroke:#000000; stroke-width:1.0000; stroke-opacity:1; 
stroke-linecap:round; stroke-linejoin:round;">
<path d="M32.2323 72.9159
L40.3500 72.9159
" />
</g>
<g style="fill:none; 
stroke:#000000; stroke-width:1.5000; stroke-opacity:1; 
stroke-linecap:round; stroke-linejoin:round;">
<path d="M56.1887 68.3695
L44.2889 68.3695
" />
<path d="M14.8000 74.1482
L21.0729 74.1482
" />
</g>
<g style="fill:none; 
stroke:#000000; stroke-width:0.2540; stroke-opacity:1; 
stroke-linecap:round; stroke-linejoin:round;">
<path d="M28.3000 42.2682
L31.3000 45.2682
" />
</g>
<g style="fill:none; 
stroke:#000000; stroke-width:1.5000; stroke-opacity:1; 
stroke-linecap:round; stroke-linejoin:round;">
<path d="M11.5000 77.4483
L13.4500 75.4982
" />
<path d="M31.3000 45.2682
L30.1800 45.2682
" />
<path d="M44.2889 68.3695
L40.3500 64.4306
" />
<path d="M30.1800 45.2682
L27.9000 47.5482
" />
</g>
<g style="fill:none; 
stroke:#000000; stroke-width:0.2540; stroke-opacity:1; 
stroke-linecap:round; stroke-linejoin:round;">
<path d="M24.8000 42.2682
L28.3000 42.2682
" />
</g>
<g style="fill:none; 
stroke:#000000; stroke-width:0.1270; stroke-opacity:1; 
stroke-linecap:round; stroke-linejoin:round;">
<path d="M3.6375 57.0857
L3.6375 30.9857
" />
<path d="M2.0000 29.3483
L2.0000 26.1318
" />
<path d="M3.9000 62.2482
L3.9000 57.3483
" />
<path d="M2.0000 26.1318
L4.5800 23.5517
" />
<path d="M3.9000 57.3483
L3.6375 57.0857
" />
<path d="M6.5000 64.8482
L3.9000 62.2482
" />
<path d="M3.6375 30.9857
L2.0000 29.3483
" />
<path d="M2.0200 65.3683
L5.5640 68.9123
" />
<path d="M2.0200 57.7482
L2.0200 65.3683
" />
<path d="M5.5640 68.9123
L6.5000 68.9123
" />
<path d="M5.5225 27.0343
L5.5225 56.5707
" />
<path d="M4.5800 26.0917
L5.5225 27.0343
" />
<path d="M6.5000 57.5482
L6.5000 62.8162
" />
<path d="M5.5225 56.5707
L6.5000 57.5482
" />
</g>
<g style="fill:none; 
stroke:#000000; stroke-width:1.5000; stroke-opacity:1; 
stroke-linecap:round; stroke-linejoin:round;">
<path d="M57.9000 45.2482
L51.6000 38.9483
" />
<path d="M40.3500 59.4306
L54.8698 59.4306
" />
<path d="M55.6000 55.7357
L55.6000 53.0482
" />
<path d="M54.8698 59.4306
L56.1887 60.7494
" />
<path d="M51.6000 25.4032
L55.2000 21.8032
" />
</g>
<g style="fill:none; 
stroke:#000000; stroke-width:0.2540; stroke-opacity:1; 
stroke-linecap:round; stroke-linejoin:round;">
<path d="M55.8000 60.3607
L56.1887 60.7494
" />
</g>
<g style="fill:none; 
stroke:#000000; stroke-width:1.5000; stroke-opacity:1; 
stroke-linecap:round; stroke-linejoin:round;">
<path d="M55.6000 55.7357
L55.6000 58.7004
" />
<path d="M51.6000 38.9483
L51.6000 25.4032
" />
<path d="M57.9000 50.7482
L57.9000 45.2482
" />
<path d="M55.6000 58.7004
L54.8698 59.4306
" />
<path d="M55.6000 53.0482
L57.9000 50.7482
" />
</g>
<g style="fill:none; 
stroke:#000000; stroke-width:0.2540; stroke-opacity:1; 
stroke-linecap:round; stroke-linejoin:round;">
<path d="M50.2075 55.7357
L44.6000 50.1282
" />
<path d="M50.6000 55.7357
L50.2075 55.7357
" />
<path d="M22.8235 18.4718
L32.2000 27.8483
" />
<path d="M32.2000 27.8483
L42.7000 27.8483
" />
<path d="M42.7000 27.8483
L42.8000 27.9482
" />
<path d="M19.8200 18.4718
L22.8235 18.4718
" />
</g>
<g style="fill:none; 
stroke:#000000; stroke-width:0.1270; stroke-opacity:1; 
stroke-linecap:round; stroke-linejoin:round;">
<path d="M17.1000 29.4482
L17.1000 23.7317
" />
<path d="M17.1000 23.7317
L19.8200 21.0117
" />
<path d="M20.5000 42.2682
L18.8775 40.6457
" />
<path d="M18.8775 31.2257
L17.1000 29.4482
" />
<path d="M18.8775 40.6457
L18.8775 31.2257
" />
<path d="M35.0000 36.2482
L35.0000 42.1882
" />
<path d="M22.2965 23.5517
L22.3000 23.5482
" />
<path d="M22.3000 23.5482
L35.0000 36.2482
" />
<path d="M19.8200 23.5517
L22.2965 23.5517
" />
<path d="M12.1800 28.6117
L4.5800 21.0117
" />
<path d="M12.1800 57.7482
L12.1800 28.6117
" />
</g>
<g style="fill:none; 
stroke:#000000; stroke-width:0.2540; stroke-opacity:1; 
stroke-linecap:round; stroke-linejoin:round;">
<path d="M8.9800 52.4282
L8.2000 51.6482
" />
</g>
<g style="fill:none; 
stroke:#000000; stroke-width:1.5000; stroke-opacity:1; 
stroke-linecap:round; stroke-linejoin:round;">
<path d="M50.9250 16.7233
L55.2000 16.7233
" />
<path d="M44.6000 47.5882
L46.7600 47.5882
" />
<path d="M47.7000 46.6482
L47.7000 40.5482
" />
<path d="M46.7600 47.5882
L47.7000 46.6482
" />
<path d="M47.7000 40.5482
L44.9000 37.7482
" />
<path d="M44.9000 37.7482
L44.9000 22.7482
" />
<path d="M44.9000 22.7482
L50.9250 16.7233
" />
<path d="M3.4806 77.4483
L3.4806 75.2677
" />
<path d="M14.0000 70.2482
L22.5000 70.2482
" />
<path d="M27.4294 77.9647
L27.4294 75.1776
" />
<path d="M27.4294 75.1776
L22.5000 70.2482
" />
<path d="M3.4806 75.2677
L4.9000 73.8482
" />
<path d="M4.9000 73.8482
L10.4000 73.8482
" />
<path d="M10.4000 73.8482
L14.0000 70.2482
" />
</g>
<g style="fill:none; 
stroke:#000000; stroke-width:1.0000; stroke-opacity:1; 
stroke-linecap:round; stroke-linejoin:round;">
<path d="M14.4806 78.4483
L19.3259 78.4483
" />
<path d="M19.3259 78.4483
L19.8094 77.9647
" />
<path d="M40.3012 77.9647
L40.3500 77.9159
" />
<path d="M40.3500 77.9159
L54.2622 77.9159
" />
<path d="M54.2622 77.9159
L56.1887 75.9894
" />
<path d="M32.5094 77.9647
L40.3012 77.9647
" />
</g>
<g style="fill:none; 
stroke:#000000; stroke-width:0.1270; stroke-opacity:1; 
stroke-linecap:round; stroke-linejoin:round;">
<path d="M35.0000 52.3483
L38.5800 52.3483
" />
<path d="M31.4000 50.3483
L33.4000 52.3483
" />
<path d="M33.4000 52.3483
L35.0000 52.3483
" />
<path d="M31.3000 50.3483
L31.4000 50.3483
" />
<path d="M38.5800 52.3483
L38.6000 52.3282
" />
</g>
<g style="fill:#FFFFFF; fill-opacity:1.0000; stroke:none;">
<circle cx="19.3000" cy="4.4482" r="0.1500" /> 
</g>
<g style="fill:#FFFFFF; fill-opacity:1.0000; stroke:none;">
<circle cx="19.3000" cy="6.0482" r="0.1500" /> 
</g>
<g style="fill:#FFFFFF; fill-opacity:1.0000; stroke:none;">
<circle cx="20.9000" cy="4.4482" r="0.1500" /> 
</g>
<g style="fill:#FFFFFF; fill-opacity:1.0000; stroke:none;">
<circle cx="20.1000" cy="6.0482" r="0.1500" /> 
</g>
<g style="fill:#FFFFFF; fill-opacity:1.0000; stroke:none;">
<circle cx="20.1000" cy="4.4482" r="0.1500" /> 
</g>
<g style="fill:#FFFFFF; fill-opacity:1.0000; stroke:none;">
<circle cx="20.1000" cy="5.2482" r="0.1500" /> 
</g>
<g style="fill:#FFFFFF; fill-opacity:1.0000; stroke:none;">
<circle cx="20.9000" cy="5.2482" r="0.1500" /> 
</g>
<g style="fill:#FFFFFF; fill-opacity:1.0000; stroke:none;">
<circle cx="19.3000" cy="5.2482" r="0.1500" /> 
</g>
<g style="fill:#FFFFFF; fill-opacity:1.0000; stroke:none;">
<circle cx="20.9000" cy="6.0482" r="0.1500" /> 
</g>
<g style="fill:#FFFFFF; fill-opacity:1.0000; stroke:none;">
<circle cx="40.9000" cy="5.2482" r="0.1500" /> 
</g>
<g style="fill:#FFFFFF; fill-opacity:1.0000; stroke:none;">
<circle cx="40.1000" cy="5.2482" r="0.1500" /> 
</g>
<g style="fill:#FFFFFF; fill-opacity:1.0000; stroke:none;">
<circle cx="40.9000" cy="6.0482" r="0.1500" /> 
</g>
<g style="fill:#FFFFFF; fill-opacity:1.0000; stroke:none;">
<circle cx="39.3000" cy="5.2482" r="0.1500" /> 
</g>
<g style="fill:#FFFFFF; fill-opacity:1.0000; stroke:none;">
<circle cx="39.3000" cy="4.4482" r="0.1500" /> 
</g>
<g style="fill:#FFFFFF; fill-opacity:1.0000; stroke:none;">
<circle cx="39.3000" cy="6.0482" r="0.1500" /> 
</g>
<g style="fill:#FFFFFF; fill-opacity:1.0000; stroke:none;">
<circle cx="40.1000" cy="4.4482" r="0.1500" /> 
</g>
<g style="fill:#FFFFFF; fill-opacity:1.0000; stroke:none;">
<circle cx="40.9000" cy="4.4482" r="0.1500" /> 
</g>
<g style="fill:#FFFFFF; fill-opacity:1.0000; stroke:none;">
<circle cx="40.1000" cy="6.0482" r="0.1500" /> 
</g>
<g style="fill:#FFFFFF; fill-opacity:1.0000; stroke:none;">
<circle cx="42.8000" cy="27.9482" r="0.1500" /> 
</g>
<g style="fill:#FFFFFF; fill-opacity:1.0000; stroke:none;">
<circle cx="55.2000" cy="16.7482" r="0.3810" /> 
</g>
<g style="fill:#FFFFFF; fill-opacity:1.0000; stroke:none;">
<circle cx="55.2000" cy="21.8283" r="0.3810" /> 
</g>
<g style="fill:#FFFFFF; fill-opacity:1.0000; stroke:none;">
<circle cx="55.2000" cy="26.9082" r="0.3810" /> 
</g>
<g style="fill:#FFFFFF; fill-opacity:1.0000; stroke:none;">
<circle cx="55.2000" cy="31.9882" r="0.3810" /> 
</g>
<g style="fill:#FFFFFF; fill-opacity:1.0000; stroke:none;">
<circle cx="14.4806" cy="78.4483" r="0.3750" /> 
</g>
<g style="fill:#FFFFFF; fill-opacity:1.0000; stroke:none;">
<circle cx="12.4806" cy="78.4483" r="0.3750" /> 
</g>
<g style="fill:#FFFFFF; fill-opacity:1.0000; stroke:none;">
<circle cx="31.3000" cy="50.3483" r="0.6150" /> 
</g>
<g style="fill:#FFFFFF; fill-opacity:1.0000; stroke:none;">
<circle cx="31.3000" cy="47.8083" r="0.6150" /> 
</g>
<g style="fill:#FFFFFF; fill-opacity:1.0000; stroke:none;">
<circle cx="31.3000" cy="45.2682" r="0.6150" /> 
</g>
<g style="fill:#FFFFFF; fill-opacity:1.0000; stroke:none;">
<circle cx="3.4806" cy="77.4483" r="0.3750" /> 
</g>
<g style="fill:#FFFFFF; fill-opacity:1.0000; stroke:none;">
<circle cx="5.4806" cy="77.4483" r="0.3750" /> 
</g>
<g style="fill:#FFFFFF; fill-opacity:1.0000; stroke:none;">
<circle cx="35.0000" cy="52.3483" r="0.4000" /> 
</g>
<g style="fill:#FFFFFF; fill-opacity:1.0000; stroke:none;">
<circle cx="35.0000" cy="42.1882" r="0.4000" /> 
</g>
<g style="fill:#FFFFFF; fill-opacity:1.0000; stroke:none;">
<circle cx="4.5800" cy="13.3918" r="0.4250" /> 
</g>
<g style="fill:#FFFFFF; fill-opacity:1.0000; stroke:none;">
<circle cx="4.5800" cy="15.9317" r="0.4250" /> 
</g>
<g style="fill:#FFFFFF; fill-opacity:1.0000; stroke:none;">
<circle cx="4.5800" cy="18.4718" r="0.4250" /> 
</g>
<g style="fill:#FFFFFF; fill-opacity:1.0000; stroke:none;">
<circle cx="4.5800" cy="21.0117" r="0.4250" /> 
</g>
<g style="fill:#FFFFFF; fill-opacity:1.0000; stroke:none;">
<circle cx="4.5800" cy="23.5517" r="0.4250" /> 
</g>
<g style="fill:#FFFFFF; fill-opacity:1.0000; stroke:none;">
<circle cx="4.5800" cy="26.0917" r="0.4250" /> 
</g>
<g style="fill:#FFFFFF; fill-opacity:1.0000; stroke:none;">
<circle cx="4.5800" cy="28.6318" r="0.4250" /> 
</g>
<g style="fill:#FFFFFF; fill-opacity:1.0000; stroke:none;">
<circle cx="19.8200" cy="28.6318" r="0.4250" /> 
</g>
<g style="fill:#FFFFFF; fill-opacity:1.0000; stroke:none;">
<circle cx="19.8200" cy="26.0917" r="0.4250" /> 
</g>
<g style="fill:#FFFFFF; fill-opacity:1.0000; stroke:none;">
<circle cx="19.8200" cy="23.5517" r="0.4250" /> 
</g>
<g style="fill:#FFFFFF; fill-opacity:1.0000; stroke:none;">
<circle cx="19.8200" cy="21.0117" r="0.4250" /> 
</g>
<g style="fill:#FFFFFF; fill-opacity:1.0000; stroke:none;">
<circle cx="19.8200" cy="18.4718" r="0.4250" /> 
</g>
<g style="fill:#FFFFFF; fill-opacity:1.0000; stroke:none;">
<circle cx="19.8200" cy="15.9317" r="0.4250" /> 
</g>
<g style="fill:#FFFFFF; fill-opacity:1.0000; stroke:none;">
<circle cx="19.8200" cy="13.3918" r="0.4250" /> 
</g>
<g style="fill:#FFFFFF; fill-opacity:1.0000; stroke:none;">
<circle cx="8.2000" cy="51.6482" r="0.5000" /> 
</g>
<g style="fill:#FFFFFF; fill-opacity:1.0000; stroke:none;">
<circle cx="8.2000" cy="44.0482" r="0.5000" /> 
</g>
<g style="fill:#FFFFFF; fill-opacity:1.0000; stroke:none;">
<circle cx="19.8094" cy="77.9647" r="0.3810" /> 
</g>
<g style="fill:#FFFFFF; fill-opacity:1.0000; stroke:none;">
<circle cx="22.3494" cy="77.9647" r="0.3810" /> 
</g>
<g style="fill:#FFFFFF; fill-opacity:1.0000; stroke:none;">
<circle cx="24.8894" cy="77.9647" r="0.3810" /> 
</g>
<g style="fill:#FFFFFF; fill-opacity:1.0000; stroke:none;">
<circle cx="27.4294" cy="77.9647" r="0.3810" /> 
</g>
<g style="fill:#FFFFFF; fill-opacity:1.0000; stroke:none;">
<circle cx="29.9694" cy="77.9647" r="0.3810" /> 
</g>
<g style="fill:#FFFFFF; fill-opacity:1.0000; stroke:none;">
<circle cx="32.5094" cy="77.9647" r="0.3810" /> 
</g>
<g style="fill:#FFFFFF; fill-opacity:1.0000; stroke:none;">
<circle cx="56.1887" cy="75.9894" r="0.3810" /> 
</g>
<g style="fill:#FFFFFF; fill-opacity:1.0000; stroke:none;">
<circle cx="56.1887" cy="68.3695" r="0.3810" /> 
</g>
<g style="fill:#FFFFFF; fill-opacity:1.0000; stroke:none;">
<circle cx="56.1887" cy="60.7494" r="0.3810" /> 
</g>
<g style="fill:#FFFFFF; fill-opacity:1.0000; stroke:none;">
<circle cx="24.8000" cy="42.2682" r="0.4000" /> 
</g>
<g style="fill:#FFFFFF; fill-opacity:1.0000; stroke:none;">
<circle cx="24.8000" cy="52.4282" r="0.4000" /> 
</g>
<g style="fill:#FFFFFF; fill-opacity:1.0000; stroke:none;">
<circle cx="6.5000" cy="68.9123" r="0.4445" /> 
</g>
<g style="fill:#FFFFFF; fill-opacity:1.0000; stroke:none;">
<circle cx="6.5000" cy="66.8803" r="0.4445" /> 
</g>
<g style="fill:#FFFFFF; fill-opacity:1.0000; stroke:none;">
<circle cx="6.5000" cy="64.8482" r="0.4445" /> 
</g>
<g style="fill:#FFFFFF; fill-opacity:1.0000; stroke:none;">
<circle cx="6.5000" cy="62.8162" r="0.4445" /> 
</g>
<g style="fill:#FFFFFF; fill-opacity:1.0000; stroke:none;">
<circle cx="2.0200" cy="57.7482" r="0.4000" /> 
</g>
<g style="fill:#FFFFFF; fill-opacity:1.0000; stroke:none;">
<circle cx="12.1800" cy="57.7482" r="0.4000" /> 
</g>
<g style="fill:#FFFFFF; fill-opacity:1.0000; stroke:none;">
<circle cx="44.6000" cy="50.1282" r="0.6150" /> 
</g>
<g style="fill:#FFFFFF; fill-opacity:1.0000; stroke:none;">
<circle cx="44.6000" cy="47.5882" r="0.6150" /> 
</g>
<g style="fill:#FFFFFF; fill-opacity:1.0000; stroke:none;">
<circle cx="44.6000" cy="45.0482" r="0.6150" /> 
</g>
<g style="fill:#FFFFFF; fill-opacity:1.0000; stroke:none;">
<circle cx="20.5000" cy="42.2682" r="0.4000" /> 
</g>
<g style="fill:#FFFFFF; fill-opacity:1.0000; stroke:none;">
<circle cx="20.5000" cy="52.4282" r="0.4000" /> 
</g>
<g style="fill:#FFFFFF; fill-opacity:1.0000; stroke:none;">
<circle cx="38.6000" cy="42.1683" r="0.4000" /> 
</g>
<g style="fill:#FFFFFF; fill-opacity:1.0000; stroke:none;">
<circle cx="38.6000" cy="52.3282" r="0.4000" /> 
</g>
<g style="fill:#FFFFFF; fill-opacity:1.0000; stroke:none;">
<circle cx="50.6000" cy="55.7357" r="0.4500" /> 
</g>
<g style="fill:#FFFFFF; fill-opacity:1.0000; stroke:none;">
<circle cx="53.1000" cy="55.7357" r="0.4500" /> 
</g>
<g style="fill:#FFFFFF; fill-opacity:1.0000; stroke:none;">
<circle cx="55.6000" cy="55.7357" r="0.4500" /> 
</g>
<g style="fill:#FFFFFF; fill-opacity:1.0000; stroke:none;">
<circle cx="50.6000" cy="49.7357" r="0.4500" /> 
</g>
<g style="fill:#FFFFFF; fill-opacity:1.0000; stroke:none;">
<circle cx="53.1000" cy="49.7357" r="0.4500" /> 
</g>
<g style="fill:#FFFFFF; fill-opacity:1.0000; stroke:none;">
<circle cx="55.6000" cy="49.7357" r="0.4500" /> 
</g>
<g style="fill:#FFFFFF; fill-opacity:1.0000; stroke:none;">
<circle cx="40.3500" cy="59.4306" r="0.5000" /> 
</g>
<g style="fill:#FFFFFF; fill-opacity:1.0000; stroke:none;">
<circle cx="40.3500" cy="64.4306" r="0.5000" /> 
</g>
<g style="fill:#FFFFFF; fill-opacity:1.0000; stroke:none;">
<circle cx="40.3500" cy="77.9159" r="0.5000" /> 
</g>
<g style="fill:#FFFFFF; fill-opacity:1.0000; stroke:none;">
<circle cx="40.3500" cy="72.9159" r="0.5000" /> 
</g>
<g style="fill:#000000; fill-opacity:1.0000; stroke:none;">
<circle cx="2.6000" cy="4.5482" r="1.5250" /> 
<circle cx="57.6000" cy="4.5482" r="1.5250" /> 
<path style="fill:none; 
stroke:#000000; stroke-width:0.2000; stroke-opacity:1; 
stroke-linecap:round; stroke-linejoin:round;fill:none"
d="M 0.1000,1.7482
60.1000,1.7482
60.1000,81.7482
0.1000,81.7482
Z" /> 
</g>
<g style="fill:#000000; fill-opacity:1.0000; stroke:none;">
<circle cx="29.5000" cy="11.4733" r="1.5500" /> 
<circle cx="29.5000" cy="37.2732" r="1.5500" /> 
<circle cx="55.9000" cy="11.4733" r="1.5500" /> 
<circle cx="55.9000" cy="37.2732" r="1.5500" /> 
</g> 
</svg>
