%TF.GenerationSoftware,KiCad,Pcbnew,8.0.4*%
%TF.CreationDate,2024-08-08T12:01:29+02:00*%
%TF.ProjectId,LED-board-PWM,4c45442d-626f-4617-9264-2d50574d2e6b,rev?*%
%TF.SameCoordinates,Original*%
%TF.FileFunction,Drillmap*%
%TF.FilePolarity,Positive*%
%FSLAX45Y45*%
G04 Gerber Fmt 4.5, Leading zero omitted, Abs format (unit mm)*
G04 Created by KiCad (PCBNEW 8.0.4) date 2024-08-08 12:01:29*
%MOMM*%
%LPD*%
G01*
G04 APERTURE LIST*
%ADD10C,1.525000*%
%ADD11C,0.200000*%
%ADD12C,1.550000*%
%ADD13C,0.100000*%
%ADD14C,0.123000*%
G04 APERTURE END LIST*
D10*
X10326250Y-4750000D02*
G75*
G02*
X10173750Y-4750000I-76250J0D01*
G01*
X10173750Y-4750000D02*
G75*
G02*
X10326250Y-4750000I76250J0D01*
G01*
X15826250Y-4750000D02*
G75*
G02*
X15673750Y-4750000I-76250J0D01*
G01*
X15673750Y-4750000D02*
G75*
G02*
X15826250Y-4750000I76250J0D01*
G01*
D11*
X10000000Y-4470000D02*
X16000000Y-4470000D01*
X16000000Y-12470000D01*
X10000000Y-12470000D01*
X10000000Y-4470000D01*
D12*
X13107500Y-5430000D02*
G75*
G02*
X12952500Y-5430000I-77500J0D01*
G01*
X12952500Y-5430000D02*
G75*
G02*
X13107500Y-5430000I77500J0D01*
G01*
X13107500Y-8010000D02*
G75*
G02*
X12952500Y-8010000I-77500J0D01*
G01*
X12952500Y-8010000D02*
G75*
G02*
X13107500Y-8010000I77500J0D01*
G01*
X15747500Y-5430000D02*
G75*
G02*
X15592500Y-5430000I-77500J0D01*
G01*
X15592500Y-5430000D02*
G75*
G02*
X15747500Y-5430000I77500J0D01*
G01*
X15747500Y-8010000D02*
G75*
G02*
X15592500Y-8010000I-77500J0D01*
G01*
X15592500Y-8010000D02*
G75*
G02*
X15747500Y-8010000I77500J0D01*
G01*
D11*
D13*
X11005000Y-9365000D02*
X11035000Y-9395000D01*
X11035000Y-9365000D02*
X11005000Y-9395000D01*
X11310000Y-5560000D02*
X11340000Y-5590000D01*
X11340000Y-5560000D02*
X11310000Y-5590000D01*
X11535000Y-6548000D02*
X11565000Y-6578000D01*
X11565000Y-6548000D02*
X11535000Y-6578000D01*
X11575000Y-9455000D02*
X11605000Y-9485000D01*
X11605000Y-9455000D02*
X11575000Y-9485000D01*
X11975000Y-5265000D02*
X12005000Y-5295000D01*
X12005000Y-5265000D02*
X11975000Y-5295000D01*
X12210000Y-7110000D02*
X12240000Y-7140000D01*
X12240000Y-7110000D02*
X12210000Y-7140000D01*
X12420000Y-6960000D02*
X12450000Y-6990000D01*
X12450000Y-6960000D02*
X12420000Y-6990000D01*
X13045000Y-9000000D02*
X13075000Y-9030000D01*
X13075000Y-9000000D02*
X13045000Y-9030000D01*
X12447500Y-7416000D02*
G75*
G02*
X12392500Y-7416000I-27500J0D01*
G01*
X12392500Y-7416000D02*
G75*
G02*
X12447500Y-7416000I27500J0D01*
G01*
X12447500Y-7543000D02*
G75*
G02*
X12392500Y-7543000I-27500J0D01*
G01*
X12392500Y-7543000D02*
G75*
G02*
X12447500Y-7543000I27500J0D01*
G01*
X12447500Y-7670000D02*
G75*
G02*
X12392500Y-7670000I-27500J0D01*
G01*
X12392500Y-7670000D02*
G75*
G02*
X12447500Y-7670000I27500J0D01*
G01*
X10980500Y-4635000D02*
X10980500Y-4705000D01*
X10945500Y-4670000D02*
X11015500Y-4670000D01*
X11170500Y-4635000D02*
X11170500Y-4705000D01*
X11135500Y-4670000D02*
X11205500Y-4670000D01*
X10364577Y-12066517D02*
X10364577Y-12013483D01*
X10311543Y-12013483D01*
X10311543Y-12066517D01*
X10364577Y-12066517D01*
X10564577Y-12066517D02*
X10564577Y-12013483D01*
X10511543Y-12013483D01*
X10511543Y-12066517D01*
X10564577Y-12066517D01*
X11264577Y-12166517D02*
X11264577Y-12113483D01*
X11211543Y-12113483D01*
X11211543Y-12166517D01*
X11264577Y-12166517D01*
X11464577Y-12166517D02*
X11464577Y-12113483D01*
X11411543Y-12113483D01*
X11411543Y-12166517D01*
X11464577Y-12166517D01*
X11970940Y-12129750D02*
X12009040Y-12091650D01*
X11970940Y-12053550D01*
X11932840Y-12091650D01*
X11970940Y-12129750D01*
X12224940Y-12129750D02*
X12263040Y-12091650D01*
X12224940Y-12053550D01*
X12186840Y-12091650D01*
X12224940Y-12129750D01*
X12478940Y-12129750D02*
X12517040Y-12091650D01*
X12478940Y-12053550D01*
X12440840Y-12091650D01*
X12478940Y-12129750D01*
X12732940Y-12129750D02*
X12771040Y-12091650D01*
X12732940Y-12053550D01*
X12694840Y-12091650D01*
X12732940Y-12129750D01*
X12986940Y-12129750D02*
X13025040Y-12091650D01*
X12986940Y-12053550D01*
X12948840Y-12091650D01*
X12986940Y-12129750D01*
X13100000Y-5996600D02*
X13138100Y-5958500D01*
X13100000Y-5920400D01*
X13061900Y-5958500D01*
X13100000Y-5996600D01*
X13100000Y-6504600D02*
X13138100Y-6466500D01*
X13100000Y-6428400D01*
X13061900Y-6466500D01*
X13100000Y-6504600D01*
X13100000Y-7012600D02*
X13138100Y-6974500D01*
X13100000Y-6936400D01*
X13061900Y-6974500D01*
X13100000Y-7012600D01*
X13100000Y-7520600D02*
X13138100Y-7482500D01*
X13100000Y-7444400D01*
X13061900Y-7482500D01*
X13100000Y-7520600D01*
X13240940Y-12129750D02*
X13279040Y-12091650D01*
X13240940Y-12053550D01*
X13202840Y-12091650D01*
X13240940Y-12129750D01*
X15608870Y-10408220D02*
X15646970Y-10370120D01*
X15608870Y-10332020D01*
X15570770Y-10370120D01*
X15608870Y-10408220D01*
X15608870Y-11170220D02*
X15646970Y-11132120D01*
X15608870Y-11094020D01*
X15570770Y-11132120D01*
X15608870Y-11170220D01*
X15608870Y-11932220D02*
X15646970Y-11894120D01*
X15608870Y-11856020D01*
X15570770Y-11894120D01*
X15608870Y-11932220D01*
X10150000Y-9600000D02*
X10230000Y-9680000D01*
X10230000Y-9600000D02*
X10150000Y-9680000D01*
X10230000Y-9640000D02*
G75*
G02*
X10150000Y-9640000I-40000J0D01*
G01*
X10150000Y-9640000D02*
G75*
G02*
X10230000Y-9640000I40000J0D01*
G01*
X10150000Y-10616000D02*
X10230000Y-10696000D01*
X10230000Y-10616000D02*
X10150000Y-10696000D01*
X10230000Y-10656000D02*
G75*
G02*
X10150000Y-10656000I-40000J0D01*
G01*
X10150000Y-10656000D02*
G75*
G02*
X10230000Y-10656000I40000J0D01*
G01*
X10522000Y-4920000D02*
X10602000Y-5000000D01*
X10602000Y-4920000D02*
X10522000Y-5000000D01*
X10602000Y-4960000D02*
G75*
G02*
X10522000Y-4960000I-40000J0D01*
G01*
X10522000Y-4960000D02*
G75*
G02*
X10602000Y-4960000I40000J0D01*
G01*
X11050000Y-7575000D02*
X11130000Y-7655000D01*
X11130000Y-7575000D02*
X11050000Y-7655000D01*
X11130000Y-7615000D02*
G75*
G02*
X11050000Y-7615000I-40000J0D01*
G01*
X11050000Y-7615000D02*
G75*
G02*
X11130000Y-7615000I40000J0D01*
G01*
X11050000Y-7825000D02*
X11130000Y-7905000D01*
X11130000Y-7825000D02*
X11050000Y-7905000D01*
X11130000Y-7865000D02*
G75*
G02*
X11050000Y-7865000I-40000J0D01*
G01*
X11050000Y-7865000D02*
G75*
G02*
X11130000Y-7865000I40000J0D01*
G01*
X11090000Y-10820000D02*
X11170000Y-10900000D01*
X11170000Y-10820000D02*
X11090000Y-10900000D01*
X11170000Y-10860000D02*
G75*
G02*
X11090000Y-10860000I-40000J0D01*
G01*
X11090000Y-10860000D02*
G75*
G02*
X11170000Y-10860000I40000J0D01*
G01*
X11340000Y-10820000D02*
X11420000Y-10900000D01*
X11420000Y-10820000D02*
X11340000Y-10900000D01*
X11420000Y-10860000D02*
G75*
G02*
X11340000Y-10860000I-40000J0D01*
G01*
X11340000Y-10860000D02*
G75*
G02*
X11420000Y-10860000I40000J0D01*
G01*
X11420000Y-7609500D02*
X11500000Y-7689500D01*
X11500000Y-7609500D02*
X11420000Y-7689500D01*
X11500000Y-7649500D02*
G75*
G02*
X11420000Y-7649500I-40000J0D01*
G01*
X11420000Y-7649500D02*
G75*
G02*
X11500000Y-7649500I40000J0D01*
G01*
X11420000Y-8625500D02*
X11500000Y-8705500D01*
X11500000Y-8625500D02*
X11420000Y-8705500D01*
X11500000Y-8665500D02*
G75*
G02*
X11420000Y-8665500I-40000J0D01*
G01*
X11420000Y-8665500D02*
G75*
G02*
X11500000Y-8665500I40000J0D01*
G01*
X11538000Y-4920000D02*
X11618000Y-5000000D01*
X11618000Y-4920000D02*
X11538000Y-5000000D01*
X11618000Y-4960000D02*
G75*
G02*
X11538000Y-4960000I-40000J0D01*
G01*
X11538000Y-4960000D02*
G75*
G02*
X11618000Y-4960000I40000J0D01*
G01*
X11762500Y-8496500D02*
X11842500Y-8576500D01*
X11842500Y-8496500D02*
X11762500Y-8576500D01*
X11842500Y-8536500D02*
G75*
G02*
X11762500Y-8536500I-40000J0D01*
G01*
X11762500Y-8536500D02*
G75*
G02*
X11842500Y-8536500I40000J0D01*
G01*
X11762500Y-9512500D02*
X11842500Y-9592500D01*
X11842500Y-9512500D02*
X11762500Y-9592500D01*
X11842500Y-9552500D02*
G75*
G02*
X11762500Y-9552500I-40000J0D01*
G01*
X11762500Y-9552500D02*
G75*
G02*
X11842500Y-9552500I40000J0D01*
G01*
X11847000Y-8070000D02*
X11927000Y-8150000D01*
X11927000Y-8070000D02*
X11847000Y-8150000D01*
X11927000Y-8110000D02*
G75*
G02*
X11847000Y-8110000I-40000J0D01*
G01*
X11847000Y-8110000D02*
G75*
G02*
X11927000Y-8110000I40000J0D01*
G01*
X12101000Y-8070000D02*
X12181000Y-8150000D01*
X12181000Y-8070000D02*
X12101000Y-8150000D01*
X12181000Y-8110000D02*
G75*
G02*
X12101000Y-8110000I-40000J0D01*
G01*
X12101000Y-8110000D02*
G75*
G02*
X12181000Y-8110000I40000J0D01*
G01*
X12105000Y-8496500D02*
X12185000Y-8576500D01*
X12185000Y-8496500D02*
X12105000Y-8576500D01*
X12185000Y-8536500D02*
G75*
G02*
X12105000Y-8536500I-40000J0D01*
G01*
X12105000Y-8536500D02*
G75*
G02*
X12185000Y-8536500I40000J0D01*
G01*
X12105000Y-9512500D02*
X12185000Y-9592500D01*
X12185000Y-9512500D02*
X12105000Y-9592500D01*
X12185000Y-9552500D02*
G75*
G02*
X12105000Y-9552500I-40000J0D01*
G01*
X12105000Y-9552500D02*
G75*
G02*
X12185000Y-9552500I40000J0D01*
G01*
X12215000Y-6105000D02*
X12295000Y-6185000D01*
X12295000Y-6105000D02*
X12215000Y-6185000D01*
X12295000Y-6145000D02*
G75*
G02*
X12215000Y-6145000I-40000J0D01*
G01*
X12215000Y-6145000D02*
G75*
G02*
X12295000Y-6145000I40000J0D01*
G01*
X12244489Y-5560000D02*
X12324489Y-5640000D01*
X12324489Y-5560000D02*
X12244489Y-5640000D01*
X12324489Y-5600000D02*
G75*
G02*
X12244489Y-5600000I-40000J0D01*
G01*
X12244489Y-5600000D02*
G75*
G02*
X12324489Y-5600000I40000J0D01*
G01*
X12245000Y-6535000D02*
X12325000Y-6615000D01*
X12325000Y-6535000D02*
X12245000Y-6615000D01*
X12325000Y-6575000D02*
G75*
G02*
X12245000Y-6575000I-40000J0D01*
G01*
X12245000Y-6575000D02*
G75*
G02*
X12325000Y-6575000I40000J0D01*
G01*
X12355000Y-8070000D02*
X12435000Y-8150000D01*
X12435000Y-8070000D02*
X12355000Y-8150000D01*
X12435000Y-8110000D02*
G75*
G02*
X12355000Y-8110000I-40000J0D01*
G01*
X12355000Y-8110000D02*
G75*
G02*
X12435000Y-8110000I40000J0D01*
G01*
X12442500Y-8497000D02*
X12522500Y-8577000D01*
X12522500Y-8497000D02*
X12442500Y-8577000D01*
X12522500Y-8537000D02*
G75*
G02*
X12442500Y-8537000I-40000J0D01*
G01*
X12442500Y-8537000D02*
G75*
G02*
X12522500Y-8537000I40000J0D01*
G01*
X12442500Y-9513000D02*
X12522500Y-9593000D01*
X12522500Y-9513000D02*
X12442500Y-9593000D01*
X12522500Y-9553000D02*
G75*
G02*
X12442500Y-9553000I-40000J0D01*
G01*
X12442500Y-9553000D02*
G75*
G02*
X12522500Y-9553000I40000J0D01*
G01*
X12444489Y-5560000D02*
X12524489Y-5640000D01*
X12524489Y-5560000D02*
X12444489Y-5640000D01*
X12524489Y-5600000D02*
G75*
G02*
X12444489Y-5600000I-40000J0D01*
G01*
X12444489Y-5600000D02*
G75*
G02*
X12524489Y-5600000I40000J0D01*
G01*
X12445000Y-6535000D02*
X12525000Y-6615000D01*
X12525000Y-6535000D02*
X12445000Y-6615000D01*
X12525000Y-6575000D02*
G75*
G02*
X12445000Y-6575000I-40000J0D01*
G01*
X12445000Y-6575000D02*
G75*
G02*
X12525000Y-6575000I40000J0D01*
G01*
X12465000Y-6105000D02*
X12545000Y-6185000D01*
X12545000Y-6105000D02*
X12465000Y-6185000D01*
X12545000Y-6145000D02*
G75*
G02*
X12465000Y-6145000I-40000J0D01*
G01*
X12465000Y-6145000D02*
G75*
G02*
X12545000Y-6145000I40000J0D01*
G01*
X12780000Y-8497000D02*
X12860000Y-8577000D01*
X12860000Y-8497000D02*
X12780000Y-8577000D01*
X12860000Y-8537000D02*
G75*
G02*
X12780000Y-8537000I-40000J0D01*
G01*
X12780000Y-8537000D02*
G75*
G02*
X12860000Y-8537000I40000J0D01*
G01*
X12780000Y-9513000D02*
X12860000Y-9593000D01*
X12860000Y-9513000D02*
X12780000Y-9593000D01*
X12860000Y-9553000D02*
G75*
G02*
X12780000Y-9553000I-40000J0D01*
G01*
X12780000Y-9553000D02*
G75*
G02*
X12860000Y-9553000I40000J0D01*
G01*
X13645000Y-9780000D02*
X13725000Y-9860000D01*
X13725000Y-9780000D02*
X13645000Y-9860000D01*
X13725000Y-9820000D02*
G75*
G02*
X13645000Y-9820000I-40000J0D01*
G01*
X13645000Y-9820000D02*
G75*
G02*
X13725000Y-9820000I40000J0D01*
G01*
X13690000Y-8467500D02*
X13770000Y-8547500D01*
X13770000Y-8467500D02*
X13690000Y-8547500D01*
X13770000Y-8507500D02*
G75*
G02*
X13690000Y-8507500I-40000J0D01*
G01*
X13690000Y-8507500D02*
G75*
G02*
X13770000Y-8507500I40000J0D01*
G01*
X13690000Y-9483500D02*
X13770000Y-9563500D01*
X13770000Y-9483500D02*
X13690000Y-9563500D01*
X13770000Y-9523500D02*
G75*
G02*
X13690000Y-9523500I-40000J0D01*
G01*
X13690000Y-9523500D02*
G75*
G02*
X13770000Y-9523500I40000J0D01*
G01*
X14015000Y-8467000D02*
X14095000Y-8547000D01*
X14095000Y-8467000D02*
X14015000Y-8547000D01*
X14095000Y-8507000D02*
G75*
G02*
X14015000Y-8507000I-40000J0D01*
G01*
X14015000Y-8507000D02*
G75*
G02*
X14095000Y-8507000I40000J0D01*
G01*
X14015000Y-9483000D02*
X14095000Y-9563000D01*
X14095000Y-9483000D02*
X14015000Y-9563000D01*
X14095000Y-9523000D02*
G75*
G02*
X14015000Y-9523000I-40000J0D01*
G01*
X14015000Y-9523000D02*
G75*
G02*
X14095000Y-9523000I40000J0D01*
G01*
X14420000Y-4740000D02*
X14500000Y-4820000D01*
X14500000Y-4740000D02*
X14420000Y-4820000D01*
X14500000Y-4780000D02*
G75*
G02*
X14420000Y-4780000I-40000J0D01*
G01*
X14420000Y-4780000D02*
G75*
G02*
X14500000Y-4780000I40000J0D01*
G01*
X14620000Y-4740000D02*
X14700000Y-4820000D01*
X14700000Y-4740000D02*
X14620000Y-4820000D01*
X14700000Y-4780000D02*
G75*
G02*
X14620000Y-4780000I-40000J0D01*
G01*
X14620000Y-4780000D02*
G75*
G02*
X14700000Y-4780000I40000J0D01*
G01*
X14661000Y-9780000D02*
X14741000Y-9860000D01*
X14741000Y-9780000D02*
X14661000Y-9860000D01*
X14741000Y-9820000D02*
G75*
G02*
X14661000Y-9820000I-40000J0D01*
G01*
X14661000Y-9820000D02*
G75*
G02*
X14741000Y-9820000I40000J0D01*
G01*
X14860000Y-8485000D02*
X14940000Y-8565000D01*
X14940000Y-8485000D02*
X14860000Y-8565000D01*
X14940000Y-8525000D02*
G75*
G02*
X14860000Y-8525000I-40000J0D01*
G01*
X14860000Y-8525000D02*
G75*
G02*
X14940000Y-8525000I40000J0D01*
G01*
X14860000Y-8760000D02*
X14940000Y-8840000D01*
X14940000Y-8760000D02*
X14860000Y-8840000D01*
X14940000Y-8800000D02*
G75*
G02*
X14860000Y-8800000I-40000J0D01*
G01*
X14860000Y-8800000D02*
G75*
G02*
X14940000Y-8800000I40000J0D01*
G01*
X14950000Y-4660000D02*
X15030000Y-4740000D01*
X15030000Y-4660000D02*
X14950000Y-4740000D01*
X15030000Y-4700000D02*
G75*
G02*
X14950000Y-4700000I-40000J0D01*
G01*
X14950000Y-4700000D02*
G75*
G02*
X15030000Y-4700000I40000J0D01*
G01*
X14950000Y-4910000D02*
X15030000Y-4990000D01*
X15030000Y-4910000D02*
X14950000Y-4990000D01*
X15030000Y-4950000D02*
G75*
G02*
X14950000Y-4950000I-40000J0D01*
G01*
X14950000Y-4950000D02*
G75*
G02*
X15030000Y-4950000I40000J0D01*
G01*
X15110000Y-8485000D02*
X15190000Y-8565000D01*
X15190000Y-8485000D02*
X15110000Y-8565000D01*
X15190000Y-8525000D02*
G75*
G02*
X15110000Y-8525000I-40000J0D01*
G01*
X15110000Y-8525000D02*
G75*
G02*
X15190000Y-8525000I40000J0D01*
G01*
X15110000Y-8760000D02*
X15190000Y-8840000D01*
X15190000Y-8760000D02*
X15110000Y-8840000D01*
X15190000Y-8800000D02*
G75*
G02*
X15110000Y-8800000I-40000J0D01*
G01*
X15110000Y-8800000D02*
G75*
G02*
X15190000Y-8800000I40000J0D01*
G01*
X15510000Y-8510000D02*
X15590000Y-8590000D01*
X15590000Y-8510000D02*
X15510000Y-8590000D01*
X15590000Y-8550000D02*
G75*
G02*
X15510000Y-8550000I-40000J0D01*
G01*
X15510000Y-8550000D02*
G75*
G02*
X15590000Y-8550000I40000J0D01*
G01*
X15510000Y-8710000D02*
X15590000Y-8790000D01*
X15590000Y-8710000D02*
X15510000Y-8790000D01*
X15590000Y-8750000D02*
G75*
G02*
X15510000Y-8750000I-40000J0D01*
G01*
X15510000Y-8750000D02*
G75*
G02*
X15590000Y-8750000I40000J0D01*
G01*
X10382500Y-5613500D02*
X10467500Y-5698500D01*
X10467500Y-5613500D02*
X10382500Y-5698500D01*
X10425000Y-5613500D02*
X10425000Y-5698500D01*
X10382500Y-5656000D02*
X10467500Y-5656000D01*
X10382500Y-5867500D02*
X10467500Y-5952500D01*
X10467500Y-5867500D02*
X10382500Y-5952500D01*
X10425000Y-5867500D02*
X10425000Y-5952500D01*
X10382500Y-5910000D02*
X10467500Y-5910000D01*
X10382500Y-6121500D02*
X10467500Y-6206500D01*
X10467500Y-6121500D02*
X10382500Y-6206500D01*
X10425000Y-6121500D02*
X10425000Y-6206500D01*
X10382500Y-6164000D02*
X10467500Y-6164000D01*
X10382500Y-6375500D02*
X10467500Y-6460500D01*
X10467500Y-6375500D02*
X10382500Y-6460500D01*
X10425000Y-6375500D02*
X10425000Y-6460500D01*
X10382500Y-6418000D02*
X10467500Y-6418000D01*
X10382500Y-6629500D02*
X10467500Y-6714500D01*
X10467500Y-6629500D02*
X10382500Y-6714500D01*
X10425000Y-6629500D02*
X10425000Y-6714500D01*
X10382500Y-6672000D02*
X10467500Y-6672000D01*
X10382500Y-6883500D02*
X10467500Y-6968500D01*
X10467500Y-6883500D02*
X10382500Y-6968500D01*
X10425000Y-6883500D02*
X10425000Y-6968500D01*
X10382500Y-6926000D02*
X10467500Y-6926000D01*
X10382500Y-7137500D02*
X10467500Y-7222500D01*
X10467500Y-7137500D02*
X10382500Y-7222500D01*
X10425000Y-7137500D02*
X10425000Y-7222500D01*
X10382500Y-7180000D02*
X10467500Y-7180000D01*
X11906500Y-5613500D02*
X11991500Y-5698500D01*
X11991500Y-5613500D02*
X11906500Y-5698500D01*
X11949000Y-5613500D02*
X11949000Y-5698500D01*
X11906500Y-5656000D02*
X11991500Y-5656000D01*
X11906500Y-5867500D02*
X11991500Y-5952500D01*
X11991500Y-5867500D02*
X11906500Y-5952500D01*
X11949000Y-5867500D02*
X11949000Y-5952500D01*
X11906500Y-5910000D02*
X11991500Y-5910000D01*
X11906500Y-6121500D02*
X11991500Y-6206500D01*
X11991500Y-6121500D02*
X11906500Y-6206500D01*
X11949000Y-6121500D02*
X11949000Y-6206500D01*
X11906500Y-6164000D02*
X11991500Y-6164000D01*
X11906500Y-6375500D02*
X11991500Y-6460500D01*
X11991500Y-6375500D02*
X11906500Y-6460500D01*
X11949000Y-6375500D02*
X11949000Y-6460500D01*
X11906500Y-6418000D02*
X11991500Y-6418000D01*
X11906500Y-6629500D02*
X11991500Y-6714500D01*
X11991500Y-6629500D02*
X11906500Y-6714500D01*
X11949000Y-6629500D02*
X11949000Y-6714500D01*
X11906500Y-6672000D02*
X11991500Y-6672000D01*
X11906500Y-6883500D02*
X11991500Y-6968500D01*
X11991500Y-6883500D02*
X11906500Y-6968500D01*
X11949000Y-6883500D02*
X11949000Y-6968500D01*
X11906500Y-6926000D02*
X11991500Y-6926000D01*
X11906500Y-7137500D02*
X11991500Y-7222500D01*
X11991500Y-7137500D02*
X11906500Y-7222500D01*
X11949000Y-7137500D02*
X11949000Y-7222500D01*
X11906500Y-7180000D02*
X11991500Y-7180000D01*
X10517025Y-10849807D02*
X10605925Y-10938707D01*
X10605925Y-10849807D02*
X10517025Y-10938707D01*
X10592906Y-10925689D02*
X10592906Y-10862826D01*
X10530044Y-10862826D01*
X10530044Y-10925689D01*
X10592906Y-10925689D01*
X10517025Y-11053007D02*
X10605925Y-11141907D01*
X10605925Y-11053007D02*
X10517025Y-11141907D01*
X10592906Y-11128889D02*
X10592906Y-11066026D01*
X10530044Y-11066026D01*
X10530044Y-11128889D01*
X10592906Y-11128889D01*
X10517025Y-11256207D02*
X10605925Y-11345107D01*
X10605925Y-11256207D02*
X10517025Y-11345107D01*
X10592906Y-11332089D02*
X10592906Y-11269226D01*
X10530044Y-11269226D01*
X10530044Y-11332089D01*
X10592906Y-11332089D01*
X10517025Y-11459407D02*
X10605925Y-11548307D01*
X10605925Y-11459407D02*
X10517025Y-11548307D01*
X10592906Y-11535289D02*
X10592906Y-11472426D01*
X10530044Y-11472426D01*
X10530044Y-11535289D01*
X10592906Y-11535289D01*
X15005000Y-9180000D02*
X15095000Y-9270000D01*
X15095000Y-9180000D02*
X15005000Y-9270000D01*
X15050000Y-9270000D02*
X15095000Y-9225000D01*
X15050000Y-9180000D01*
X15005000Y-9225000D01*
X15050000Y-9270000D01*
X15005000Y-9780000D02*
X15095000Y-9870000D01*
X15095000Y-9780000D02*
X15005000Y-9870000D01*
X15050000Y-9870000D02*
X15095000Y-9825000D01*
X15050000Y-9780000D01*
X15005000Y-9825000D01*
X15050000Y-9870000D01*
X15255000Y-9180000D02*
X15345000Y-9270000D01*
X15345000Y-9180000D02*
X15255000Y-9270000D01*
X15300000Y-9270000D02*
X15345000Y-9225000D01*
X15300000Y-9180000D01*
X15255000Y-9225000D01*
X15300000Y-9270000D01*
X15255000Y-9780000D02*
X15345000Y-9870000D01*
X15345000Y-9780000D02*
X15255000Y-9870000D01*
X15300000Y-9870000D02*
X15345000Y-9825000D01*
X15300000Y-9780000D01*
X15255000Y-9825000D01*
X15300000Y-9870000D01*
X15300000Y-4641000D02*
X15390000Y-4731000D01*
X15390000Y-4641000D02*
X15300000Y-4731000D01*
X15345000Y-4731000D02*
X15390000Y-4686000D01*
X15345000Y-4641000D01*
X15300000Y-4686000D01*
X15345000Y-4731000D01*
X15300000Y-4895000D02*
X15390000Y-4985000D01*
X15390000Y-4895000D02*
X15300000Y-4985000D01*
X15345000Y-4985000D02*
X15390000Y-4940000D01*
X15345000Y-4895000D01*
X15300000Y-4940000D01*
X15345000Y-4985000D01*
X15505000Y-9180000D02*
X15595000Y-9270000D01*
X15595000Y-9180000D02*
X15505000Y-9270000D01*
X15550000Y-9270000D02*
X15595000Y-9225000D01*
X15550000Y-9180000D01*
X15505000Y-9225000D01*
X15550000Y-9270000D01*
X15505000Y-9780000D02*
X15595000Y-9870000D01*
X15595000Y-9780000D02*
X15505000Y-9870000D01*
X15550000Y-9870000D02*
X15595000Y-9825000D01*
X15550000Y-9780000D01*
X15505000Y-9825000D01*
X15550000Y-9870000D01*
X10426500Y-8115000D02*
X10426500Y-8215000D01*
X10376500Y-8165000D02*
X10476500Y-8165000D01*
X10476500Y-8165000D02*
G75*
G02*
X10376500Y-8165000I-50000J0D01*
G01*
X10376500Y-8165000D02*
G75*
G02*
X10476500Y-8165000I50000J0D01*
G01*
X10430000Y-7750000D02*
X10430000Y-7850000D01*
X10380000Y-7800000D02*
X10480000Y-7800000D01*
X10480000Y-7800000D02*
G75*
G02*
X10380000Y-7800000I-50000J0D01*
G01*
X10380000Y-7800000D02*
G75*
G02*
X10480000Y-7800000I50000J0D01*
G01*
X10595000Y-9779000D02*
X10595000Y-9879000D01*
X10545000Y-9829000D02*
X10645000Y-9829000D01*
X10645000Y-9829000D02*
G75*
G02*
X10545000Y-9829000I-50000J0D01*
G01*
X10545000Y-9829000D02*
G75*
G02*
X10645000Y-9829000I50000J0D01*
G01*
X10595000Y-10541000D02*
X10595000Y-10641000D01*
X10545000Y-10591000D02*
X10645000Y-10591000D01*
X10645000Y-10591000D02*
G75*
G02*
X10545000Y-10591000I-50000J0D01*
G01*
X10545000Y-10591000D02*
G75*
G02*
X10645000Y-10591000I50000J0D01*
G01*
X10670000Y-8570000D02*
X10670000Y-8670000D01*
X10620000Y-8620000D02*
X10720000Y-8620000D01*
X10720000Y-8620000D02*
G75*
G02*
X10620000Y-8620000I-50000J0D01*
G01*
X10620000Y-8620000D02*
G75*
G02*
X10720000Y-8620000I50000J0D01*
G01*
X10670000Y-9330000D02*
X10670000Y-9430000D01*
X10620000Y-9380000D02*
X10720000Y-9380000D01*
X10720000Y-9380000D02*
G75*
G02*
X10620000Y-9380000I-50000J0D01*
G01*
X10620000Y-9380000D02*
G75*
G02*
X10720000Y-9380000I50000J0D01*
G01*
X10680500Y-8115000D02*
X10680500Y-8215000D01*
X10630500Y-8165000D02*
X10730500Y-8165000D01*
X10730500Y-8165000D02*
G75*
G02*
X10630500Y-8165000I-50000J0D01*
G01*
X10630500Y-8165000D02*
G75*
G02*
X10730500Y-8165000I50000J0D01*
G01*
X10684000Y-7750000D02*
X10684000Y-7850000D01*
X10634000Y-7800000D02*
X10734000Y-7800000D01*
X10734000Y-7800000D02*
G75*
G02*
X10634000Y-7800000I-50000J0D01*
G01*
X10634000Y-7800000D02*
G75*
G02*
X10734000Y-7800000I50000J0D01*
G01*
X10849000Y-9779000D02*
X10849000Y-9879000D01*
X10799000Y-9829000D02*
X10899000Y-9829000D01*
X10899000Y-9829000D02*
G75*
G02*
X10799000Y-9829000I-50000J0D01*
G01*
X10799000Y-9829000D02*
G75*
G02*
X10899000Y-9829000I50000J0D01*
G01*
X10849000Y-10541000D02*
X10849000Y-10641000D01*
X10799000Y-10591000D02*
X10899000Y-10591000D01*
X10899000Y-10591000D02*
G75*
G02*
X10799000Y-10591000I-50000J0D01*
G01*
X10799000Y-10591000D02*
G75*
G02*
X10899000Y-10591000I50000J0D01*
G01*
X10934500Y-8115000D02*
X10934500Y-8215000D01*
X10884500Y-8165000D02*
X10984500Y-8165000D01*
X10984500Y-8165000D02*
G75*
G02*
X10884500Y-8165000I-50000J0D01*
G01*
X10884500Y-8165000D02*
G75*
G02*
X10984500Y-8165000I50000J0D01*
G01*
X11103000Y-9779000D02*
X11103000Y-9879000D01*
X11053000Y-9829000D02*
X11153000Y-9829000D01*
X11153000Y-9829000D02*
G75*
G02*
X11053000Y-9829000I-50000J0D01*
G01*
X11053000Y-9829000D02*
G75*
G02*
X11153000Y-9829000I50000J0D01*
G01*
X11103000Y-10541000D02*
X11103000Y-10641000D01*
X11053000Y-10591000D02*
X11153000Y-10591000D01*
X11153000Y-10591000D02*
G75*
G02*
X11053000Y-10591000I-50000J0D01*
G01*
X11053000Y-10591000D02*
G75*
G02*
X11153000Y-10591000I50000J0D01*
G01*
X11357000Y-9779000D02*
X11357000Y-9879000D01*
X11307000Y-9829000D02*
X11407000Y-9829000D01*
X11407000Y-9829000D02*
G75*
G02*
X11307000Y-9829000I-50000J0D01*
G01*
X11307000Y-9829000D02*
G75*
G02*
X11407000Y-9829000I50000J0D01*
G01*
X11357000Y-10541000D02*
X11357000Y-10641000D01*
X11307000Y-10591000D02*
X11407000Y-10591000D01*
X11407000Y-10591000D02*
G75*
G02*
X11307000Y-10591000I-50000J0D01*
G01*
X11307000Y-10591000D02*
G75*
G02*
X11407000Y-10591000I50000J0D01*
G01*
X14025000Y-10275000D02*
X14025000Y-10375000D01*
X13975000Y-10325000D02*
X14075000Y-10325000D01*
X14075000Y-10325000D02*
G75*
G02*
X13975000Y-10325000I-50000J0D01*
G01*
X13975000Y-10325000D02*
G75*
G02*
X14075000Y-10325000I50000J0D01*
G01*
X14025000Y-10775000D02*
X14025000Y-10875000D01*
X13975000Y-10825000D02*
X14075000Y-10825000D01*
X14075000Y-10825000D02*
G75*
G02*
X13975000Y-10825000I-50000J0D01*
G01*
X13975000Y-10825000D02*
G75*
G02*
X14075000Y-10825000I50000J0D01*
G01*
X14025000Y-11536768D02*
X14025000Y-11636768D01*
X13975000Y-11586768D02*
X14075000Y-11586768D01*
X14075000Y-11586768D02*
G75*
G02*
X13975000Y-11586768I-50000J0D01*
G01*
X13975000Y-11586768D02*
G75*
G02*
X14075000Y-11586768I50000J0D01*
G01*
X14025000Y-12036768D02*
X14025000Y-12136768D01*
X13975000Y-12086768D02*
X14075000Y-12086768D01*
X14075000Y-12086768D02*
G75*
G02*
X13975000Y-12086768I-50000J0D01*
G01*
X13975000Y-12086768D02*
G75*
G02*
X14075000Y-12086768I50000J0D01*
G01*
D14*
X12803487Y-4913488D02*
X12803487Y-4826513D01*
X12716512Y-4826513D01*
X12716512Y-4913488D01*
X12803487Y-4913488D01*
X12821500Y-4870000D02*
G75*
G02*
X12698500Y-4870000I-61500J0D01*
G01*
X12698500Y-4870000D02*
G75*
G02*
X12821500Y-4870000I61500J0D01*
G01*
X13057487Y-4913488D02*
X13057487Y-4826513D01*
X12970512Y-4826513D01*
X12970512Y-4913488D01*
X13057487Y-4913488D01*
X13075500Y-4870000D02*
G75*
G02*
X12952500Y-4870000I-61500J0D01*
G01*
X12952500Y-4870000D02*
G75*
G02*
X13075500Y-4870000I61500J0D01*
G01*
X13311487Y-4913488D02*
X13311487Y-4826513D01*
X13224512Y-4826513D01*
X13224512Y-4913488D01*
X13311487Y-4913488D01*
X13329500Y-4870000D02*
G75*
G02*
X13206500Y-4870000I-61500J0D01*
G01*
X13206500Y-4870000D02*
G75*
G02*
X13329500Y-4870000I61500J0D01*
G01*
X13413487Y-8743488D02*
X13413487Y-8656513D01*
X13326512Y-8656513D01*
X13326512Y-8743488D01*
X13413487Y-8743488D01*
X13431500Y-8700000D02*
G75*
G02*
X13308500Y-8700000I-61500J0D01*
G01*
X13308500Y-8700000D02*
G75*
G02*
X13431500Y-8700000I61500J0D01*
G01*
X13413487Y-8997488D02*
X13413487Y-8910513D01*
X13326512Y-8910513D01*
X13326512Y-8997488D01*
X13413487Y-8997488D01*
X13431500Y-8954000D02*
G75*
G02*
X13308500Y-8954000I-61500J0D01*
G01*
X13308500Y-8954000D02*
G75*
G02*
X13431500Y-8954000I61500J0D01*
G01*
X13413487Y-9251488D02*
X13413487Y-9164513D01*
X13326512Y-9164513D01*
X13326512Y-9251488D01*
X13413487Y-9251488D01*
X13431500Y-9208000D02*
G75*
G02*
X13308500Y-9208000I-61500J0D01*
G01*
X13308500Y-9208000D02*
G75*
G02*
X13431500Y-9208000I61500J0D01*
G01*
X14637487Y-8743488D02*
X14637487Y-8656513D01*
X14550512Y-8656513D01*
X14550512Y-8743488D01*
X14637487Y-8743488D01*
X14655500Y-8700000D02*
G75*
G02*
X14532500Y-8700000I-61500J0D01*
G01*
X14532500Y-8700000D02*
G75*
G02*
X14655500Y-8700000I61500J0D01*
G01*
X14637487Y-8997488D02*
X14637487Y-8910513D01*
X14550512Y-8910513D01*
X14550512Y-8997488D01*
X14637487Y-8997488D01*
X14655500Y-8954000D02*
G75*
G02*
X14532500Y-8954000I-61500J0D01*
G01*
X14532500Y-8954000D02*
G75*
G02*
X14655500Y-8954000I61500J0D01*
G01*
X14637487Y-9251488D02*
X14637487Y-9164513D01*
X14550512Y-9164513D01*
X14550512Y-9251488D01*
X14637487Y-9251488D01*
X14655500Y-9208000D02*
G75*
G02*
X14532500Y-9208000I-61500J0D01*
G01*
X14532500Y-9208000D02*
G75*
G02*
X14655500Y-9208000I61500J0D01*
G01*
D11*
X10250777Y-12791484D02*
X10250777Y-12591484D01*
X10250777Y-12591484D02*
X10298396Y-12591484D01*
X10298396Y-12591484D02*
X10326967Y-12601008D01*
X10326967Y-12601008D02*
X10346015Y-12620055D01*
X10346015Y-12620055D02*
X10355539Y-12639103D01*
X10355539Y-12639103D02*
X10365063Y-12677198D01*
X10365063Y-12677198D02*
X10365063Y-12705769D01*
X10365063Y-12705769D02*
X10355539Y-12743865D01*
X10355539Y-12743865D02*
X10346015Y-12762912D01*
X10346015Y-12762912D02*
X10326967Y-12781960D01*
X10326967Y-12781960D02*
X10298396Y-12791484D01*
X10298396Y-12791484D02*
X10250777Y-12791484D01*
X10450777Y-12791484D02*
X10450777Y-12658150D01*
X10450777Y-12696246D02*
X10460301Y-12677198D01*
X10460301Y-12677198D02*
X10469824Y-12667674D01*
X10469824Y-12667674D02*
X10488872Y-12658150D01*
X10488872Y-12658150D02*
X10507920Y-12658150D01*
X10574586Y-12791484D02*
X10574586Y-12658150D01*
X10574586Y-12591484D02*
X10565063Y-12601008D01*
X10565063Y-12601008D02*
X10574586Y-12610531D01*
X10574586Y-12610531D02*
X10584110Y-12601008D01*
X10584110Y-12601008D02*
X10574586Y-12591484D01*
X10574586Y-12591484D02*
X10574586Y-12610531D01*
X10698396Y-12791484D02*
X10679348Y-12781960D01*
X10679348Y-12781960D02*
X10669824Y-12762912D01*
X10669824Y-12762912D02*
X10669824Y-12591484D01*
X10803158Y-12791484D02*
X10784110Y-12781960D01*
X10784110Y-12781960D02*
X10774586Y-12762912D01*
X10774586Y-12762912D02*
X10774586Y-12591484D01*
X11031729Y-12791484D02*
X11031729Y-12591484D01*
X11031729Y-12591484D02*
X11098396Y-12734341D01*
X11098396Y-12734341D02*
X11165063Y-12591484D01*
X11165063Y-12591484D02*
X11165063Y-12791484D01*
X11346015Y-12791484D02*
X11346015Y-12686722D01*
X11346015Y-12686722D02*
X11336491Y-12667674D01*
X11336491Y-12667674D02*
X11317443Y-12658150D01*
X11317443Y-12658150D02*
X11279348Y-12658150D01*
X11279348Y-12658150D02*
X11260301Y-12667674D01*
X11346015Y-12781960D02*
X11326967Y-12791484D01*
X11326967Y-12791484D02*
X11279348Y-12791484D01*
X11279348Y-12791484D02*
X11260301Y-12781960D01*
X11260301Y-12781960D02*
X11250777Y-12762912D01*
X11250777Y-12762912D02*
X11250777Y-12743865D01*
X11250777Y-12743865D02*
X11260301Y-12724817D01*
X11260301Y-12724817D02*
X11279348Y-12715293D01*
X11279348Y-12715293D02*
X11326967Y-12715293D01*
X11326967Y-12715293D02*
X11346015Y-12705769D01*
X11441253Y-12658150D02*
X11441253Y-12858150D01*
X11441253Y-12667674D02*
X11460301Y-12658150D01*
X11460301Y-12658150D02*
X11498396Y-12658150D01*
X11498396Y-12658150D02*
X11517443Y-12667674D01*
X11517443Y-12667674D02*
X11526967Y-12677198D01*
X11526967Y-12677198D02*
X11536491Y-12696246D01*
X11536491Y-12696246D02*
X11536491Y-12753388D01*
X11536491Y-12753388D02*
X11526967Y-12772436D01*
X11526967Y-12772436D02*
X11517443Y-12781960D01*
X11517443Y-12781960D02*
X11498396Y-12791484D01*
X11498396Y-12791484D02*
X11460301Y-12791484D01*
X11460301Y-12791484D02*
X11441253Y-12781960D01*
X11622205Y-12772436D02*
X11631729Y-12781960D01*
X11631729Y-12781960D02*
X11622205Y-12791484D01*
X11622205Y-12791484D02*
X11612682Y-12781960D01*
X11612682Y-12781960D02*
X11622205Y-12772436D01*
X11622205Y-12772436D02*
X11622205Y-12791484D01*
X11622205Y-12667674D02*
X11631729Y-12677198D01*
X11631729Y-12677198D02*
X11622205Y-12686722D01*
X11622205Y-12686722D02*
X11612682Y-12677198D01*
X11612682Y-12677198D02*
X11622205Y-12667674D01*
X11622205Y-12667674D02*
X11622205Y-12686722D01*
D13*
X9960000Y-13105000D02*
X9990000Y-13135000D01*
X9990000Y-13105000D02*
X9960000Y-13135000D01*
D11*
X10288872Y-13011484D02*
X10307920Y-13011484D01*
X10307920Y-13011484D02*
X10326967Y-13021008D01*
X10326967Y-13021008D02*
X10336491Y-13030531D01*
X10336491Y-13030531D02*
X10346015Y-13049579D01*
X10346015Y-13049579D02*
X10355539Y-13087674D01*
X10355539Y-13087674D02*
X10355539Y-13135293D01*
X10355539Y-13135293D02*
X10346015Y-13173388D01*
X10346015Y-13173388D02*
X10336491Y-13192436D01*
X10336491Y-13192436D02*
X10326967Y-13201960D01*
X10326967Y-13201960D02*
X10307920Y-13211484D01*
X10307920Y-13211484D02*
X10288872Y-13211484D01*
X10288872Y-13211484D02*
X10269824Y-13201960D01*
X10269824Y-13201960D02*
X10260301Y-13192436D01*
X10260301Y-13192436D02*
X10250777Y-13173388D01*
X10250777Y-13173388D02*
X10241253Y-13135293D01*
X10241253Y-13135293D02*
X10241253Y-13087674D01*
X10241253Y-13087674D02*
X10250777Y-13049579D01*
X10250777Y-13049579D02*
X10260301Y-13030531D01*
X10260301Y-13030531D02*
X10269824Y-13021008D01*
X10269824Y-13021008D02*
X10288872Y-13011484D01*
X10441253Y-13192436D02*
X10450777Y-13201960D01*
X10450777Y-13201960D02*
X10441253Y-13211484D01*
X10441253Y-13211484D02*
X10431729Y-13201960D01*
X10431729Y-13201960D02*
X10441253Y-13192436D01*
X10441253Y-13192436D02*
X10441253Y-13211484D01*
X10517444Y-13011484D02*
X10641253Y-13011484D01*
X10641253Y-13011484D02*
X10574586Y-13087674D01*
X10574586Y-13087674D02*
X10603158Y-13087674D01*
X10603158Y-13087674D02*
X10622205Y-13097198D01*
X10622205Y-13097198D02*
X10631729Y-13106722D01*
X10631729Y-13106722D02*
X10641253Y-13125769D01*
X10641253Y-13125769D02*
X10641253Y-13173388D01*
X10641253Y-13173388D02*
X10631729Y-13192436D01*
X10631729Y-13192436D02*
X10622205Y-13201960D01*
X10622205Y-13201960D02*
X10603158Y-13211484D01*
X10603158Y-13211484D02*
X10546015Y-13211484D01*
X10546015Y-13211484D02*
X10526967Y-13201960D01*
X10526967Y-13201960D02*
X10517444Y-13192436D01*
X10765063Y-13011484D02*
X10784110Y-13011484D01*
X10784110Y-13011484D02*
X10803158Y-13021008D01*
X10803158Y-13021008D02*
X10812682Y-13030531D01*
X10812682Y-13030531D02*
X10822205Y-13049579D01*
X10822205Y-13049579D02*
X10831729Y-13087674D01*
X10831729Y-13087674D02*
X10831729Y-13135293D01*
X10831729Y-13135293D02*
X10822205Y-13173388D01*
X10822205Y-13173388D02*
X10812682Y-13192436D01*
X10812682Y-13192436D02*
X10803158Y-13201960D01*
X10803158Y-13201960D02*
X10784110Y-13211484D01*
X10784110Y-13211484D02*
X10765063Y-13211484D01*
X10765063Y-13211484D02*
X10746015Y-13201960D01*
X10746015Y-13201960D02*
X10736491Y-13192436D01*
X10736491Y-13192436D02*
X10726967Y-13173388D01*
X10726967Y-13173388D02*
X10717444Y-13135293D01*
X10717444Y-13135293D02*
X10717444Y-13087674D01*
X10717444Y-13087674D02*
X10726967Y-13049579D01*
X10726967Y-13049579D02*
X10736491Y-13030531D01*
X10736491Y-13030531D02*
X10746015Y-13021008D01*
X10746015Y-13021008D02*
X10765063Y-13011484D01*
X10955539Y-13011484D02*
X10974586Y-13011484D01*
X10974586Y-13011484D02*
X10993634Y-13021008D01*
X10993634Y-13021008D02*
X11003158Y-13030531D01*
X11003158Y-13030531D02*
X11012682Y-13049579D01*
X11012682Y-13049579D02*
X11022205Y-13087674D01*
X11022205Y-13087674D02*
X11022205Y-13135293D01*
X11022205Y-13135293D02*
X11012682Y-13173388D01*
X11012682Y-13173388D02*
X11003158Y-13192436D01*
X11003158Y-13192436D02*
X10993634Y-13201960D01*
X10993634Y-13201960D02*
X10974586Y-13211484D01*
X10974586Y-13211484D02*
X10955539Y-13211484D01*
X10955539Y-13211484D02*
X10936491Y-13201960D01*
X10936491Y-13201960D02*
X10926967Y-13192436D01*
X10926967Y-13192436D02*
X10917444Y-13173388D01*
X10917444Y-13173388D02*
X10907920Y-13135293D01*
X10907920Y-13135293D02*
X10907920Y-13087674D01*
X10907920Y-13087674D02*
X10917444Y-13049579D01*
X10917444Y-13049579D02*
X10926967Y-13030531D01*
X10926967Y-13030531D02*
X10936491Y-13021008D01*
X10936491Y-13021008D02*
X10955539Y-13011484D01*
X11107920Y-13211484D02*
X11107920Y-13078150D01*
X11107920Y-13097198D02*
X11117444Y-13087674D01*
X11117444Y-13087674D02*
X11136491Y-13078150D01*
X11136491Y-13078150D02*
X11165063Y-13078150D01*
X11165063Y-13078150D02*
X11184110Y-13087674D01*
X11184110Y-13087674D02*
X11193634Y-13106722D01*
X11193634Y-13106722D02*
X11193634Y-13211484D01*
X11193634Y-13106722D02*
X11203158Y-13087674D01*
X11203158Y-13087674D02*
X11222205Y-13078150D01*
X11222205Y-13078150D02*
X11250777Y-13078150D01*
X11250777Y-13078150D02*
X11269824Y-13087674D01*
X11269824Y-13087674D02*
X11279348Y-13106722D01*
X11279348Y-13106722D02*
X11279348Y-13211484D01*
X11374586Y-13211484D02*
X11374586Y-13078150D01*
X11374586Y-13097198D02*
X11384110Y-13087674D01*
X11384110Y-13087674D02*
X11403158Y-13078150D01*
X11403158Y-13078150D02*
X11431729Y-13078150D01*
X11431729Y-13078150D02*
X11450777Y-13087674D01*
X11450777Y-13087674D02*
X11460301Y-13106722D01*
X11460301Y-13106722D02*
X11460301Y-13211484D01*
X11460301Y-13106722D02*
X11469824Y-13087674D01*
X11469824Y-13087674D02*
X11488872Y-13078150D01*
X11488872Y-13078150D02*
X11517443Y-13078150D01*
X11517443Y-13078150D02*
X11536491Y-13087674D01*
X11536491Y-13087674D02*
X11546015Y-13106722D01*
X11546015Y-13106722D02*
X11546015Y-13211484D01*
X11936491Y-13001960D02*
X11765063Y-13259103D01*
X12193634Y-13011484D02*
X12212682Y-13011484D01*
X12212682Y-13011484D02*
X12231729Y-13021008D01*
X12231729Y-13021008D02*
X12241253Y-13030531D01*
X12241253Y-13030531D02*
X12250777Y-13049579D01*
X12250777Y-13049579D02*
X12260301Y-13087674D01*
X12260301Y-13087674D02*
X12260301Y-13135293D01*
X12260301Y-13135293D02*
X12250777Y-13173388D01*
X12250777Y-13173388D02*
X12241253Y-13192436D01*
X12241253Y-13192436D02*
X12231729Y-13201960D01*
X12231729Y-13201960D02*
X12212682Y-13211484D01*
X12212682Y-13211484D02*
X12193634Y-13211484D01*
X12193634Y-13211484D02*
X12174586Y-13201960D01*
X12174586Y-13201960D02*
X12165063Y-13192436D01*
X12165063Y-13192436D02*
X12155539Y-13173388D01*
X12155539Y-13173388D02*
X12146015Y-13135293D01*
X12146015Y-13135293D02*
X12146015Y-13087674D01*
X12146015Y-13087674D02*
X12155539Y-13049579D01*
X12155539Y-13049579D02*
X12165063Y-13030531D01*
X12165063Y-13030531D02*
X12174586Y-13021008D01*
X12174586Y-13021008D02*
X12193634Y-13011484D01*
X12346015Y-13192436D02*
X12355539Y-13201960D01*
X12355539Y-13201960D02*
X12346015Y-13211484D01*
X12346015Y-13211484D02*
X12336491Y-13201960D01*
X12336491Y-13201960D02*
X12346015Y-13192436D01*
X12346015Y-13192436D02*
X12346015Y-13211484D01*
X12479348Y-13011484D02*
X12498396Y-13011484D01*
X12498396Y-13011484D02*
X12517444Y-13021008D01*
X12517444Y-13021008D02*
X12526967Y-13030531D01*
X12526967Y-13030531D02*
X12536491Y-13049579D01*
X12536491Y-13049579D02*
X12546015Y-13087674D01*
X12546015Y-13087674D02*
X12546015Y-13135293D01*
X12546015Y-13135293D02*
X12536491Y-13173388D01*
X12536491Y-13173388D02*
X12526967Y-13192436D01*
X12526967Y-13192436D02*
X12517444Y-13201960D01*
X12517444Y-13201960D02*
X12498396Y-13211484D01*
X12498396Y-13211484D02*
X12479348Y-13211484D01*
X12479348Y-13211484D02*
X12460301Y-13201960D01*
X12460301Y-13201960D02*
X12450777Y-13192436D01*
X12450777Y-13192436D02*
X12441253Y-13173388D01*
X12441253Y-13173388D02*
X12431729Y-13135293D01*
X12431729Y-13135293D02*
X12431729Y-13087674D01*
X12431729Y-13087674D02*
X12441253Y-13049579D01*
X12441253Y-13049579D02*
X12450777Y-13030531D01*
X12450777Y-13030531D02*
X12460301Y-13021008D01*
X12460301Y-13021008D02*
X12479348Y-13011484D01*
X12736491Y-13211484D02*
X12622206Y-13211484D01*
X12679348Y-13211484D02*
X12679348Y-13011484D01*
X12679348Y-13011484D02*
X12660301Y-13040055D01*
X12660301Y-13040055D02*
X12641253Y-13059103D01*
X12641253Y-13059103D02*
X12622206Y-13068627D01*
X12926967Y-13211484D02*
X12812682Y-13211484D01*
X12869825Y-13211484D02*
X12869825Y-13011484D01*
X12869825Y-13011484D02*
X12850777Y-13040055D01*
X12850777Y-13040055D02*
X12831729Y-13059103D01*
X12831729Y-13059103D02*
X12812682Y-13068627D01*
X13041253Y-13097198D02*
X13022206Y-13087674D01*
X13022206Y-13087674D02*
X13012682Y-13078150D01*
X13012682Y-13078150D02*
X13003158Y-13059103D01*
X13003158Y-13059103D02*
X13003158Y-13049579D01*
X13003158Y-13049579D02*
X13012682Y-13030531D01*
X13012682Y-13030531D02*
X13022206Y-13021008D01*
X13022206Y-13021008D02*
X13041253Y-13011484D01*
X13041253Y-13011484D02*
X13079348Y-13011484D01*
X13079348Y-13011484D02*
X13098396Y-13021008D01*
X13098396Y-13021008D02*
X13107920Y-13030531D01*
X13107920Y-13030531D02*
X13117444Y-13049579D01*
X13117444Y-13049579D02*
X13117444Y-13059103D01*
X13117444Y-13059103D02*
X13107920Y-13078150D01*
X13107920Y-13078150D02*
X13098396Y-13087674D01*
X13098396Y-13087674D02*
X13079348Y-13097198D01*
X13079348Y-13097198D02*
X13041253Y-13097198D01*
X13041253Y-13097198D02*
X13022206Y-13106722D01*
X13022206Y-13106722D02*
X13012682Y-13116246D01*
X13012682Y-13116246D02*
X13003158Y-13135293D01*
X13003158Y-13135293D02*
X13003158Y-13173388D01*
X13003158Y-13173388D02*
X13012682Y-13192436D01*
X13012682Y-13192436D02*
X13022206Y-13201960D01*
X13022206Y-13201960D02*
X13041253Y-13211484D01*
X13041253Y-13211484D02*
X13079348Y-13211484D01*
X13079348Y-13211484D02*
X13098396Y-13201960D01*
X13098396Y-13201960D02*
X13107920Y-13192436D01*
X13107920Y-13192436D02*
X13117444Y-13173388D01*
X13117444Y-13173388D02*
X13117444Y-13135293D01*
X13117444Y-13135293D02*
X13107920Y-13116246D01*
X13107920Y-13116246D02*
X13098396Y-13106722D01*
X13098396Y-13106722D02*
X13079348Y-13097198D01*
X13193634Y-13011484D02*
X13193634Y-13049579D01*
X13269825Y-13011484D02*
X13269825Y-13049579D01*
X13565063Y-13287674D02*
X13555539Y-13278150D01*
X13555539Y-13278150D02*
X13536491Y-13249579D01*
X13536491Y-13249579D02*
X13526968Y-13230531D01*
X13526968Y-13230531D02*
X13517444Y-13201960D01*
X13517444Y-13201960D02*
X13507920Y-13154341D01*
X13507920Y-13154341D02*
X13507920Y-13116246D01*
X13507920Y-13116246D02*
X13517444Y-13068627D01*
X13517444Y-13068627D02*
X13526968Y-13040055D01*
X13526968Y-13040055D02*
X13536491Y-13021008D01*
X13536491Y-13021008D02*
X13555539Y-12992436D01*
X13555539Y-12992436D02*
X13565063Y-12982912D01*
X13669825Y-13097198D02*
X13650777Y-13087674D01*
X13650777Y-13087674D02*
X13641253Y-13078150D01*
X13641253Y-13078150D02*
X13631729Y-13059103D01*
X13631729Y-13059103D02*
X13631729Y-13049579D01*
X13631729Y-13049579D02*
X13641253Y-13030531D01*
X13641253Y-13030531D02*
X13650777Y-13021008D01*
X13650777Y-13021008D02*
X13669825Y-13011484D01*
X13669825Y-13011484D02*
X13707920Y-13011484D01*
X13707920Y-13011484D02*
X13726968Y-13021008D01*
X13726968Y-13021008D02*
X13736491Y-13030531D01*
X13736491Y-13030531D02*
X13746015Y-13049579D01*
X13746015Y-13049579D02*
X13746015Y-13059103D01*
X13746015Y-13059103D02*
X13736491Y-13078150D01*
X13736491Y-13078150D02*
X13726968Y-13087674D01*
X13726968Y-13087674D02*
X13707920Y-13097198D01*
X13707920Y-13097198D02*
X13669825Y-13097198D01*
X13669825Y-13097198D02*
X13650777Y-13106722D01*
X13650777Y-13106722D02*
X13641253Y-13116246D01*
X13641253Y-13116246D02*
X13631729Y-13135293D01*
X13631729Y-13135293D02*
X13631729Y-13173388D01*
X13631729Y-13173388D02*
X13641253Y-13192436D01*
X13641253Y-13192436D02*
X13650777Y-13201960D01*
X13650777Y-13201960D02*
X13669825Y-13211484D01*
X13669825Y-13211484D02*
X13707920Y-13211484D01*
X13707920Y-13211484D02*
X13726968Y-13201960D01*
X13726968Y-13201960D02*
X13736491Y-13192436D01*
X13736491Y-13192436D02*
X13746015Y-13173388D01*
X13746015Y-13173388D02*
X13746015Y-13135293D01*
X13746015Y-13135293D02*
X13736491Y-13116246D01*
X13736491Y-13116246D02*
X13726968Y-13106722D01*
X13726968Y-13106722D02*
X13707920Y-13097198D01*
X13984110Y-13211484D02*
X13984110Y-13011484D01*
X14069825Y-13211484D02*
X14069825Y-13106722D01*
X14069825Y-13106722D02*
X14060301Y-13087674D01*
X14060301Y-13087674D02*
X14041253Y-13078150D01*
X14041253Y-13078150D02*
X14012682Y-13078150D01*
X14012682Y-13078150D02*
X13993634Y-13087674D01*
X13993634Y-13087674D02*
X13984110Y-13097198D01*
X14193634Y-13211484D02*
X14174587Y-13201960D01*
X14174587Y-13201960D02*
X14165063Y-13192436D01*
X14165063Y-13192436D02*
X14155539Y-13173388D01*
X14155539Y-13173388D02*
X14155539Y-13116246D01*
X14155539Y-13116246D02*
X14165063Y-13097198D01*
X14165063Y-13097198D02*
X14174587Y-13087674D01*
X14174587Y-13087674D02*
X14193634Y-13078150D01*
X14193634Y-13078150D02*
X14222206Y-13078150D01*
X14222206Y-13078150D02*
X14241253Y-13087674D01*
X14241253Y-13087674D02*
X14250777Y-13097198D01*
X14250777Y-13097198D02*
X14260301Y-13116246D01*
X14260301Y-13116246D02*
X14260301Y-13173388D01*
X14260301Y-13173388D02*
X14250777Y-13192436D01*
X14250777Y-13192436D02*
X14241253Y-13201960D01*
X14241253Y-13201960D02*
X14222206Y-13211484D01*
X14222206Y-13211484D02*
X14193634Y-13211484D01*
X14374587Y-13211484D02*
X14355539Y-13201960D01*
X14355539Y-13201960D02*
X14346015Y-13182912D01*
X14346015Y-13182912D02*
X14346015Y-13011484D01*
X14526968Y-13201960D02*
X14507920Y-13211484D01*
X14507920Y-13211484D02*
X14469825Y-13211484D01*
X14469825Y-13211484D02*
X14450777Y-13201960D01*
X14450777Y-13201960D02*
X14441253Y-13182912D01*
X14441253Y-13182912D02*
X14441253Y-13106722D01*
X14441253Y-13106722D02*
X14450777Y-13087674D01*
X14450777Y-13087674D02*
X14469825Y-13078150D01*
X14469825Y-13078150D02*
X14507920Y-13078150D01*
X14507920Y-13078150D02*
X14526968Y-13087674D01*
X14526968Y-13087674D02*
X14536491Y-13106722D01*
X14536491Y-13106722D02*
X14536491Y-13125769D01*
X14536491Y-13125769D02*
X14441253Y-13144817D01*
X14612682Y-13201960D02*
X14631730Y-13211484D01*
X14631730Y-13211484D02*
X14669825Y-13211484D01*
X14669825Y-13211484D02*
X14688872Y-13201960D01*
X14688872Y-13201960D02*
X14698396Y-13182912D01*
X14698396Y-13182912D02*
X14698396Y-13173388D01*
X14698396Y-13173388D02*
X14688872Y-13154341D01*
X14688872Y-13154341D02*
X14669825Y-13144817D01*
X14669825Y-13144817D02*
X14641253Y-13144817D01*
X14641253Y-13144817D02*
X14622206Y-13135293D01*
X14622206Y-13135293D02*
X14612682Y-13116246D01*
X14612682Y-13116246D02*
X14612682Y-13106722D01*
X14612682Y-13106722D02*
X14622206Y-13087674D01*
X14622206Y-13087674D02*
X14641253Y-13078150D01*
X14641253Y-13078150D02*
X14669825Y-13078150D01*
X14669825Y-13078150D02*
X14688872Y-13087674D01*
X14765063Y-13287674D02*
X14774587Y-13278150D01*
X14774587Y-13278150D02*
X14793634Y-13249579D01*
X14793634Y-13249579D02*
X14803158Y-13230531D01*
X14803158Y-13230531D02*
X14812682Y-13201960D01*
X14812682Y-13201960D02*
X14822206Y-13154341D01*
X14822206Y-13154341D02*
X14822206Y-13116246D01*
X14822206Y-13116246D02*
X14812682Y-13068627D01*
X14812682Y-13068627D02*
X14803158Y-13040055D01*
X14803158Y-13040055D02*
X14793634Y-13021008D01*
X14793634Y-13021008D02*
X14774587Y-12992436D01*
X14774587Y-12992436D02*
X14765063Y-12982912D01*
D13*
X9990000Y-13384000D02*
G75*
G02*
X9935000Y-13384000I-27500J0D01*
G01*
X9935000Y-13384000D02*
G75*
G02*
X9990000Y-13384000I27500J0D01*
G01*
D11*
X10288872Y-13275484D02*
X10307920Y-13275484D01*
X10307920Y-13275484D02*
X10326967Y-13285008D01*
X10326967Y-13285008D02*
X10336491Y-13294531D01*
X10336491Y-13294531D02*
X10346015Y-13313579D01*
X10346015Y-13313579D02*
X10355539Y-13351674D01*
X10355539Y-13351674D02*
X10355539Y-13399293D01*
X10355539Y-13399293D02*
X10346015Y-13437388D01*
X10346015Y-13437388D02*
X10336491Y-13456436D01*
X10336491Y-13456436D02*
X10326967Y-13465960D01*
X10326967Y-13465960D02*
X10307920Y-13475484D01*
X10307920Y-13475484D02*
X10288872Y-13475484D01*
X10288872Y-13475484D02*
X10269824Y-13465960D01*
X10269824Y-13465960D02*
X10260301Y-13456436D01*
X10260301Y-13456436D02*
X10250777Y-13437388D01*
X10250777Y-13437388D02*
X10241253Y-13399293D01*
X10241253Y-13399293D02*
X10241253Y-13351674D01*
X10241253Y-13351674D02*
X10250777Y-13313579D01*
X10250777Y-13313579D02*
X10260301Y-13294531D01*
X10260301Y-13294531D02*
X10269824Y-13285008D01*
X10269824Y-13285008D02*
X10288872Y-13275484D01*
X10441253Y-13456436D02*
X10450777Y-13465960D01*
X10450777Y-13465960D02*
X10441253Y-13475484D01*
X10441253Y-13475484D02*
X10431729Y-13465960D01*
X10431729Y-13465960D02*
X10441253Y-13456436D01*
X10441253Y-13456436D02*
X10441253Y-13475484D01*
X10631729Y-13275484D02*
X10536491Y-13275484D01*
X10536491Y-13275484D02*
X10526967Y-13370722D01*
X10526967Y-13370722D02*
X10536491Y-13361198D01*
X10536491Y-13361198D02*
X10555539Y-13351674D01*
X10555539Y-13351674D02*
X10603158Y-13351674D01*
X10603158Y-13351674D02*
X10622205Y-13361198D01*
X10622205Y-13361198D02*
X10631729Y-13370722D01*
X10631729Y-13370722D02*
X10641253Y-13389769D01*
X10641253Y-13389769D02*
X10641253Y-13437388D01*
X10641253Y-13437388D02*
X10631729Y-13456436D01*
X10631729Y-13456436D02*
X10622205Y-13465960D01*
X10622205Y-13465960D02*
X10603158Y-13475484D01*
X10603158Y-13475484D02*
X10555539Y-13475484D01*
X10555539Y-13475484D02*
X10536491Y-13465960D01*
X10536491Y-13465960D02*
X10526967Y-13456436D01*
X10822205Y-13275484D02*
X10726967Y-13275484D01*
X10726967Y-13275484D02*
X10717444Y-13370722D01*
X10717444Y-13370722D02*
X10726967Y-13361198D01*
X10726967Y-13361198D02*
X10746015Y-13351674D01*
X10746015Y-13351674D02*
X10793634Y-13351674D01*
X10793634Y-13351674D02*
X10812682Y-13361198D01*
X10812682Y-13361198D02*
X10822205Y-13370722D01*
X10822205Y-13370722D02*
X10831729Y-13389769D01*
X10831729Y-13389769D02*
X10831729Y-13437388D01*
X10831729Y-13437388D02*
X10822205Y-13456436D01*
X10822205Y-13456436D02*
X10812682Y-13465960D01*
X10812682Y-13465960D02*
X10793634Y-13475484D01*
X10793634Y-13475484D02*
X10746015Y-13475484D01*
X10746015Y-13475484D02*
X10726967Y-13465960D01*
X10726967Y-13465960D02*
X10717444Y-13456436D01*
X10955539Y-13275484D02*
X10974586Y-13275484D01*
X10974586Y-13275484D02*
X10993634Y-13285008D01*
X10993634Y-13285008D02*
X11003158Y-13294531D01*
X11003158Y-13294531D02*
X11012682Y-13313579D01*
X11012682Y-13313579D02*
X11022205Y-13351674D01*
X11022205Y-13351674D02*
X11022205Y-13399293D01*
X11022205Y-13399293D02*
X11012682Y-13437388D01*
X11012682Y-13437388D02*
X11003158Y-13456436D01*
X11003158Y-13456436D02*
X10993634Y-13465960D01*
X10993634Y-13465960D02*
X10974586Y-13475484D01*
X10974586Y-13475484D02*
X10955539Y-13475484D01*
X10955539Y-13475484D02*
X10936491Y-13465960D01*
X10936491Y-13465960D02*
X10926967Y-13456436D01*
X10926967Y-13456436D02*
X10917444Y-13437388D01*
X10917444Y-13437388D02*
X10907920Y-13399293D01*
X10907920Y-13399293D02*
X10907920Y-13351674D01*
X10907920Y-13351674D02*
X10917444Y-13313579D01*
X10917444Y-13313579D02*
X10926967Y-13294531D01*
X10926967Y-13294531D02*
X10936491Y-13285008D01*
X10936491Y-13285008D02*
X10955539Y-13275484D01*
X11107920Y-13475484D02*
X11107920Y-13342150D01*
X11107920Y-13361198D02*
X11117444Y-13351674D01*
X11117444Y-13351674D02*
X11136491Y-13342150D01*
X11136491Y-13342150D02*
X11165063Y-13342150D01*
X11165063Y-13342150D02*
X11184110Y-13351674D01*
X11184110Y-13351674D02*
X11193634Y-13370722D01*
X11193634Y-13370722D02*
X11193634Y-13475484D01*
X11193634Y-13370722D02*
X11203158Y-13351674D01*
X11203158Y-13351674D02*
X11222205Y-13342150D01*
X11222205Y-13342150D02*
X11250777Y-13342150D01*
X11250777Y-13342150D02*
X11269824Y-13351674D01*
X11269824Y-13351674D02*
X11279348Y-13370722D01*
X11279348Y-13370722D02*
X11279348Y-13475484D01*
X11374586Y-13475484D02*
X11374586Y-13342150D01*
X11374586Y-13361198D02*
X11384110Y-13351674D01*
X11384110Y-13351674D02*
X11403158Y-13342150D01*
X11403158Y-13342150D02*
X11431729Y-13342150D01*
X11431729Y-13342150D02*
X11450777Y-13351674D01*
X11450777Y-13351674D02*
X11460301Y-13370722D01*
X11460301Y-13370722D02*
X11460301Y-13475484D01*
X11460301Y-13370722D02*
X11469824Y-13351674D01*
X11469824Y-13351674D02*
X11488872Y-13342150D01*
X11488872Y-13342150D02*
X11517443Y-13342150D01*
X11517443Y-13342150D02*
X11536491Y-13351674D01*
X11536491Y-13351674D02*
X11546015Y-13370722D01*
X11546015Y-13370722D02*
X11546015Y-13475484D01*
X11936491Y-13265960D02*
X11765063Y-13523103D01*
X12193634Y-13275484D02*
X12212682Y-13275484D01*
X12212682Y-13275484D02*
X12231729Y-13285008D01*
X12231729Y-13285008D02*
X12241253Y-13294531D01*
X12241253Y-13294531D02*
X12250777Y-13313579D01*
X12250777Y-13313579D02*
X12260301Y-13351674D01*
X12260301Y-13351674D02*
X12260301Y-13399293D01*
X12260301Y-13399293D02*
X12250777Y-13437388D01*
X12250777Y-13437388D02*
X12241253Y-13456436D01*
X12241253Y-13456436D02*
X12231729Y-13465960D01*
X12231729Y-13465960D02*
X12212682Y-13475484D01*
X12212682Y-13475484D02*
X12193634Y-13475484D01*
X12193634Y-13475484D02*
X12174586Y-13465960D01*
X12174586Y-13465960D02*
X12165063Y-13456436D01*
X12165063Y-13456436D02*
X12155539Y-13437388D01*
X12155539Y-13437388D02*
X12146015Y-13399293D01*
X12146015Y-13399293D02*
X12146015Y-13351674D01*
X12146015Y-13351674D02*
X12155539Y-13313579D01*
X12155539Y-13313579D02*
X12165063Y-13294531D01*
X12165063Y-13294531D02*
X12174586Y-13285008D01*
X12174586Y-13285008D02*
X12193634Y-13275484D01*
X12346015Y-13456436D02*
X12355539Y-13465960D01*
X12355539Y-13465960D02*
X12346015Y-13475484D01*
X12346015Y-13475484D02*
X12336491Y-13465960D01*
X12336491Y-13465960D02*
X12346015Y-13456436D01*
X12346015Y-13456436D02*
X12346015Y-13475484D01*
X12479348Y-13275484D02*
X12498396Y-13275484D01*
X12498396Y-13275484D02*
X12517444Y-13285008D01*
X12517444Y-13285008D02*
X12526967Y-13294531D01*
X12526967Y-13294531D02*
X12536491Y-13313579D01*
X12536491Y-13313579D02*
X12546015Y-13351674D01*
X12546015Y-13351674D02*
X12546015Y-13399293D01*
X12546015Y-13399293D02*
X12536491Y-13437388D01*
X12536491Y-13437388D02*
X12526967Y-13456436D01*
X12526967Y-13456436D02*
X12517444Y-13465960D01*
X12517444Y-13465960D02*
X12498396Y-13475484D01*
X12498396Y-13475484D02*
X12479348Y-13475484D01*
X12479348Y-13475484D02*
X12460301Y-13465960D01*
X12460301Y-13465960D02*
X12450777Y-13456436D01*
X12450777Y-13456436D02*
X12441253Y-13437388D01*
X12441253Y-13437388D02*
X12431729Y-13399293D01*
X12431729Y-13399293D02*
X12431729Y-13351674D01*
X12431729Y-13351674D02*
X12441253Y-13313579D01*
X12441253Y-13313579D02*
X12450777Y-13294531D01*
X12450777Y-13294531D02*
X12460301Y-13285008D01*
X12460301Y-13285008D02*
X12479348Y-13275484D01*
X12622206Y-13294531D02*
X12631729Y-13285008D01*
X12631729Y-13285008D02*
X12650777Y-13275484D01*
X12650777Y-13275484D02*
X12698396Y-13275484D01*
X12698396Y-13275484D02*
X12717444Y-13285008D01*
X12717444Y-13285008D02*
X12726967Y-13294531D01*
X12726967Y-13294531D02*
X12736491Y-13313579D01*
X12736491Y-13313579D02*
X12736491Y-13332627D01*
X12736491Y-13332627D02*
X12726967Y-13361198D01*
X12726967Y-13361198D02*
X12612682Y-13475484D01*
X12612682Y-13475484D02*
X12736491Y-13475484D01*
X12926967Y-13475484D02*
X12812682Y-13475484D01*
X12869825Y-13475484D02*
X12869825Y-13275484D01*
X12869825Y-13275484D02*
X12850777Y-13304055D01*
X12850777Y-13304055D02*
X12831729Y-13323103D01*
X12831729Y-13323103D02*
X12812682Y-13332627D01*
X12993634Y-13275484D02*
X13126967Y-13275484D01*
X13126967Y-13275484D02*
X13041253Y-13475484D01*
X13193634Y-13275484D02*
X13193634Y-13313579D01*
X13269825Y-13275484D02*
X13269825Y-13313579D01*
X13565063Y-13551674D02*
X13555539Y-13542150D01*
X13555539Y-13542150D02*
X13536491Y-13513579D01*
X13536491Y-13513579D02*
X13526968Y-13494531D01*
X13526968Y-13494531D02*
X13517444Y-13465960D01*
X13517444Y-13465960D02*
X13507920Y-13418341D01*
X13507920Y-13418341D02*
X13507920Y-13380246D01*
X13507920Y-13380246D02*
X13517444Y-13332627D01*
X13517444Y-13332627D02*
X13526968Y-13304055D01*
X13526968Y-13304055D02*
X13536491Y-13285008D01*
X13536491Y-13285008D02*
X13555539Y-13256436D01*
X13555539Y-13256436D02*
X13565063Y-13246912D01*
X13622206Y-13275484D02*
X13746015Y-13275484D01*
X13746015Y-13275484D02*
X13679348Y-13351674D01*
X13679348Y-13351674D02*
X13707920Y-13351674D01*
X13707920Y-13351674D02*
X13726968Y-13361198D01*
X13726968Y-13361198D02*
X13736491Y-13370722D01*
X13736491Y-13370722D02*
X13746015Y-13389769D01*
X13746015Y-13389769D02*
X13746015Y-13437388D01*
X13746015Y-13437388D02*
X13736491Y-13456436D01*
X13736491Y-13456436D02*
X13726968Y-13465960D01*
X13726968Y-13465960D02*
X13707920Y-13475484D01*
X13707920Y-13475484D02*
X13650777Y-13475484D01*
X13650777Y-13475484D02*
X13631729Y-13465960D01*
X13631729Y-13465960D02*
X13622206Y-13456436D01*
X13984110Y-13475484D02*
X13984110Y-13275484D01*
X14069825Y-13475484D02*
X14069825Y-13370722D01*
X14069825Y-13370722D02*
X14060301Y-13351674D01*
X14060301Y-13351674D02*
X14041253Y-13342150D01*
X14041253Y-13342150D02*
X14012682Y-13342150D01*
X14012682Y-13342150D02*
X13993634Y-13351674D01*
X13993634Y-13351674D02*
X13984110Y-13361198D01*
X14193634Y-13475484D02*
X14174587Y-13465960D01*
X14174587Y-13465960D02*
X14165063Y-13456436D01*
X14165063Y-13456436D02*
X14155539Y-13437388D01*
X14155539Y-13437388D02*
X14155539Y-13380246D01*
X14155539Y-13380246D02*
X14165063Y-13361198D01*
X14165063Y-13361198D02*
X14174587Y-13351674D01*
X14174587Y-13351674D02*
X14193634Y-13342150D01*
X14193634Y-13342150D02*
X14222206Y-13342150D01*
X14222206Y-13342150D02*
X14241253Y-13351674D01*
X14241253Y-13351674D02*
X14250777Y-13361198D01*
X14250777Y-13361198D02*
X14260301Y-13380246D01*
X14260301Y-13380246D02*
X14260301Y-13437388D01*
X14260301Y-13437388D02*
X14250777Y-13456436D01*
X14250777Y-13456436D02*
X14241253Y-13465960D01*
X14241253Y-13465960D02*
X14222206Y-13475484D01*
X14222206Y-13475484D02*
X14193634Y-13475484D01*
X14374587Y-13475484D02*
X14355539Y-13465960D01*
X14355539Y-13465960D02*
X14346015Y-13446912D01*
X14346015Y-13446912D02*
X14346015Y-13275484D01*
X14526968Y-13465960D02*
X14507920Y-13475484D01*
X14507920Y-13475484D02*
X14469825Y-13475484D01*
X14469825Y-13475484D02*
X14450777Y-13465960D01*
X14450777Y-13465960D02*
X14441253Y-13446912D01*
X14441253Y-13446912D02*
X14441253Y-13370722D01*
X14441253Y-13370722D02*
X14450777Y-13351674D01*
X14450777Y-13351674D02*
X14469825Y-13342150D01*
X14469825Y-13342150D02*
X14507920Y-13342150D01*
X14507920Y-13342150D02*
X14526968Y-13351674D01*
X14526968Y-13351674D02*
X14536491Y-13370722D01*
X14536491Y-13370722D02*
X14536491Y-13389769D01*
X14536491Y-13389769D02*
X14441253Y-13408817D01*
X14612682Y-13465960D02*
X14631730Y-13475484D01*
X14631730Y-13475484D02*
X14669825Y-13475484D01*
X14669825Y-13475484D02*
X14688872Y-13465960D01*
X14688872Y-13465960D02*
X14698396Y-13446912D01*
X14698396Y-13446912D02*
X14698396Y-13437388D01*
X14698396Y-13437388D02*
X14688872Y-13418341D01*
X14688872Y-13418341D02*
X14669825Y-13408817D01*
X14669825Y-13408817D02*
X14641253Y-13408817D01*
X14641253Y-13408817D02*
X14622206Y-13399293D01*
X14622206Y-13399293D02*
X14612682Y-13380246D01*
X14612682Y-13380246D02*
X14612682Y-13370722D01*
X14612682Y-13370722D02*
X14622206Y-13351674D01*
X14622206Y-13351674D02*
X14641253Y-13342150D01*
X14641253Y-13342150D02*
X14669825Y-13342150D01*
X14669825Y-13342150D02*
X14688872Y-13351674D01*
X14765063Y-13551674D02*
X14774587Y-13542150D01*
X14774587Y-13542150D02*
X14793634Y-13513579D01*
X14793634Y-13513579D02*
X14803158Y-13494531D01*
X14803158Y-13494531D02*
X14812682Y-13465960D01*
X14812682Y-13465960D02*
X14822206Y-13418341D01*
X14822206Y-13418341D02*
X14822206Y-13380246D01*
X14822206Y-13380246D02*
X14812682Y-13332627D01*
X14812682Y-13332627D02*
X14803158Y-13304055D01*
X14803158Y-13304055D02*
X14793634Y-13285008D01*
X14793634Y-13285008D02*
X14774587Y-13256436D01*
X14774587Y-13256436D02*
X14765063Y-13246912D01*
D13*
X9955000Y-13613000D02*
X9955000Y-13683000D01*
X9920000Y-13648000D02*
X9990000Y-13648000D01*
D11*
X10288872Y-13539484D02*
X10307920Y-13539484D01*
X10307920Y-13539484D02*
X10326967Y-13549008D01*
X10326967Y-13549008D02*
X10336491Y-13558531D01*
X10336491Y-13558531D02*
X10346015Y-13577579D01*
X10346015Y-13577579D02*
X10355539Y-13615674D01*
X10355539Y-13615674D02*
X10355539Y-13663293D01*
X10355539Y-13663293D02*
X10346015Y-13701388D01*
X10346015Y-13701388D02*
X10336491Y-13720436D01*
X10336491Y-13720436D02*
X10326967Y-13729960D01*
X10326967Y-13729960D02*
X10307920Y-13739484D01*
X10307920Y-13739484D02*
X10288872Y-13739484D01*
X10288872Y-13739484D02*
X10269824Y-13729960D01*
X10269824Y-13729960D02*
X10260301Y-13720436D01*
X10260301Y-13720436D02*
X10250777Y-13701388D01*
X10250777Y-13701388D02*
X10241253Y-13663293D01*
X10241253Y-13663293D02*
X10241253Y-13615674D01*
X10241253Y-13615674D02*
X10250777Y-13577579D01*
X10250777Y-13577579D02*
X10260301Y-13558531D01*
X10260301Y-13558531D02*
X10269824Y-13549008D01*
X10269824Y-13549008D02*
X10288872Y-13539484D01*
X10441253Y-13720436D02*
X10450777Y-13729960D01*
X10450777Y-13729960D02*
X10441253Y-13739484D01*
X10441253Y-13739484D02*
X10431729Y-13729960D01*
X10431729Y-13729960D02*
X10441253Y-13720436D01*
X10441253Y-13720436D02*
X10441253Y-13739484D01*
X10517444Y-13539484D02*
X10650777Y-13539484D01*
X10650777Y-13539484D02*
X10565063Y-13739484D01*
X10765063Y-13539484D02*
X10784110Y-13539484D01*
X10784110Y-13539484D02*
X10803158Y-13549008D01*
X10803158Y-13549008D02*
X10812682Y-13558531D01*
X10812682Y-13558531D02*
X10822205Y-13577579D01*
X10822205Y-13577579D02*
X10831729Y-13615674D01*
X10831729Y-13615674D02*
X10831729Y-13663293D01*
X10831729Y-13663293D02*
X10822205Y-13701388D01*
X10822205Y-13701388D02*
X10812682Y-13720436D01*
X10812682Y-13720436D02*
X10803158Y-13729960D01*
X10803158Y-13729960D02*
X10784110Y-13739484D01*
X10784110Y-13739484D02*
X10765063Y-13739484D01*
X10765063Y-13739484D02*
X10746015Y-13729960D01*
X10746015Y-13729960D02*
X10736491Y-13720436D01*
X10736491Y-13720436D02*
X10726967Y-13701388D01*
X10726967Y-13701388D02*
X10717444Y-13663293D01*
X10717444Y-13663293D02*
X10717444Y-13615674D01*
X10717444Y-13615674D02*
X10726967Y-13577579D01*
X10726967Y-13577579D02*
X10736491Y-13558531D01*
X10736491Y-13558531D02*
X10746015Y-13549008D01*
X10746015Y-13549008D02*
X10765063Y-13539484D01*
X10955539Y-13539484D02*
X10974586Y-13539484D01*
X10974586Y-13539484D02*
X10993634Y-13549008D01*
X10993634Y-13549008D02*
X11003158Y-13558531D01*
X11003158Y-13558531D02*
X11012682Y-13577579D01*
X11012682Y-13577579D02*
X11022205Y-13615674D01*
X11022205Y-13615674D02*
X11022205Y-13663293D01*
X11022205Y-13663293D02*
X11012682Y-13701388D01*
X11012682Y-13701388D02*
X11003158Y-13720436D01*
X11003158Y-13720436D02*
X10993634Y-13729960D01*
X10993634Y-13729960D02*
X10974586Y-13739484D01*
X10974586Y-13739484D02*
X10955539Y-13739484D01*
X10955539Y-13739484D02*
X10936491Y-13729960D01*
X10936491Y-13729960D02*
X10926967Y-13720436D01*
X10926967Y-13720436D02*
X10917444Y-13701388D01*
X10917444Y-13701388D02*
X10907920Y-13663293D01*
X10907920Y-13663293D02*
X10907920Y-13615674D01*
X10907920Y-13615674D02*
X10917444Y-13577579D01*
X10917444Y-13577579D02*
X10926967Y-13558531D01*
X10926967Y-13558531D02*
X10936491Y-13549008D01*
X10936491Y-13549008D02*
X10955539Y-13539484D01*
X11107920Y-13739484D02*
X11107920Y-13606150D01*
X11107920Y-13625198D02*
X11117444Y-13615674D01*
X11117444Y-13615674D02*
X11136491Y-13606150D01*
X11136491Y-13606150D02*
X11165063Y-13606150D01*
X11165063Y-13606150D02*
X11184110Y-13615674D01*
X11184110Y-13615674D02*
X11193634Y-13634722D01*
X11193634Y-13634722D02*
X11193634Y-13739484D01*
X11193634Y-13634722D02*
X11203158Y-13615674D01*
X11203158Y-13615674D02*
X11222205Y-13606150D01*
X11222205Y-13606150D02*
X11250777Y-13606150D01*
X11250777Y-13606150D02*
X11269824Y-13615674D01*
X11269824Y-13615674D02*
X11279348Y-13634722D01*
X11279348Y-13634722D02*
X11279348Y-13739484D01*
X11374586Y-13739484D02*
X11374586Y-13606150D01*
X11374586Y-13625198D02*
X11384110Y-13615674D01*
X11384110Y-13615674D02*
X11403158Y-13606150D01*
X11403158Y-13606150D02*
X11431729Y-13606150D01*
X11431729Y-13606150D02*
X11450777Y-13615674D01*
X11450777Y-13615674D02*
X11460301Y-13634722D01*
X11460301Y-13634722D02*
X11460301Y-13739484D01*
X11460301Y-13634722D02*
X11469824Y-13615674D01*
X11469824Y-13615674D02*
X11488872Y-13606150D01*
X11488872Y-13606150D02*
X11517443Y-13606150D01*
X11517443Y-13606150D02*
X11536491Y-13615674D01*
X11536491Y-13615674D02*
X11546015Y-13634722D01*
X11546015Y-13634722D02*
X11546015Y-13739484D01*
X11936491Y-13529960D02*
X11765063Y-13787103D01*
X12193634Y-13539484D02*
X12212682Y-13539484D01*
X12212682Y-13539484D02*
X12231729Y-13549008D01*
X12231729Y-13549008D02*
X12241253Y-13558531D01*
X12241253Y-13558531D02*
X12250777Y-13577579D01*
X12250777Y-13577579D02*
X12260301Y-13615674D01*
X12260301Y-13615674D02*
X12260301Y-13663293D01*
X12260301Y-13663293D02*
X12250777Y-13701388D01*
X12250777Y-13701388D02*
X12241253Y-13720436D01*
X12241253Y-13720436D02*
X12231729Y-13729960D01*
X12231729Y-13729960D02*
X12212682Y-13739484D01*
X12212682Y-13739484D02*
X12193634Y-13739484D01*
X12193634Y-13739484D02*
X12174586Y-13729960D01*
X12174586Y-13729960D02*
X12165063Y-13720436D01*
X12165063Y-13720436D02*
X12155539Y-13701388D01*
X12155539Y-13701388D02*
X12146015Y-13663293D01*
X12146015Y-13663293D02*
X12146015Y-13615674D01*
X12146015Y-13615674D02*
X12155539Y-13577579D01*
X12155539Y-13577579D02*
X12165063Y-13558531D01*
X12165063Y-13558531D02*
X12174586Y-13549008D01*
X12174586Y-13549008D02*
X12193634Y-13539484D01*
X12346015Y-13720436D02*
X12355539Y-13729960D01*
X12355539Y-13729960D02*
X12346015Y-13739484D01*
X12346015Y-13739484D02*
X12336491Y-13729960D01*
X12336491Y-13729960D02*
X12346015Y-13720436D01*
X12346015Y-13720436D02*
X12346015Y-13739484D01*
X12479348Y-13539484D02*
X12498396Y-13539484D01*
X12498396Y-13539484D02*
X12517444Y-13549008D01*
X12517444Y-13549008D02*
X12526967Y-13558531D01*
X12526967Y-13558531D02*
X12536491Y-13577579D01*
X12536491Y-13577579D02*
X12546015Y-13615674D01*
X12546015Y-13615674D02*
X12546015Y-13663293D01*
X12546015Y-13663293D02*
X12536491Y-13701388D01*
X12536491Y-13701388D02*
X12526967Y-13720436D01*
X12526967Y-13720436D02*
X12517444Y-13729960D01*
X12517444Y-13729960D02*
X12498396Y-13739484D01*
X12498396Y-13739484D02*
X12479348Y-13739484D01*
X12479348Y-13739484D02*
X12460301Y-13729960D01*
X12460301Y-13729960D02*
X12450777Y-13720436D01*
X12450777Y-13720436D02*
X12441253Y-13701388D01*
X12441253Y-13701388D02*
X12431729Y-13663293D01*
X12431729Y-13663293D02*
X12431729Y-13615674D01*
X12431729Y-13615674D02*
X12441253Y-13577579D01*
X12441253Y-13577579D02*
X12450777Y-13558531D01*
X12450777Y-13558531D02*
X12460301Y-13549008D01*
X12460301Y-13549008D02*
X12479348Y-13539484D01*
X12622206Y-13558531D02*
X12631729Y-13549008D01*
X12631729Y-13549008D02*
X12650777Y-13539484D01*
X12650777Y-13539484D02*
X12698396Y-13539484D01*
X12698396Y-13539484D02*
X12717444Y-13549008D01*
X12717444Y-13549008D02*
X12726967Y-13558531D01*
X12726967Y-13558531D02*
X12736491Y-13577579D01*
X12736491Y-13577579D02*
X12736491Y-13596627D01*
X12736491Y-13596627D02*
X12726967Y-13625198D01*
X12726967Y-13625198D02*
X12612682Y-13739484D01*
X12612682Y-13739484D02*
X12736491Y-13739484D01*
X12803158Y-13539484D02*
X12936491Y-13539484D01*
X12936491Y-13539484D02*
X12850777Y-13739484D01*
X13098396Y-13539484D02*
X13060301Y-13539484D01*
X13060301Y-13539484D02*
X13041253Y-13549008D01*
X13041253Y-13549008D02*
X13031729Y-13558531D01*
X13031729Y-13558531D02*
X13012682Y-13587103D01*
X13012682Y-13587103D02*
X13003158Y-13625198D01*
X13003158Y-13625198D02*
X13003158Y-13701388D01*
X13003158Y-13701388D02*
X13012682Y-13720436D01*
X13012682Y-13720436D02*
X13022206Y-13729960D01*
X13022206Y-13729960D02*
X13041253Y-13739484D01*
X13041253Y-13739484D02*
X13079348Y-13739484D01*
X13079348Y-13739484D02*
X13098396Y-13729960D01*
X13098396Y-13729960D02*
X13107920Y-13720436D01*
X13107920Y-13720436D02*
X13117444Y-13701388D01*
X13117444Y-13701388D02*
X13117444Y-13653769D01*
X13117444Y-13653769D02*
X13107920Y-13634722D01*
X13107920Y-13634722D02*
X13098396Y-13625198D01*
X13098396Y-13625198D02*
X13079348Y-13615674D01*
X13079348Y-13615674D02*
X13041253Y-13615674D01*
X13041253Y-13615674D02*
X13022206Y-13625198D01*
X13022206Y-13625198D02*
X13012682Y-13634722D01*
X13012682Y-13634722D02*
X13003158Y-13653769D01*
X13193634Y-13539484D02*
X13193634Y-13577579D01*
X13269825Y-13539484D02*
X13269825Y-13577579D01*
X13565063Y-13815674D02*
X13555539Y-13806150D01*
X13555539Y-13806150D02*
X13536491Y-13777579D01*
X13536491Y-13777579D02*
X13526968Y-13758531D01*
X13526968Y-13758531D02*
X13517444Y-13729960D01*
X13517444Y-13729960D02*
X13507920Y-13682341D01*
X13507920Y-13682341D02*
X13507920Y-13644246D01*
X13507920Y-13644246D02*
X13517444Y-13596627D01*
X13517444Y-13596627D02*
X13526968Y-13568055D01*
X13526968Y-13568055D02*
X13536491Y-13549008D01*
X13536491Y-13549008D02*
X13555539Y-13520436D01*
X13555539Y-13520436D02*
X13565063Y-13510912D01*
X13631729Y-13558531D02*
X13641253Y-13549008D01*
X13641253Y-13549008D02*
X13660301Y-13539484D01*
X13660301Y-13539484D02*
X13707920Y-13539484D01*
X13707920Y-13539484D02*
X13726968Y-13549008D01*
X13726968Y-13549008D02*
X13736491Y-13558531D01*
X13736491Y-13558531D02*
X13746015Y-13577579D01*
X13746015Y-13577579D02*
X13746015Y-13596627D01*
X13746015Y-13596627D02*
X13736491Y-13625198D01*
X13736491Y-13625198D02*
X13622206Y-13739484D01*
X13622206Y-13739484D02*
X13746015Y-13739484D01*
X13984110Y-13739484D02*
X13984110Y-13539484D01*
X14069825Y-13739484D02*
X14069825Y-13634722D01*
X14069825Y-13634722D02*
X14060301Y-13615674D01*
X14060301Y-13615674D02*
X14041253Y-13606150D01*
X14041253Y-13606150D02*
X14012682Y-13606150D01*
X14012682Y-13606150D02*
X13993634Y-13615674D01*
X13993634Y-13615674D02*
X13984110Y-13625198D01*
X14193634Y-13739484D02*
X14174587Y-13729960D01*
X14174587Y-13729960D02*
X14165063Y-13720436D01*
X14165063Y-13720436D02*
X14155539Y-13701388D01*
X14155539Y-13701388D02*
X14155539Y-13644246D01*
X14155539Y-13644246D02*
X14165063Y-13625198D01*
X14165063Y-13625198D02*
X14174587Y-13615674D01*
X14174587Y-13615674D02*
X14193634Y-13606150D01*
X14193634Y-13606150D02*
X14222206Y-13606150D01*
X14222206Y-13606150D02*
X14241253Y-13615674D01*
X14241253Y-13615674D02*
X14250777Y-13625198D01*
X14250777Y-13625198D02*
X14260301Y-13644246D01*
X14260301Y-13644246D02*
X14260301Y-13701388D01*
X14260301Y-13701388D02*
X14250777Y-13720436D01*
X14250777Y-13720436D02*
X14241253Y-13729960D01*
X14241253Y-13729960D02*
X14222206Y-13739484D01*
X14222206Y-13739484D02*
X14193634Y-13739484D01*
X14374587Y-13739484D02*
X14355539Y-13729960D01*
X14355539Y-13729960D02*
X14346015Y-13710912D01*
X14346015Y-13710912D02*
X14346015Y-13539484D01*
X14526968Y-13729960D02*
X14507920Y-13739484D01*
X14507920Y-13739484D02*
X14469825Y-13739484D01*
X14469825Y-13739484D02*
X14450777Y-13729960D01*
X14450777Y-13729960D02*
X14441253Y-13710912D01*
X14441253Y-13710912D02*
X14441253Y-13634722D01*
X14441253Y-13634722D02*
X14450777Y-13615674D01*
X14450777Y-13615674D02*
X14469825Y-13606150D01*
X14469825Y-13606150D02*
X14507920Y-13606150D01*
X14507920Y-13606150D02*
X14526968Y-13615674D01*
X14526968Y-13615674D02*
X14536491Y-13634722D01*
X14536491Y-13634722D02*
X14536491Y-13653769D01*
X14536491Y-13653769D02*
X14441253Y-13672817D01*
X14612682Y-13729960D02*
X14631730Y-13739484D01*
X14631730Y-13739484D02*
X14669825Y-13739484D01*
X14669825Y-13739484D02*
X14688872Y-13729960D01*
X14688872Y-13729960D02*
X14698396Y-13710912D01*
X14698396Y-13710912D02*
X14698396Y-13701388D01*
X14698396Y-13701388D02*
X14688872Y-13682341D01*
X14688872Y-13682341D02*
X14669825Y-13672817D01*
X14669825Y-13672817D02*
X14641253Y-13672817D01*
X14641253Y-13672817D02*
X14622206Y-13663293D01*
X14622206Y-13663293D02*
X14612682Y-13644246D01*
X14612682Y-13644246D02*
X14612682Y-13634722D01*
X14612682Y-13634722D02*
X14622206Y-13615674D01*
X14622206Y-13615674D02*
X14641253Y-13606150D01*
X14641253Y-13606150D02*
X14669825Y-13606150D01*
X14669825Y-13606150D02*
X14688872Y-13615674D01*
X14765063Y-13815674D02*
X14774587Y-13806150D01*
X14774587Y-13806150D02*
X14793634Y-13777579D01*
X14793634Y-13777579D02*
X14803158Y-13758531D01*
X14803158Y-13758531D02*
X14812682Y-13729960D01*
X14812682Y-13729960D02*
X14822206Y-13682341D01*
X14822206Y-13682341D02*
X14822206Y-13644246D01*
X14822206Y-13644246D02*
X14812682Y-13596627D01*
X14812682Y-13596627D02*
X14803158Y-13568055D01*
X14803158Y-13568055D02*
X14793634Y-13549008D01*
X14793634Y-13549008D02*
X14774587Y-13520436D01*
X14774587Y-13520436D02*
X14765063Y-13510912D01*
D13*
X9979017Y-13938517D02*
X9979017Y-13885483D01*
X9925983Y-13885483D01*
X9925983Y-13938517D01*
X9979017Y-13938517D01*
D11*
X10288872Y-13803484D02*
X10307920Y-13803484D01*
X10307920Y-13803484D02*
X10326967Y-13813008D01*
X10326967Y-13813008D02*
X10336491Y-13822531D01*
X10336491Y-13822531D02*
X10346015Y-13841579D01*
X10346015Y-13841579D02*
X10355539Y-13879674D01*
X10355539Y-13879674D02*
X10355539Y-13927293D01*
X10355539Y-13927293D02*
X10346015Y-13965388D01*
X10346015Y-13965388D02*
X10336491Y-13984436D01*
X10336491Y-13984436D02*
X10326967Y-13993960D01*
X10326967Y-13993960D02*
X10307920Y-14003484D01*
X10307920Y-14003484D02*
X10288872Y-14003484D01*
X10288872Y-14003484D02*
X10269824Y-13993960D01*
X10269824Y-13993960D02*
X10260301Y-13984436D01*
X10260301Y-13984436D02*
X10250777Y-13965388D01*
X10250777Y-13965388D02*
X10241253Y-13927293D01*
X10241253Y-13927293D02*
X10241253Y-13879674D01*
X10241253Y-13879674D02*
X10250777Y-13841579D01*
X10250777Y-13841579D02*
X10260301Y-13822531D01*
X10260301Y-13822531D02*
X10269824Y-13813008D01*
X10269824Y-13813008D02*
X10288872Y-13803484D01*
X10441253Y-13984436D02*
X10450777Y-13993960D01*
X10450777Y-13993960D02*
X10441253Y-14003484D01*
X10441253Y-14003484D02*
X10431729Y-13993960D01*
X10431729Y-13993960D02*
X10441253Y-13984436D01*
X10441253Y-13984436D02*
X10441253Y-14003484D01*
X10517444Y-13803484D02*
X10650777Y-13803484D01*
X10650777Y-13803484D02*
X10565063Y-14003484D01*
X10822205Y-13803484D02*
X10726967Y-13803484D01*
X10726967Y-13803484D02*
X10717444Y-13898722D01*
X10717444Y-13898722D02*
X10726967Y-13889198D01*
X10726967Y-13889198D02*
X10746015Y-13879674D01*
X10746015Y-13879674D02*
X10793634Y-13879674D01*
X10793634Y-13879674D02*
X10812682Y-13889198D01*
X10812682Y-13889198D02*
X10822205Y-13898722D01*
X10822205Y-13898722D02*
X10831729Y-13917769D01*
X10831729Y-13917769D02*
X10831729Y-13965388D01*
X10831729Y-13965388D02*
X10822205Y-13984436D01*
X10822205Y-13984436D02*
X10812682Y-13993960D01*
X10812682Y-13993960D02*
X10793634Y-14003484D01*
X10793634Y-14003484D02*
X10746015Y-14003484D01*
X10746015Y-14003484D02*
X10726967Y-13993960D01*
X10726967Y-13993960D02*
X10717444Y-13984436D01*
X10955539Y-13803484D02*
X10974586Y-13803484D01*
X10974586Y-13803484D02*
X10993634Y-13813008D01*
X10993634Y-13813008D02*
X11003158Y-13822531D01*
X11003158Y-13822531D02*
X11012682Y-13841579D01*
X11012682Y-13841579D02*
X11022205Y-13879674D01*
X11022205Y-13879674D02*
X11022205Y-13927293D01*
X11022205Y-13927293D02*
X11012682Y-13965388D01*
X11012682Y-13965388D02*
X11003158Y-13984436D01*
X11003158Y-13984436D02*
X10993634Y-13993960D01*
X10993634Y-13993960D02*
X10974586Y-14003484D01*
X10974586Y-14003484D02*
X10955539Y-14003484D01*
X10955539Y-14003484D02*
X10936491Y-13993960D01*
X10936491Y-13993960D02*
X10926967Y-13984436D01*
X10926967Y-13984436D02*
X10917444Y-13965388D01*
X10917444Y-13965388D02*
X10907920Y-13927293D01*
X10907920Y-13927293D02*
X10907920Y-13879674D01*
X10907920Y-13879674D02*
X10917444Y-13841579D01*
X10917444Y-13841579D02*
X10926967Y-13822531D01*
X10926967Y-13822531D02*
X10936491Y-13813008D01*
X10936491Y-13813008D02*
X10955539Y-13803484D01*
X11107920Y-14003484D02*
X11107920Y-13870150D01*
X11107920Y-13889198D02*
X11117444Y-13879674D01*
X11117444Y-13879674D02*
X11136491Y-13870150D01*
X11136491Y-13870150D02*
X11165063Y-13870150D01*
X11165063Y-13870150D02*
X11184110Y-13879674D01*
X11184110Y-13879674D02*
X11193634Y-13898722D01*
X11193634Y-13898722D02*
X11193634Y-14003484D01*
X11193634Y-13898722D02*
X11203158Y-13879674D01*
X11203158Y-13879674D02*
X11222205Y-13870150D01*
X11222205Y-13870150D02*
X11250777Y-13870150D01*
X11250777Y-13870150D02*
X11269824Y-13879674D01*
X11269824Y-13879674D02*
X11279348Y-13898722D01*
X11279348Y-13898722D02*
X11279348Y-14003484D01*
X11374586Y-14003484D02*
X11374586Y-13870150D01*
X11374586Y-13889198D02*
X11384110Y-13879674D01*
X11384110Y-13879674D02*
X11403158Y-13870150D01*
X11403158Y-13870150D02*
X11431729Y-13870150D01*
X11431729Y-13870150D02*
X11450777Y-13879674D01*
X11450777Y-13879674D02*
X11460301Y-13898722D01*
X11460301Y-13898722D02*
X11460301Y-14003484D01*
X11460301Y-13898722D02*
X11469824Y-13879674D01*
X11469824Y-13879674D02*
X11488872Y-13870150D01*
X11488872Y-13870150D02*
X11517443Y-13870150D01*
X11517443Y-13870150D02*
X11536491Y-13879674D01*
X11536491Y-13879674D02*
X11546015Y-13898722D01*
X11546015Y-13898722D02*
X11546015Y-14003484D01*
X11936491Y-13793960D02*
X11765063Y-14051103D01*
X12193634Y-13803484D02*
X12212682Y-13803484D01*
X12212682Y-13803484D02*
X12231729Y-13813008D01*
X12231729Y-13813008D02*
X12241253Y-13822531D01*
X12241253Y-13822531D02*
X12250777Y-13841579D01*
X12250777Y-13841579D02*
X12260301Y-13879674D01*
X12260301Y-13879674D02*
X12260301Y-13927293D01*
X12260301Y-13927293D02*
X12250777Y-13965388D01*
X12250777Y-13965388D02*
X12241253Y-13984436D01*
X12241253Y-13984436D02*
X12231729Y-13993960D01*
X12231729Y-13993960D02*
X12212682Y-14003484D01*
X12212682Y-14003484D02*
X12193634Y-14003484D01*
X12193634Y-14003484D02*
X12174586Y-13993960D01*
X12174586Y-13993960D02*
X12165063Y-13984436D01*
X12165063Y-13984436D02*
X12155539Y-13965388D01*
X12155539Y-13965388D02*
X12146015Y-13927293D01*
X12146015Y-13927293D02*
X12146015Y-13879674D01*
X12146015Y-13879674D02*
X12155539Y-13841579D01*
X12155539Y-13841579D02*
X12165063Y-13822531D01*
X12165063Y-13822531D02*
X12174586Y-13813008D01*
X12174586Y-13813008D02*
X12193634Y-13803484D01*
X12346015Y-13984436D02*
X12355539Y-13993960D01*
X12355539Y-13993960D02*
X12346015Y-14003484D01*
X12346015Y-14003484D02*
X12336491Y-13993960D01*
X12336491Y-13993960D02*
X12346015Y-13984436D01*
X12346015Y-13984436D02*
X12346015Y-14003484D01*
X12479348Y-13803484D02*
X12498396Y-13803484D01*
X12498396Y-13803484D02*
X12517444Y-13813008D01*
X12517444Y-13813008D02*
X12526967Y-13822531D01*
X12526967Y-13822531D02*
X12536491Y-13841579D01*
X12536491Y-13841579D02*
X12546015Y-13879674D01*
X12546015Y-13879674D02*
X12546015Y-13927293D01*
X12546015Y-13927293D02*
X12536491Y-13965388D01*
X12536491Y-13965388D02*
X12526967Y-13984436D01*
X12526967Y-13984436D02*
X12517444Y-13993960D01*
X12517444Y-13993960D02*
X12498396Y-14003484D01*
X12498396Y-14003484D02*
X12479348Y-14003484D01*
X12479348Y-14003484D02*
X12460301Y-13993960D01*
X12460301Y-13993960D02*
X12450777Y-13984436D01*
X12450777Y-13984436D02*
X12441253Y-13965388D01*
X12441253Y-13965388D02*
X12431729Y-13927293D01*
X12431729Y-13927293D02*
X12431729Y-13879674D01*
X12431729Y-13879674D02*
X12441253Y-13841579D01*
X12441253Y-13841579D02*
X12450777Y-13822531D01*
X12450777Y-13822531D02*
X12460301Y-13813008D01*
X12460301Y-13813008D02*
X12479348Y-13803484D01*
X12622206Y-13822531D02*
X12631729Y-13813008D01*
X12631729Y-13813008D02*
X12650777Y-13803484D01*
X12650777Y-13803484D02*
X12698396Y-13803484D01*
X12698396Y-13803484D02*
X12717444Y-13813008D01*
X12717444Y-13813008D02*
X12726967Y-13822531D01*
X12726967Y-13822531D02*
X12736491Y-13841579D01*
X12736491Y-13841579D02*
X12736491Y-13860627D01*
X12736491Y-13860627D02*
X12726967Y-13889198D01*
X12726967Y-13889198D02*
X12612682Y-14003484D01*
X12612682Y-14003484D02*
X12736491Y-14003484D01*
X12831729Y-14003484D02*
X12869825Y-14003484D01*
X12869825Y-14003484D02*
X12888872Y-13993960D01*
X12888872Y-13993960D02*
X12898396Y-13984436D01*
X12898396Y-13984436D02*
X12917444Y-13955865D01*
X12917444Y-13955865D02*
X12926967Y-13917769D01*
X12926967Y-13917769D02*
X12926967Y-13841579D01*
X12926967Y-13841579D02*
X12917444Y-13822531D01*
X12917444Y-13822531D02*
X12907920Y-13813008D01*
X12907920Y-13813008D02*
X12888872Y-13803484D01*
X12888872Y-13803484D02*
X12850777Y-13803484D01*
X12850777Y-13803484D02*
X12831729Y-13813008D01*
X12831729Y-13813008D02*
X12822206Y-13822531D01*
X12822206Y-13822531D02*
X12812682Y-13841579D01*
X12812682Y-13841579D02*
X12812682Y-13889198D01*
X12812682Y-13889198D02*
X12822206Y-13908246D01*
X12822206Y-13908246D02*
X12831729Y-13917769D01*
X12831729Y-13917769D02*
X12850777Y-13927293D01*
X12850777Y-13927293D02*
X12888872Y-13927293D01*
X12888872Y-13927293D02*
X12907920Y-13917769D01*
X12907920Y-13917769D02*
X12917444Y-13908246D01*
X12917444Y-13908246D02*
X12926967Y-13889198D01*
X13107920Y-13803484D02*
X13012682Y-13803484D01*
X13012682Y-13803484D02*
X13003158Y-13898722D01*
X13003158Y-13898722D02*
X13012682Y-13889198D01*
X13012682Y-13889198D02*
X13031729Y-13879674D01*
X13031729Y-13879674D02*
X13079348Y-13879674D01*
X13079348Y-13879674D02*
X13098396Y-13889198D01*
X13098396Y-13889198D02*
X13107920Y-13898722D01*
X13107920Y-13898722D02*
X13117444Y-13917769D01*
X13117444Y-13917769D02*
X13117444Y-13965388D01*
X13117444Y-13965388D02*
X13107920Y-13984436D01*
X13107920Y-13984436D02*
X13098396Y-13993960D01*
X13098396Y-13993960D02*
X13079348Y-14003484D01*
X13079348Y-14003484D02*
X13031729Y-14003484D01*
X13031729Y-14003484D02*
X13012682Y-13993960D01*
X13012682Y-13993960D02*
X13003158Y-13984436D01*
X13193634Y-13803484D02*
X13193634Y-13841579D01*
X13269825Y-13803484D02*
X13269825Y-13841579D01*
X13565063Y-14079674D02*
X13555539Y-14070150D01*
X13555539Y-14070150D02*
X13536491Y-14041579D01*
X13536491Y-14041579D02*
X13526968Y-14022531D01*
X13526968Y-14022531D02*
X13517444Y-13993960D01*
X13517444Y-13993960D02*
X13507920Y-13946341D01*
X13507920Y-13946341D02*
X13507920Y-13908246D01*
X13507920Y-13908246D02*
X13517444Y-13860627D01*
X13517444Y-13860627D02*
X13526968Y-13832055D01*
X13526968Y-13832055D02*
X13536491Y-13813008D01*
X13536491Y-13813008D02*
X13555539Y-13784436D01*
X13555539Y-13784436D02*
X13565063Y-13774912D01*
X13726968Y-13870150D02*
X13726968Y-14003484D01*
X13679348Y-13793960D02*
X13631729Y-13936817D01*
X13631729Y-13936817D02*
X13755539Y-13936817D01*
X13984110Y-14003484D02*
X13984110Y-13803484D01*
X14069825Y-14003484D02*
X14069825Y-13898722D01*
X14069825Y-13898722D02*
X14060301Y-13879674D01*
X14060301Y-13879674D02*
X14041253Y-13870150D01*
X14041253Y-13870150D02*
X14012682Y-13870150D01*
X14012682Y-13870150D02*
X13993634Y-13879674D01*
X13993634Y-13879674D02*
X13984110Y-13889198D01*
X14193634Y-14003484D02*
X14174587Y-13993960D01*
X14174587Y-13993960D02*
X14165063Y-13984436D01*
X14165063Y-13984436D02*
X14155539Y-13965388D01*
X14155539Y-13965388D02*
X14155539Y-13908246D01*
X14155539Y-13908246D02*
X14165063Y-13889198D01*
X14165063Y-13889198D02*
X14174587Y-13879674D01*
X14174587Y-13879674D02*
X14193634Y-13870150D01*
X14193634Y-13870150D02*
X14222206Y-13870150D01*
X14222206Y-13870150D02*
X14241253Y-13879674D01*
X14241253Y-13879674D02*
X14250777Y-13889198D01*
X14250777Y-13889198D02*
X14260301Y-13908246D01*
X14260301Y-13908246D02*
X14260301Y-13965388D01*
X14260301Y-13965388D02*
X14250777Y-13984436D01*
X14250777Y-13984436D02*
X14241253Y-13993960D01*
X14241253Y-13993960D02*
X14222206Y-14003484D01*
X14222206Y-14003484D02*
X14193634Y-14003484D01*
X14374587Y-14003484D02*
X14355539Y-13993960D01*
X14355539Y-13993960D02*
X14346015Y-13974912D01*
X14346015Y-13974912D02*
X14346015Y-13803484D01*
X14526968Y-13993960D02*
X14507920Y-14003484D01*
X14507920Y-14003484D02*
X14469825Y-14003484D01*
X14469825Y-14003484D02*
X14450777Y-13993960D01*
X14450777Y-13993960D02*
X14441253Y-13974912D01*
X14441253Y-13974912D02*
X14441253Y-13898722D01*
X14441253Y-13898722D02*
X14450777Y-13879674D01*
X14450777Y-13879674D02*
X14469825Y-13870150D01*
X14469825Y-13870150D02*
X14507920Y-13870150D01*
X14507920Y-13870150D02*
X14526968Y-13879674D01*
X14526968Y-13879674D02*
X14536491Y-13898722D01*
X14536491Y-13898722D02*
X14536491Y-13917769D01*
X14536491Y-13917769D02*
X14441253Y-13936817D01*
X14612682Y-13993960D02*
X14631730Y-14003484D01*
X14631730Y-14003484D02*
X14669825Y-14003484D01*
X14669825Y-14003484D02*
X14688872Y-13993960D01*
X14688872Y-13993960D02*
X14698396Y-13974912D01*
X14698396Y-13974912D02*
X14698396Y-13965388D01*
X14698396Y-13965388D02*
X14688872Y-13946341D01*
X14688872Y-13946341D02*
X14669825Y-13936817D01*
X14669825Y-13936817D02*
X14641253Y-13936817D01*
X14641253Y-13936817D02*
X14622206Y-13927293D01*
X14622206Y-13927293D02*
X14612682Y-13908246D01*
X14612682Y-13908246D02*
X14612682Y-13898722D01*
X14612682Y-13898722D02*
X14622206Y-13879674D01*
X14622206Y-13879674D02*
X14641253Y-13870150D01*
X14641253Y-13870150D02*
X14669825Y-13870150D01*
X14669825Y-13870150D02*
X14688872Y-13879674D01*
X14765063Y-14079674D02*
X14774587Y-14070150D01*
X14774587Y-14070150D02*
X14793634Y-14041579D01*
X14793634Y-14041579D02*
X14803158Y-14022531D01*
X14803158Y-14022531D02*
X14812682Y-13993960D01*
X14812682Y-13993960D02*
X14822206Y-13946341D01*
X14822206Y-13946341D02*
X14822206Y-13908246D01*
X14822206Y-13908246D02*
X14812682Y-13860627D01*
X14812682Y-13860627D02*
X14803158Y-13832055D01*
X14803158Y-13832055D02*
X14793634Y-13813008D01*
X14793634Y-13813008D02*
X14774587Y-13784436D01*
X14774587Y-13784436D02*
X14765063Y-13774912D01*
D13*
X9951900Y-14214100D02*
X9990000Y-14176000D01*
X9951900Y-14137900D01*
X9913800Y-14176000D01*
X9951900Y-14214100D01*
D11*
X10288872Y-14067484D02*
X10307920Y-14067484D01*
X10307920Y-14067484D02*
X10326967Y-14077008D01*
X10326967Y-14077008D02*
X10336491Y-14086531D01*
X10336491Y-14086531D02*
X10346015Y-14105579D01*
X10346015Y-14105579D02*
X10355539Y-14143674D01*
X10355539Y-14143674D02*
X10355539Y-14191293D01*
X10355539Y-14191293D02*
X10346015Y-14229388D01*
X10346015Y-14229388D02*
X10336491Y-14248436D01*
X10336491Y-14248436D02*
X10326967Y-14257960D01*
X10326967Y-14257960D02*
X10307920Y-14267484D01*
X10307920Y-14267484D02*
X10288872Y-14267484D01*
X10288872Y-14267484D02*
X10269824Y-14257960D01*
X10269824Y-14257960D02*
X10260301Y-14248436D01*
X10260301Y-14248436D02*
X10250777Y-14229388D01*
X10250777Y-14229388D02*
X10241253Y-14191293D01*
X10241253Y-14191293D02*
X10241253Y-14143674D01*
X10241253Y-14143674D02*
X10250777Y-14105579D01*
X10250777Y-14105579D02*
X10260301Y-14086531D01*
X10260301Y-14086531D02*
X10269824Y-14077008D01*
X10269824Y-14077008D02*
X10288872Y-14067484D01*
X10441253Y-14248436D02*
X10450777Y-14257960D01*
X10450777Y-14257960D02*
X10441253Y-14267484D01*
X10441253Y-14267484D02*
X10431729Y-14257960D01*
X10431729Y-14257960D02*
X10441253Y-14248436D01*
X10441253Y-14248436D02*
X10441253Y-14267484D01*
X10517444Y-14067484D02*
X10650777Y-14067484D01*
X10650777Y-14067484D02*
X10565063Y-14267484D01*
X10812682Y-14067484D02*
X10774586Y-14067484D01*
X10774586Y-14067484D02*
X10755539Y-14077008D01*
X10755539Y-14077008D02*
X10746015Y-14086531D01*
X10746015Y-14086531D02*
X10726967Y-14115103D01*
X10726967Y-14115103D02*
X10717444Y-14153198D01*
X10717444Y-14153198D02*
X10717444Y-14229388D01*
X10717444Y-14229388D02*
X10726967Y-14248436D01*
X10726967Y-14248436D02*
X10736491Y-14257960D01*
X10736491Y-14257960D02*
X10755539Y-14267484D01*
X10755539Y-14267484D02*
X10793634Y-14267484D01*
X10793634Y-14267484D02*
X10812682Y-14257960D01*
X10812682Y-14257960D02*
X10822205Y-14248436D01*
X10822205Y-14248436D02*
X10831729Y-14229388D01*
X10831729Y-14229388D02*
X10831729Y-14181769D01*
X10831729Y-14181769D02*
X10822205Y-14162722D01*
X10822205Y-14162722D02*
X10812682Y-14153198D01*
X10812682Y-14153198D02*
X10793634Y-14143674D01*
X10793634Y-14143674D02*
X10755539Y-14143674D01*
X10755539Y-14143674D02*
X10736491Y-14153198D01*
X10736491Y-14153198D02*
X10726967Y-14162722D01*
X10726967Y-14162722D02*
X10717444Y-14181769D01*
X10907920Y-14086531D02*
X10917444Y-14077008D01*
X10917444Y-14077008D02*
X10936491Y-14067484D01*
X10936491Y-14067484D02*
X10984110Y-14067484D01*
X10984110Y-14067484D02*
X11003158Y-14077008D01*
X11003158Y-14077008D02*
X11012682Y-14086531D01*
X11012682Y-14086531D02*
X11022205Y-14105579D01*
X11022205Y-14105579D02*
X11022205Y-14124627D01*
X11022205Y-14124627D02*
X11012682Y-14153198D01*
X11012682Y-14153198D02*
X10898396Y-14267484D01*
X10898396Y-14267484D02*
X11022205Y-14267484D01*
X11107920Y-14267484D02*
X11107920Y-14134150D01*
X11107920Y-14153198D02*
X11117444Y-14143674D01*
X11117444Y-14143674D02*
X11136491Y-14134150D01*
X11136491Y-14134150D02*
X11165063Y-14134150D01*
X11165063Y-14134150D02*
X11184110Y-14143674D01*
X11184110Y-14143674D02*
X11193634Y-14162722D01*
X11193634Y-14162722D02*
X11193634Y-14267484D01*
X11193634Y-14162722D02*
X11203158Y-14143674D01*
X11203158Y-14143674D02*
X11222205Y-14134150D01*
X11222205Y-14134150D02*
X11250777Y-14134150D01*
X11250777Y-14134150D02*
X11269824Y-14143674D01*
X11269824Y-14143674D02*
X11279348Y-14162722D01*
X11279348Y-14162722D02*
X11279348Y-14267484D01*
X11374586Y-14267484D02*
X11374586Y-14134150D01*
X11374586Y-14153198D02*
X11384110Y-14143674D01*
X11384110Y-14143674D02*
X11403158Y-14134150D01*
X11403158Y-14134150D02*
X11431729Y-14134150D01*
X11431729Y-14134150D02*
X11450777Y-14143674D01*
X11450777Y-14143674D02*
X11460301Y-14162722D01*
X11460301Y-14162722D02*
X11460301Y-14267484D01*
X11460301Y-14162722D02*
X11469824Y-14143674D01*
X11469824Y-14143674D02*
X11488872Y-14134150D01*
X11488872Y-14134150D02*
X11517443Y-14134150D01*
X11517443Y-14134150D02*
X11536491Y-14143674D01*
X11536491Y-14143674D02*
X11546015Y-14162722D01*
X11546015Y-14162722D02*
X11546015Y-14267484D01*
X11936491Y-14057960D02*
X11765063Y-14315103D01*
X12193634Y-14067484D02*
X12212682Y-14067484D01*
X12212682Y-14067484D02*
X12231729Y-14077008D01*
X12231729Y-14077008D02*
X12241253Y-14086531D01*
X12241253Y-14086531D02*
X12250777Y-14105579D01*
X12250777Y-14105579D02*
X12260301Y-14143674D01*
X12260301Y-14143674D02*
X12260301Y-14191293D01*
X12260301Y-14191293D02*
X12250777Y-14229388D01*
X12250777Y-14229388D02*
X12241253Y-14248436D01*
X12241253Y-14248436D02*
X12231729Y-14257960D01*
X12231729Y-14257960D02*
X12212682Y-14267484D01*
X12212682Y-14267484D02*
X12193634Y-14267484D01*
X12193634Y-14267484D02*
X12174586Y-14257960D01*
X12174586Y-14257960D02*
X12165063Y-14248436D01*
X12165063Y-14248436D02*
X12155539Y-14229388D01*
X12155539Y-14229388D02*
X12146015Y-14191293D01*
X12146015Y-14191293D02*
X12146015Y-14143674D01*
X12146015Y-14143674D02*
X12155539Y-14105579D01*
X12155539Y-14105579D02*
X12165063Y-14086531D01*
X12165063Y-14086531D02*
X12174586Y-14077008D01*
X12174586Y-14077008D02*
X12193634Y-14067484D01*
X12346015Y-14248436D02*
X12355539Y-14257960D01*
X12355539Y-14257960D02*
X12346015Y-14267484D01*
X12346015Y-14267484D02*
X12336491Y-14257960D01*
X12336491Y-14257960D02*
X12346015Y-14248436D01*
X12346015Y-14248436D02*
X12346015Y-14267484D01*
X12479348Y-14067484D02*
X12498396Y-14067484D01*
X12498396Y-14067484D02*
X12517444Y-14077008D01*
X12517444Y-14077008D02*
X12526967Y-14086531D01*
X12526967Y-14086531D02*
X12536491Y-14105579D01*
X12536491Y-14105579D02*
X12546015Y-14143674D01*
X12546015Y-14143674D02*
X12546015Y-14191293D01*
X12546015Y-14191293D02*
X12536491Y-14229388D01*
X12536491Y-14229388D02*
X12526967Y-14248436D01*
X12526967Y-14248436D02*
X12517444Y-14257960D01*
X12517444Y-14257960D02*
X12498396Y-14267484D01*
X12498396Y-14267484D02*
X12479348Y-14267484D01*
X12479348Y-14267484D02*
X12460301Y-14257960D01*
X12460301Y-14257960D02*
X12450777Y-14248436D01*
X12450777Y-14248436D02*
X12441253Y-14229388D01*
X12441253Y-14229388D02*
X12431729Y-14191293D01*
X12431729Y-14191293D02*
X12431729Y-14143674D01*
X12431729Y-14143674D02*
X12441253Y-14105579D01*
X12441253Y-14105579D02*
X12450777Y-14086531D01*
X12450777Y-14086531D02*
X12460301Y-14077008D01*
X12460301Y-14077008D02*
X12479348Y-14067484D01*
X12612682Y-14067484D02*
X12736491Y-14067484D01*
X12736491Y-14067484D02*
X12669825Y-14143674D01*
X12669825Y-14143674D02*
X12698396Y-14143674D01*
X12698396Y-14143674D02*
X12717444Y-14153198D01*
X12717444Y-14153198D02*
X12726967Y-14162722D01*
X12726967Y-14162722D02*
X12736491Y-14181769D01*
X12736491Y-14181769D02*
X12736491Y-14229388D01*
X12736491Y-14229388D02*
X12726967Y-14248436D01*
X12726967Y-14248436D02*
X12717444Y-14257960D01*
X12717444Y-14257960D02*
X12698396Y-14267484D01*
X12698396Y-14267484D02*
X12641253Y-14267484D01*
X12641253Y-14267484D02*
X12622206Y-14257960D01*
X12622206Y-14257960D02*
X12612682Y-14248436D01*
X12860301Y-14067484D02*
X12879348Y-14067484D01*
X12879348Y-14067484D02*
X12898396Y-14077008D01*
X12898396Y-14077008D02*
X12907920Y-14086531D01*
X12907920Y-14086531D02*
X12917444Y-14105579D01*
X12917444Y-14105579D02*
X12926967Y-14143674D01*
X12926967Y-14143674D02*
X12926967Y-14191293D01*
X12926967Y-14191293D02*
X12917444Y-14229388D01*
X12917444Y-14229388D02*
X12907920Y-14248436D01*
X12907920Y-14248436D02*
X12898396Y-14257960D01*
X12898396Y-14257960D02*
X12879348Y-14267484D01*
X12879348Y-14267484D02*
X12860301Y-14267484D01*
X12860301Y-14267484D02*
X12841253Y-14257960D01*
X12841253Y-14257960D02*
X12831729Y-14248436D01*
X12831729Y-14248436D02*
X12822206Y-14229388D01*
X12822206Y-14229388D02*
X12812682Y-14191293D01*
X12812682Y-14191293D02*
X12812682Y-14143674D01*
X12812682Y-14143674D02*
X12822206Y-14105579D01*
X12822206Y-14105579D02*
X12831729Y-14086531D01*
X12831729Y-14086531D02*
X12841253Y-14077008D01*
X12841253Y-14077008D02*
X12860301Y-14067484D01*
X13050777Y-14067484D02*
X13069825Y-14067484D01*
X13069825Y-14067484D02*
X13088872Y-14077008D01*
X13088872Y-14077008D02*
X13098396Y-14086531D01*
X13098396Y-14086531D02*
X13107920Y-14105579D01*
X13107920Y-14105579D02*
X13117444Y-14143674D01*
X13117444Y-14143674D02*
X13117444Y-14191293D01*
X13117444Y-14191293D02*
X13107920Y-14229388D01*
X13107920Y-14229388D02*
X13098396Y-14248436D01*
X13098396Y-14248436D02*
X13088872Y-14257960D01*
X13088872Y-14257960D02*
X13069825Y-14267484D01*
X13069825Y-14267484D02*
X13050777Y-14267484D01*
X13050777Y-14267484D02*
X13031729Y-14257960D01*
X13031729Y-14257960D02*
X13022206Y-14248436D01*
X13022206Y-14248436D02*
X13012682Y-14229388D01*
X13012682Y-14229388D02*
X13003158Y-14191293D01*
X13003158Y-14191293D02*
X13003158Y-14143674D01*
X13003158Y-14143674D02*
X13012682Y-14105579D01*
X13012682Y-14105579D02*
X13022206Y-14086531D01*
X13022206Y-14086531D02*
X13031729Y-14077008D01*
X13031729Y-14077008D02*
X13050777Y-14067484D01*
X13193634Y-14067484D02*
X13193634Y-14105579D01*
X13269825Y-14067484D02*
X13269825Y-14105579D01*
X13565063Y-14343674D02*
X13555539Y-14334150D01*
X13555539Y-14334150D02*
X13536491Y-14305579D01*
X13536491Y-14305579D02*
X13526968Y-14286531D01*
X13526968Y-14286531D02*
X13517444Y-14257960D01*
X13517444Y-14257960D02*
X13507920Y-14210341D01*
X13507920Y-14210341D02*
X13507920Y-14172246D01*
X13507920Y-14172246D02*
X13517444Y-14124627D01*
X13517444Y-14124627D02*
X13526968Y-14096055D01*
X13526968Y-14096055D02*
X13536491Y-14077008D01*
X13536491Y-14077008D02*
X13555539Y-14048436D01*
X13555539Y-14048436D02*
X13565063Y-14038912D01*
X13746015Y-14267484D02*
X13631729Y-14267484D01*
X13688872Y-14267484D02*
X13688872Y-14067484D01*
X13688872Y-14067484D02*
X13669825Y-14096055D01*
X13669825Y-14096055D02*
X13650777Y-14115103D01*
X13650777Y-14115103D02*
X13631729Y-14124627D01*
X13812682Y-14067484D02*
X13936491Y-14067484D01*
X13936491Y-14067484D02*
X13869825Y-14143674D01*
X13869825Y-14143674D02*
X13898396Y-14143674D01*
X13898396Y-14143674D02*
X13917444Y-14153198D01*
X13917444Y-14153198D02*
X13926968Y-14162722D01*
X13926968Y-14162722D02*
X13936491Y-14181769D01*
X13936491Y-14181769D02*
X13936491Y-14229388D01*
X13936491Y-14229388D02*
X13926968Y-14248436D01*
X13926968Y-14248436D02*
X13917444Y-14257960D01*
X13917444Y-14257960D02*
X13898396Y-14267484D01*
X13898396Y-14267484D02*
X13841253Y-14267484D01*
X13841253Y-14267484D02*
X13822206Y-14257960D01*
X13822206Y-14257960D02*
X13812682Y-14248436D01*
X14174587Y-14267484D02*
X14174587Y-14067484D01*
X14260301Y-14267484D02*
X14260301Y-14162722D01*
X14260301Y-14162722D02*
X14250777Y-14143674D01*
X14250777Y-14143674D02*
X14231730Y-14134150D01*
X14231730Y-14134150D02*
X14203158Y-14134150D01*
X14203158Y-14134150D02*
X14184110Y-14143674D01*
X14184110Y-14143674D02*
X14174587Y-14153198D01*
X14384110Y-14267484D02*
X14365063Y-14257960D01*
X14365063Y-14257960D02*
X14355539Y-14248436D01*
X14355539Y-14248436D02*
X14346015Y-14229388D01*
X14346015Y-14229388D02*
X14346015Y-14172246D01*
X14346015Y-14172246D02*
X14355539Y-14153198D01*
X14355539Y-14153198D02*
X14365063Y-14143674D01*
X14365063Y-14143674D02*
X14384110Y-14134150D01*
X14384110Y-14134150D02*
X14412682Y-14134150D01*
X14412682Y-14134150D02*
X14431730Y-14143674D01*
X14431730Y-14143674D02*
X14441253Y-14153198D01*
X14441253Y-14153198D02*
X14450777Y-14172246D01*
X14450777Y-14172246D02*
X14450777Y-14229388D01*
X14450777Y-14229388D02*
X14441253Y-14248436D01*
X14441253Y-14248436D02*
X14431730Y-14257960D01*
X14431730Y-14257960D02*
X14412682Y-14267484D01*
X14412682Y-14267484D02*
X14384110Y-14267484D01*
X14565063Y-14267484D02*
X14546015Y-14257960D01*
X14546015Y-14257960D02*
X14536491Y-14238912D01*
X14536491Y-14238912D02*
X14536491Y-14067484D01*
X14717444Y-14257960D02*
X14698396Y-14267484D01*
X14698396Y-14267484D02*
X14660301Y-14267484D01*
X14660301Y-14267484D02*
X14641253Y-14257960D01*
X14641253Y-14257960D02*
X14631730Y-14238912D01*
X14631730Y-14238912D02*
X14631730Y-14162722D01*
X14631730Y-14162722D02*
X14641253Y-14143674D01*
X14641253Y-14143674D02*
X14660301Y-14134150D01*
X14660301Y-14134150D02*
X14698396Y-14134150D01*
X14698396Y-14134150D02*
X14717444Y-14143674D01*
X14717444Y-14143674D02*
X14726968Y-14162722D01*
X14726968Y-14162722D02*
X14726968Y-14181769D01*
X14726968Y-14181769D02*
X14631730Y-14200817D01*
X14803158Y-14257960D02*
X14822206Y-14267484D01*
X14822206Y-14267484D02*
X14860301Y-14267484D01*
X14860301Y-14267484D02*
X14879349Y-14257960D01*
X14879349Y-14257960D02*
X14888872Y-14238912D01*
X14888872Y-14238912D02*
X14888872Y-14229388D01*
X14888872Y-14229388D02*
X14879349Y-14210341D01*
X14879349Y-14210341D02*
X14860301Y-14200817D01*
X14860301Y-14200817D02*
X14831730Y-14200817D01*
X14831730Y-14200817D02*
X14812682Y-14191293D01*
X14812682Y-14191293D02*
X14803158Y-14172246D01*
X14803158Y-14172246D02*
X14803158Y-14162722D01*
X14803158Y-14162722D02*
X14812682Y-14143674D01*
X14812682Y-14143674D02*
X14831730Y-14134150D01*
X14831730Y-14134150D02*
X14860301Y-14134150D01*
X14860301Y-14134150D02*
X14879349Y-14143674D01*
X14955539Y-14343674D02*
X14965063Y-14334150D01*
X14965063Y-14334150D02*
X14984111Y-14305579D01*
X14984111Y-14305579D02*
X14993634Y-14286531D01*
X14993634Y-14286531D02*
X15003158Y-14257960D01*
X15003158Y-14257960D02*
X15012682Y-14210341D01*
X15012682Y-14210341D02*
X15012682Y-14172246D01*
X15012682Y-14172246D02*
X15003158Y-14124627D01*
X15003158Y-14124627D02*
X14993634Y-14096055D01*
X14993634Y-14096055D02*
X14984111Y-14077008D01*
X14984111Y-14077008D02*
X14965063Y-14048436D01*
X14965063Y-14048436D02*
X14955539Y-14038912D01*
D13*
X9910000Y-14400000D02*
X9990000Y-14480000D01*
X9990000Y-14400000D02*
X9910000Y-14480000D01*
X9990000Y-14440000D02*
G75*
G02*
X9910000Y-14440000I-40000J0D01*
G01*
X9910000Y-14440000D02*
G75*
G02*
X9990000Y-14440000I40000J0D01*
G01*
D11*
X10288872Y-14331484D02*
X10307920Y-14331484D01*
X10307920Y-14331484D02*
X10326967Y-14341008D01*
X10326967Y-14341008D02*
X10336491Y-14350531D01*
X10336491Y-14350531D02*
X10346015Y-14369579D01*
X10346015Y-14369579D02*
X10355539Y-14407674D01*
X10355539Y-14407674D02*
X10355539Y-14455293D01*
X10355539Y-14455293D02*
X10346015Y-14493388D01*
X10346015Y-14493388D02*
X10336491Y-14512436D01*
X10336491Y-14512436D02*
X10326967Y-14521960D01*
X10326967Y-14521960D02*
X10307920Y-14531484D01*
X10307920Y-14531484D02*
X10288872Y-14531484D01*
X10288872Y-14531484D02*
X10269824Y-14521960D01*
X10269824Y-14521960D02*
X10260301Y-14512436D01*
X10260301Y-14512436D02*
X10250777Y-14493388D01*
X10250777Y-14493388D02*
X10241253Y-14455293D01*
X10241253Y-14455293D02*
X10241253Y-14407674D01*
X10241253Y-14407674D02*
X10250777Y-14369579D01*
X10250777Y-14369579D02*
X10260301Y-14350531D01*
X10260301Y-14350531D02*
X10269824Y-14341008D01*
X10269824Y-14341008D02*
X10288872Y-14331484D01*
X10441253Y-14512436D02*
X10450777Y-14521960D01*
X10450777Y-14521960D02*
X10441253Y-14531484D01*
X10441253Y-14531484D02*
X10431729Y-14521960D01*
X10431729Y-14521960D02*
X10441253Y-14512436D01*
X10441253Y-14512436D02*
X10441253Y-14531484D01*
X10565063Y-14417198D02*
X10546015Y-14407674D01*
X10546015Y-14407674D02*
X10536491Y-14398150D01*
X10536491Y-14398150D02*
X10526967Y-14379103D01*
X10526967Y-14379103D02*
X10526967Y-14369579D01*
X10526967Y-14369579D02*
X10536491Y-14350531D01*
X10536491Y-14350531D02*
X10546015Y-14341008D01*
X10546015Y-14341008D02*
X10565063Y-14331484D01*
X10565063Y-14331484D02*
X10603158Y-14331484D01*
X10603158Y-14331484D02*
X10622205Y-14341008D01*
X10622205Y-14341008D02*
X10631729Y-14350531D01*
X10631729Y-14350531D02*
X10641253Y-14369579D01*
X10641253Y-14369579D02*
X10641253Y-14379103D01*
X10641253Y-14379103D02*
X10631729Y-14398150D01*
X10631729Y-14398150D02*
X10622205Y-14407674D01*
X10622205Y-14407674D02*
X10603158Y-14417198D01*
X10603158Y-14417198D02*
X10565063Y-14417198D01*
X10565063Y-14417198D02*
X10546015Y-14426722D01*
X10546015Y-14426722D02*
X10536491Y-14436246D01*
X10536491Y-14436246D02*
X10526967Y-14455293D01*
X10526967Y-14455293D02*
X10526967Y-14493388D01*
X10526967Y-14493388D02*
X10536491Y-14512436D01*
X10536491Y-14512436D02*
X10546015Y-14521960D01*
X10546015Y-14521960D02*
X10565063Y-14531484D01*
X10565063Y-14531484D02*
X10603158Y-14531484D01*
X10603158Y-14531484D02*
X10622205Y-14521960D01*
X10622205Y-14521960D02*
X10631729Y-14512436D01*
X10631729Y-14512436D02*
X10641253Y-14493388D01*
X10641253Y-14493388D02*
X10641253Y-14455293D01*
X10641253Y-14455293D02*
X10631729Y-14436246D01*
X10631729Y-14436246D02*
X10622205Y-14426722D01*
X10622205Y-14426722D02*
X10603158Y-14417198D01*
X10765063Y-14331484D02*
X10784110Y-14331484D01*
X10784110Y-14331484D02*
X10803158Y-14341008D01*
X10803158Y-14341008D02*
X10812682Y-14350531D01*
X10812682Y-14350531D02*
X10822205Y-14369579D01*
X10822205Y-14369579D02*
X10831729Y-14407674D01*
X10831729Y-14407674D02*
X10831729Y-14455293D01*
X10831729Y-14455293D02*
X10822205Y-14493388D01*
X10822205Y-14493388D02*
X10812682Y-14512436D01*
X10812682Y-14512436D02*
X10803158Y-14521960D01*
X10803158Y-14521960D02*
X10784110Y-14531484D01*
X10784110Y-14531484D02*
X10765063Y-14531484D01*
X10765063Y-14531484D02*
X10746015Y-14521960D01*
X10746015Y-14521960D02*
X10736491Y-14512436D01*
X10736491Y-14512436D02*
X10726967Y-14493388D01*
X10726967Y-14493388D02*
X10717444Y-14455293D01*
X10717444Y-14455293D02*
X10717444Y-14407674D01*
X10717444Y-14407674D02*
X10726967Y-14369579D01*
X10726967Y-14369579D02*
X10736491Y-14350531D01*
X10736491Y-14350531D02*
X10746015Y-14341008D01*
X10746015Y-14341008D02*
X10765063Y-14331484D01*
X10955539Y-14331484D02*
X10974586Y-14331484D01*
X10974586Y-14331484D02*
X10993634Y-14341008D01*
X10993634Y-14341008D02*
X11003158Y-14350531D01*
X11003158Y-14350531D02*
X11012682Y-14369579D01*
X11012682Y-14369579D02*
X11022205Y-14407674D01*
X11022205Y-14407674D02*
X11022205Y-14455293D01*
X11022205Y-14455293D02*
X11012682Y-14493388D01*
X11012682Y-14493388D02*
X11003158Y-14512436D01*
X11003158Y-14512436D02*
X10993634Y-14521960D01*
X10993634Y-14521960D02*
X10974586Y-14531484D01*
X10974586Y-14531484D02*
X10955539Y-14531484D01*
X10955539Y-14531484D02*
X10936491Y-14521960D01*
X10936491Y-14521960D02*
X10926967Y-14512436D01*
X10926967Y-14512436D02*
X10917444Y-14493388D01*
X10917444Y-14493388D02*
X10907920Y-14455293D01*
X10907920Y-14455293D02*
X10907920Y-14407674D01*
X10907920Y-14407674D02*
X10917444Y-14369579D01*
X10917444Y-14369579D02*
X10926967Y-14350531D01*
X10926967Y-14350531D02*
X10936491Y-14341008D01*
X10936491Y-14341008D02*
X10955539Y-14331484D01*
X11107920Y-14531484D02*
X11107920Y-14398150D01*
X11107920Y-14417198D02*
X11117444Y-14407674D01*
X11117444Y-14407674D02*
X11136491Y-14398150D01*
X11136491Y-14398150D02*
X11165063Y-14398150D01*
X11165063Y-14398150D02*
X11184110Y-14407674D01*
X11184110Y-14407674D02*
X11193634Y-14426722D01*
X11193634Y-14426722D02*
X11193634Y-14531484D01*
X11193634Y-14426722D02*
X11203158Y-14407674D01*
X11203158Y-14407674D02*
X11222205Y-14398150D01*
X11222205Y-14398150D02*
X11250777Y-14398150D01*
X11250777Y-14398150D02*
X11269824Y-14407674D01*
X11269824Y-14407674D02*
X11279348Y-14426722D01*
X11279348Y-14426722D02*
X11279348Y-14531484D01*
X11374586Y-14531484D02*
X11374586Y-14398150D01*
X11374586Y-14417198D02*
X11384110Y-14407674D01*
X11384110Y-14407674D02*
X11403158Y-14398150D01*
X11403158Y-14398150D02*
X11431729Y-14398150D01*
X11431729Y-14398150D02*
X11450777Y-14407674D01*
X11450777Y-14407674D02*
X11460301Y-14426722D01*
X11460301Y-14426722D02*
X11460301Y-14531484D01*
X11460301Y-14426722D02*
X11469824Y-14407674D01*
X11469824Y-14407674D02*
X11488872Y-14398150D01*
X11488872Y-14398150D02*
X11517443Y-14398150D01*
X11517443Y-14398150D02*
X11536491Y-14407674D01*
X11536491Y-14407674D02*
X11546015Y-14426722D01*
X11546015Y-14426722D02*
X11546015Y-14531484D01*
X11936491Y-14321960D02*
X11765063Y-14579103D01*
X12193634Y-14331484D02*
X12212682Y-14331484D01*
X12212682Y-14331484D02*
X12231729Y-14341008D01*
X12231729Y-14341008D02*
X12241253Y-14350531D01*
X12241253Y-14350531D02*
X12250777Y-14369579D01*
X12250777Y-14369579D02*
X12260301Y-14407674D01*
X12260301Y-14407674D02*
X12260301Y-14455293D01*
X12260301Y-14455293D02*
X12250777Y-14493388D01*
X12250777Y-14493388D02*
X12241253Y-14512436D01*
X12241253Y-14512436D02*
X12231729Y-14521960D01*
X12231729Y-14521960D02*
X12212682Y-14531484D01*
X12212682Y-14531484D02*
X12193634Y-14531484D01*
X12193634Y-14531484D02*
X12174586Y-14521960D01*
X12174586Y-14521960D02*
X12165063Y-14512436D01*
X12165063Y-14512436D02*
X12155539Y-14493388D01*
X12155539Y-14493388D02*
X12146015Y-14455293D01*
X12146015Y-14455293D02*
X12146015Y-14407674D01*
X12146015Y-14407674D02*
X12155539Y-14369579D01*
X12155539Y-14369579D02*
X12165063Y-14350531D01*
X12165063Y-14350531D02*
X12174586Y-14341008D01*
X12174586Y-14341008D02*
X12193634Y-14331484D01*
X12346015Y-14512436D02*
X12355539Y-14521960D01*
X12355539Y-14521960D02*
X12346015Y-14531484D01*
X12346015Y-14531484D02*
X12336491Y-14521960D01*
X12336491Y-14521960D02*
X12346015Y-14512436D01*
X12346015Y-14512436D02*
X12346015Y-14531484D01*
X12479348Y-14331484D02*
X12498396Y-14331484D01*
X12498396Y-14331484D02*
X12517444Y-14341008D01*
X12517444Y-14341008D02*
X12526967Y-14350531D01*
X12526967Y-14350531D02*
X12536491Y-14369579D01*
X12536491Y-14369579D02*
X12546015Y-14407674D01*
X12546015Y-14407674D02*
X12546015Y-14455293D01*
X12546015Y-14455293D02*
X12536491Y-14493388D01*
X12536491Y-14493388D02*
X12526967Y-14512436D01*
X12526967Y-14512436D02*
X12517444Y-14521960D01*
X12517444Y-14521960D02*
X12498396Y-14531484D01*
X12498396Y-14531484D02*
X12479348Y-14531484D01*
X12479348Y-14531484D02*
X12460301Y-14521960D01*
X12460301Y-14521960D02*
X12450777Y-14512436D01*
X12450777Y-14512436D02*
X12441253Y-14493388D01*
X12441253Y-14493388D02*
X12431729Y-14455293D01*
X12431729Y-14455293D02*
X12431729Y-14407674D01*
X12431729Y-14407674D02*
X12441253Y-14369579D01*
X12441253Y-14369579D02*
X12450777Y-14350531D01*
X12450777Y-14350531D02*
X12460301Y-14341008D01*
X12460301Y-14341008D02*
X12479348Y-14331484D01*
X12612682Y-14331484D02*
X12736491Y-14331484D01*
X12736491Y-14331484D02*
X12669825Y-14407674D01*
X12669825Y-14407674D02*
X12698396Y-14407674D01*
X12698396Y-14407674D02*
X12717444Y-14417198D01*
X12717444Y-14417198D02*
X12726967Y-14426722D01*
X12726967Y-14426722D02*
X12736491Y-14445769D01*
X12736491Y-14445769D02*
X12736491Y-14493388D01*
X12736491Y-14493388D02*
X12726967Y-14512436D01*
X12726967Y-14512436D02*
X12717444Y-14521960D01*
X12717444Y-14521960D02*
X12698396Y-14531484D01*
X12698396Y-14531484D02*
X12641253Y-14531484D01*
X12641253Y-14531484D02*
X12622206Y-14521960D01*
X12622206Y-14521960D02*
X12612682Y-14512436D01*
X12926967Y-14531484D02*
X12812682Y-14531484D01*
X12869825Y-14531484D02*
X12869825Y-14331484D01*
X12869825Y-14331484D02*
X12850777Y-14360055D01*
X12850777Y-14360055D02*
X12831729Y-14379103D01*
X12831729Y-14379103D02*
X12812682Y-14388627D01*
X13107920Y-14331484D02*
X13012682Y-14331484D01*
X13012682Y-14331484D02*
X13003158Y-14426722D01*
X13003158Y-14426722D02*
X13012682Y-14417198D01*
X13012682Y-14417198D02*
X13031729Y-14407674D01*
X13031729Y-14407674D02*
X13079348Y-14407674D01*
X13079348Y-14407674D02*
X13098396Y-14417198D01*
X13098396Y-14417198D02*
X13107920Y-14426722D01*
X13107920Y-14426722D02*
X13117444Y-14445769D01*
X13117444Y-14445769D02*
X13117444Y-14493388D01*
X13117444Y-14493388D02*
X13107920Y-14512436D01*
X13107920Y-14512436D02*
X13098396Y-14521960D01*
X13098396Y-14521960D02*
X13079348Y-14531484D01*
X13079348Y-14531484D02*
X13031729Y-14531484D01*
X13031729Y-14531484D02*
X13012682Y-14521960D01*
X13012682Y-14521960D02*
X13003158Y-14512436D01*
X13193634Y-14331484D02*
X13193634Y-14369579D01*
X13269825Y-14331484D02*
X13269825Y-14369579D01*
X13565063Y-14607674D02*
X13555539Y-14598150D01*
X13555539Y-14598150D02*
X13536491Y-14569579D01*
X13536491Y-14569579D02*
X13526968Y-14550531D01*
X13526968Y-14550531D02*
X13517444Y-14521960D01*
X13517444Y-14521960D02*
X13507920Y-14474341D01*
X13507920Y-14474341D02*
X13507920Y-14436246D01*
X13507920Y-14436246D02*
X13517444Y-14388627D01*
X13517444Y-14388627D02*
X13526968Y-14360055D01*
X13526968Y-14360055D02*
X13536491Y-14341008D01*
X13536491Y-14341008D02*
X13555539Y-14312436D01*
X13555539Y-14312436D02*
X13565063Y-14302912D01*
X13726968Y-14398150D02*
X13726968Y-14531484D01*
X13679348Y-14321960D02*
X13631729Y-14464817D01*
X13631729Y-14464817D02*
X13755539Y-14464817D01*
X13812682Y-14331484D02*
X13936491Y-14331484D01*
X13936491Y-14331484D02*
X13869825Y-14407674D01*
X13869825Y-14407674D02*
X13898396Y-14407674D01*
X13898396Y-14407674D02*
X13917444Y-14417198D01*
X13917444Y-14417198D02*
X13926968Y-14426722D01*
X13926968Y-14426722D02*
X13936491Y-14445769D01*
X13936491Y-14445769D02*
X13936491Y-14493388D01*
X13936491Y-14493388D02*
X13926968Y-14512436D01*
X13926968Y-14512436D02*
X13917444Y-14521960D01*
X13917444Y-14521960D02*
X13898396Y-14531484D01*
X13898396Y-14531484D02*
X13841253Y-14531484D01*
X13841253Y-14531484D02*
X13822206Y-14521960D01*
X13822206Y-14521960D02*
X13812682Y-14512436D01*
X14174587Y-14531484D02*
X14174587Y-14331484D01*
X14260301Y-14531484D02*
X14260301Y-14426722D01*
X14260301Y-14426722D02*
X14250777Y-14407674D01*
X14250777Y-14407674D02*
X14231730Y-14398150D01*
X14231730Y-14398150D02*
X14203158Y-14398150D01*
X14203158Y-14398150D02*
X14184110Y-14407674D01*
X14184110Y-14407674D02*
X14174587Y-14417198D01*
X14384110Y-14531484D02*
X14365063Y-14521960D01*
X14365063Y-14521960D02*
X14355539Y-14512436D01*
X14355539Y-14512436D02*
X14346015Y-14493388D01*
X14346015Y-14493388D02*
X14346015Y-14436246D01*
X14346015Y-14436246D02*
X14355539Y-14417198D01*
X14355539Y-14417198D02*
X14365063Y-14407674D01*
X14365063Y-14407674D02*
X14384110Y-14398150D01*
X14384110Y-14398150D02*
X14412682Y-14398150D01*
X14412682Y-14398150D02*
X14431730Y-14407674D01*
X14431730Y-14407674D02*
X14441253Y-14417198D01*
X14441253Y-14417198D02*
X14450777Y-14436246D01*
X14450777Y-14436246D02*
X14450777Y-14493388D01*
X14450777Y-14493388D02*
X14441253Y-14512436D01*
X14441253Y-14512436D02*
X14431730Y-14521960D01*
X14431730Y-14521960D02*
X14412682Y-14531484D01*
X14412682Y-14531484D02*
X14384110Y-14531484D01*
X14565063Y-14531484D02*
X14546015Y-14521960D01*
X14546015Y-14521960D02*
X14536491Y-14502912D01*
X14536491Y-14502912D02*
X14536491Y-14331484D01*
X14717444Y-14521960D02*
X14698396Y-14531484D01*
X14698396Y-14531484D02*
X14660301Y-14531484D01*
X14660301Y-14531484D02*
X14641253Y-14521960D01*
X14641253Y-14521960D02*
X14631730Y-14502912D01*
X14631730Y-14502912D02*
X14631730Y-14426722D01*
X14631730Y-14426722D02*
X14641253Y-14407674D01*
X14641253Y-14407674D02*
X14660301Y-14398150D01*
X14660301Y-14398150D02*
X14698396Y-14398150D01*
X14698396Y-14398150D02*
X14717444Y-14407674D01*
X14717444Y-14407674D02*
X14726968Y-14426722D01*
X14726968Y-14426722D02*
X14726968Y-14445769D01*
X14726968Y-14445769D02*
X14631730Y-14464817D01*
X14803158Y-14521960D02*
X14822206Y-14531484D01*
X14822206Y-14531484D02*
X14860301Y-14531484D01*
X14860301Y-14531484D02*
X14879349Y-14521960D01*
X14879349Y-14521960D02*
X14888872Y-14502912D01*
X14888872Y-14502912D02*
X14888872Y-14493388D01*
X14888872Y-14493388D02*
X14879349Y-14474341D01*
X14879349Y-14474341D02*
X14860301Y-14464817D01*
X14860301Y-14464817D02*
X14831730Y-14464817D01*
X14831730Y-14464817D02*
X14812682Y-14455293D01*
X14812682Y-14455293D02*
X14803158Y-14436246D01*
X14803158Y-14436246D02*
X14803158Y-14426722D01*
X14803158Y-14426722D02*
X14812682Y-14407674D01*
X14812682Y-14407674D02*
X14831730Y-14398150D01*
X14831730Y-14398150D02*
X14860301Y-14398150D01*
X14860301Y-14398150D02*
X14879349Y-14407674D01*
X14955539Y-14607674D02*
X14965063Y-14598150D01*
X14965063Y-14598150D02*
X14984111Y-14569579D01*
X14984111Y-14569579D02*
X14993634Y-14550531D01*
X14993634Y-14550531D02*
X15003158Y-14521960D01*
X15003158Y-14521960D02*
X15012682Y-14474341D01*
X15012682Y-14474341D02*
X15012682Y-14436246D01*
X15012682Y-14436246D02*
X15003158Y-14388627D01*
X15003158Y-14388627D02*
X14993634Y-14360055D01*
X14993634Y-14360055D02*
X14984111Y-14341008D01*
X14984111Y-14341008D02*
X14965063Y-14312436D01*
X14965063Y-14312436D02*
X14955539Y-14302912D01*
D13*
X9905000Y-14661500D02*
X9990000Y-14746500D01*
X9990000Y-14661500D02*
X9905000Y-14746500D01*
X9947500Y-14661500D02*
X9947500Y-14746500D01*
X9905000Y-14704000D02*
X9990000Y-14704000D01*
D11*
X10288872Y-14595484D02*
X10307920Y-14595484D01*
X10307920Y-14595484D02*
X10326967Y-14605008D01*
X10326967Y-14605008D02*
X10336491Y-14614531D01*
X10336491Y-14614531D02*
X10346015Y-14633579D01*
X10346015Y-14633579D02*
X10355539Y-14671674D01*
X10355539Y-14671674D02*
X10355539Y-14719293D01*
X10355539Y-14719293D02*
X10346015Y-14757388D01*
X10346015Y-14757388D02*
X10336491Y-14776436D01*
X10336491Y-14776436D02*
X10326967Y-14785960D01*
X10326967Y-14785960D02*
X10307920Y-14795484D01*
X10307920Y-14795484D02*
X10288872Y-14795484D01*
X10288872Y-14795484D02*
X10269824Y-14785960D01*
X10269824Y-14785960D02*
X10260301Y-14776436D01*
X10260301Y-14776436D02*
X10250777Y-14757388D01*
X10250777Y-14757388D02*
X10241253Y-14719293D01*
X10241253Y-14719293D02*
X10241253Y-14671674D01*
X10241253Y-14671674D02*
X10250777Y-14633579D01*
X10250777Y-14633579D02*
X10260301Y-14614531D01*
X10260301Y-14614531D02*
X10269824Y-14605008D01*
X10269824Y-14605008D02*
X10288872Y-14595484D01*
X10441253Y-14776436D02*
X10450777Y-14785960D01*
X10450777Y-14785960D02*
X10441253Y-14795484D01*
X10441253Y-14795484D02*
X10431729Y-14785960D01*
X10431729Y-14785960D02*
X10441253Y-14776436D01*
X10441253Y-14776436D02*
X10441253Y-14795484D01*
X10565063Y-14681198D02*
X10546015Y-14671674D01*
X10546015Y-14671674D02*
X10536491Y-14662150D01*
X10536491Y-14662150D02*
X10526967Y-14643103D01*
X10526967Y-14643103D02*
X10526967Y-14633579D01*
X10526967Y-14633579D02*
X10536491Y-14614531D01*
X10536491Y-14614531D02*
X10546015Y-14605008D01*
X10546015Y-14605008D02*
X10565063Y-14595484D01*
X10565063Y-14595484D02*
X10603158Y-14595484D01*
X10603158Y-14595484D02*
X10622205Y-14605008D01*
X10622205Y-14605008D02*
X10631729Y-14614531D01*
X10631729Y-14614531D02*
X10641253Y-14633579D01*
X10641253Y-14633579D02*
X10641253Y-14643103D01*
X10641253Y-14643103D02*
X10631729Y-14662150D01*
X10631729Y-14662150D02*
X10622205Y-14671674D01*
X10622205Y-14671674D02*
X10603158Y-14681198D01*
X10603158Y-14681198D02*
X10565063Y-14681198D01*
X10565063Y-14681198D02*
X10546015Y-14690722D01*
X10546015Y-14690722D02*
X10536491Y-14700246D01*
X10536491Y-14700246D02*
X10526967Y-14719293D01*
X10526967Y-14719293D02*
X10526967Y-14757388D01*
X10526967Y-14757388D02*
X10536491Y-14776436D01*
X10536491Y-14776436D02*
X10546015Y-14785960D01*
X10546015Y-14785960D02*
X10565063Y-14795484D01*
X10565063Y-14795484D02*
X10603158Y-14795484D01*
X10603158Y-14795484D02*
X10622205Y-14785960D01*
X10622205Y-14785960D02*
X10631729Y-14776436D01*
X10631729Y-14776436D02*
X10641253Y-14757388D01*
X10641253Y-14757388D02*
X10641253Y-14719293D01*
X10641253Y-14719293D02*
X10631729Y-14700246D01*
X10631729Y-14700246D02*
X10622205Y-14690722D01*
X10622205Y-14690722D02*
X10603158Y-14681198D01*
X10822205Y-14595484D02*
X10726967Y-14595484D01*
X10726967Y-14595484D02*
X10717444Y-14690722D01*
X10717444Y-14690722D02*
X10726967Y-14681198D01*
X10726967Y-14681198D02*
X10746015Y-14671674D01*
X10746015Y-14671674D02*
X10793634Y-14671674D01*
X10793634Y-14671674D02*
X10812682Y-14681198D01*
X10812682Y-14681198D02*
X10822205Y-14690722D01*
X10822205Y-14690722D02*
X10831729Y-14709769D01*
X10831729Y-14709769D02*
X10831729Y-14757388D01*
X10831729Y-14757388D02*
X10822205Y-14776436D01*
X10822205Y-14776436D02*
X10812682Y-14785960D01*
X10812682Y-14785960D02*
X10793634Y-14795484D01*
X10793634Y-14795484D02*
X10746015Y-14795484D01*
X10746015Y-14795484D02*
X10726967Y-14785960D01*
X10726967Y-14785960D02*
X10717444Y-14776436D01*
X10955539Y-14595484D02*
X10974586Y-14595484D01*
X10974586Y-14595484D02*
X10993634Y-14605008D01*
X10993634Y-14605008D02*
X11003158Y-14614531D01*
X11003158Y-14614531D02*
X11012682Y-14633579D01*
X11012682Y-14633579D02*
X11022205Y-14671674D01*
X11022205Y-14671674D02*
X11022205Y-14719293D01*
X11022205Y-14719293D02*
X11012682Y-14757388D01*
X11012682Y-14757388D02*
X11003158Y-14776436D01*
X11003158Y-14776436D02*
X10993634Y-14785960D01*
X10993634Y-14785960D02*
X10974586Y-14795484D01*
X10974586Y-14795484D02*
X10955539Y-14795484D01*
X10955539Y-14795484D02*
X10936491Y-14785960D01*
X10936491Y-14785960D02*
X10926967Y-14776436D01*
X10926967Y-14776436D02*
X10917444Y-14757388D01*
X10917444Y-14757388D02*
X10907920Y-14719293D01*
X10907920Y-14719293D02*
X10907920Y-14671674D01*
X10907920Y-14671674D02*
X10917444Y-14633579D01*
X10917444Y-14633579D02*
X10926967Y-14614531D01*
X10926967Y-14614531D02*
X10936491Y-14605008D01*
X10936491Y-14605008D02*
X10955539Y-14595484D01*
X11107920Y-14795484D02*
X11107920Y-14662150D01*
X11107920Y-14681198D02*
X11117444Y-14671674D01*
X11117444Y-14671674D02*
X11136491Y-14662150D01*
X11136491Y-14662150D02*
X11165063Y-14662150D01*
X11165063Y-14662150D02*
X11184110Y-14671674D01*
X11184110Y-14671674D02*
X11193634Y-14690722D01*
X11193634Y-14690722D02*
X11193634Y-14795484D01*
X11193634Y-14690722D02*
X11203158Y-14671674D01*
X11203158Y-14671674D02*
X11222205Y-14662150D01*
X11222205Y-14662150D02*
X11250777Y-14662150D01*
X11250777Y-14662150D02*
X11269824Y-14671674D01*
X11269824Y-14671674D02*
X11279348Y-14690722D01*
X11279348Y-14690722D02*
X11279348Y-14795484D01*
X11374586Y-14795484D02*
X11374586Y-14662150D01*
X11374586Y-14681198D02*
X11384110Y-14671674D01*
X11384110Y-14671674D02*
X11403158Y-14662150D01*
X11403158Y-14662150D02*
X11431729Y-14662150D01*
X11431729Y-14662150D02*
X11450777Y-14671674D01*
X11450777Y-14671674D02*
X11460301Y-14690722D01*
X11460301Y-14690722D02*
X11460301Y-14795484D01*
X11460301Y-14690722D02*
X11469824Y-14671674D01*
X11469824Y-14671674D02*
X11488872Y-14662150D01*
X11488872Y-14662150D02*
X11517443Y-14662150D01*
X11517443Y-14662150D02*
X11536491Y-14671674D01*
X11536491Y-14671674D02*
X11546015Y-14690722D01*
X11546015Y-14690722D02*
X11546015Y-14795484D01*
X11936491Y-14585960D02*
X11765063Y-14843103D01*
X12193634Y-14595484D02*
X12212682Y-14595484D01*
X12212682Y-14595484D02*
X12231729Y-14605008D01*
X12231729Y-14605008D02*
X12241253Y-14614531D01*
X12241253Y-14614531D02*
X12250777Y-14633579D01*
X12250777Y-14633579D02*
X12260301Y-14671674D01*
X12260301Y-14671674D02*
X12260301Y-14719293D01*
X12260301Y-14719293D02*
X12250777Y-14757388D01*
X12250777Y-14757388D02*
X12241253Y-14776436D01*
X12241253Y-14776436D02*
X12231729Y-14785960D01*
X12231729Y-14785960D02*
X12212682Y-14795484D01*
X12212682Y-14795484D02*
X12193634Y-14795484D01*
X12193634Y-14795484D02*
X12174586Y-14785960D01*
X12174586Y-14785960D02*
X12165063Y-14776436D01*
X12165063Y-14776436D02*
X12155539Y-14757388D01*
X12155539Y-14757388D02*
X12146015Y-14719293D01*
X12146015Y-14719293D02*
X12146015Y-14671674D01*
X12146015Y-14671674D02*
X12155539Y-14633579D01*
X12155539Y-14633579D02*
X12165063Y-14614531D01*
X12165063Y-14614531D02*
X12174586Y-14605008D01*
X12174586Y-14605008D02*
X12193634Y-14595484D01*
X12346015Y-14776436D02*
X12355539Y-14785960D01*
X12355539Y-14785960D02*
X12346015Y-14795484D01*
X12346015Y-14795484D02*
X12336491Y-14785960D01*
X12336491Y-14785960D02*
X12346015Y-14776436D01*
X12346015Y-14776436D02*
X12346015Y-14795484D01*
X12479348Y-14595484D02*
X12498396Y-14595484D01*
X12498396Y-14595484D02*
X12517444Y-14605008D01*
X12517444Y-14605008D02*
X12526967Y-14614531D01*
X12526967Y-14614531D02*
X12536491Y-14633579D01*
X12536491Y-14633579D02*
X12546015Y-14671674D01*
X12546015Y-14671674D02*
X12546015Y-14719293D01*
X12546015Y-14719293D02*
X12536491Y-14757388D01*
X12536491Y-14757388D02*
X12526967Y-14776436D01*
X12526967Y-14776436D02*
X12517444Y-14785960D01*
X12517444Y-14785960D02*
X12498396Y-14795484D01*
X12498396Y-14795484D02*
X12479348Y-14795484D01*
X12479348Y-14795484D02*
X12460301Y-14785960D01*
X12460301Y-14785960D02*
X12450777Y-14776436D01*
X12450777Y-14776436D02*
X12441253Y-14757388D01*
X12441253Y-14757388D02*
X12431729Y-14719293D01*
X12431729Y-14719293D02*
X12431729Y-14671674D01*
X12431729Y-14671674D02*
X12441253Y-14633579D01*
X12441253Y-14633579D02*
X12450777Y-14614531D01*
X12450777Y-14614531D02*
X12460301Y-14605008D01*
X12460301Y-14605008D02*
X12479348Y-14595484D01*
X12612682Y-14595484D02*
X12736491Y-14595484D01*
X12736491Y-14595484D02*
X12669825Y-14671674D01*
X12669825Y-14671674D02*
X12698396Y-14671674D01*
X12698396Y-14671674D02*
X12717444Y-14681198D01*
X12717444Y-14681198D02*
X12726967Y-14690722D01*
X12726967Y-14690722D02*
X12736491Y-14709769D01*
X12736491Y-14709769D02*
X12736491Y-14757388D01*
X12736491Y-14757388D02*
X12726967Y-14776436D01*
X12726967Y-14776436D02*
X12717444Y-14785960D01*
X12717444Y-14785960D02*
X12698396Y-14795484D01*
X12698396Y-14795484D02*
X12641253Y-14795484D01*
X12641253Y-14795484D02*
X12622206Y-14785960D01*
X12622206Y-14785960D02*
X12612682Y-14776436D01*
X12803158Y-14595484D02*
X12926967Y-14595484D01*
X12926967Y-14595484D02*
X12860301Y-14671674D01*
X12860301Y-14671674D02*
X12888872Y-14671674D01*
X12888872Y-14671674D02*
X12907920Y-14681198D01*
X12907920Y-14681198D02*
X12917444Y-14690722D01*
X12917444Y-14690722D02*
X12926967Y-14709769D01*
X12926967Y-14709769D02*
X12926967Y-14757388D01*
X12926967Y-14757388D02*
X12917444Y-14776436D01*
X12917444Y-14776436D02*
X12907920Y-14785960D01*
X12907920Y-14785960D02*
X12888872Y-14795484D01*
X12888872Y-14795484D02*
X12831729Y-14795484D01*
X12831729Y-14795484D02*
X12812682Y-14785960D01*
X12812682Y-14785960D02*
X12803158Y-14776436D01*
X13107920Y-14595484D02*
X13012682Y-14595484D01*
X13012682Y-14595484D02*
X13003158Y-14690722D01*
X13003158Y-14690722D02*
X13012682Y-14681198D01*
X13012682Y-14681198D02*
X13031729Y-14671674D01*
X13031729Y-14671674D02*
X13079348Y-14671674D01*
X13079348Y-14671674D02*
X13098396Y-14681198D01*
X13098396Y-14681198D02*
X13107920Y-14690722D01*
X13107920Y-14690722D02*
X13117444Y-14709769D01*
X13117444Y-14709769D02*
X13117444Y-14757388D01*
X13117444Y-14757388D02*
X13107920Y-14776436D01*
X13107920Y-14776436D02*
X13098396Y-14785960D01*
X13098396Y-14785960D02*
X13079348Y-14795484D01*
X13079348Y-14795484D02*
X13031729Y-14795484D01*
X13031729Y-14795484D02*
X13012682Y-14785960D01*
X13012682Y-14785960D02*
X13003158Y-14776436D01*
X13193634Y-14595484D02*
X13193634Y-14633579D01*
X13269825Y-14595484D02*
X13269825Y-14633579D01*
X13565063Y-14871674D02*
X13555539Y-14862150D01*
X13555539Y-14862150D02*
X13536491Y-14833579D01*
X13536491Y-14833579D02*
X13526968Y-14814531D01*
X13526968Y-14814531D02*
X13517444Y-14785960D01*
X13517444Y-14785960D02*
X13507920Y-14738341D01*
X13507920Y-14738341D02*
X13507920Y-14700246D01*
X13507920Y-14700246D02*
X13517444Y-14652627D01*
X13517444Y-14652627D02*
X13526968Y-14624055D01*
X13526968Y-14624055D02*
X13536491Y-14605008D01*
X13536491Y-14605008D02*
X13555539Y-14576436D01*
X13555539Y-14576436D02*
X13565063Y-14566912D01*
X13746015Y-14795484D02*
X13631729Y-14795484D01*
X13688872Y-14795484D02*
X13688872Y-14595484D01*
X13688872Y-14595484D02*
X13669825Y-14624055D01*
X13669825Y-14624055D02*
X13650777Y-14643103D01*
X13650777Y-14643103D02*
X13631729Y-14652627D01*
X13917444Y-14662150D02*
X13917444Y-14795484D01*
X13869825Y-14585960D02*
X13822206Y-14728817D01*
X13822206Y-14728817D02*
X13946015Y-14728817D01*
X14174587Y-14795484D02*
X14174587Y-14595484D01*
X14260301Y-14795484D02*
X14260301Y-14690722D01*
X14260301Y-14690722D02*
X14250777Y-14671674D01*
X14250777Y-14671674D02*
X14231730Y-14662150D01*
X14231730Y-14662150D02*
X14203158Y-14662150D01*
X14203158Y-14662150D02*
X14184110Y-14671674D01*
X14184110Y-14671674D02*
X14174587Y-14681198D01*
X14384110Y-14795484D02*
X14365063Y-14785960D01*
X14365063Y-14785960D02*
X14355539Y-14776436D01*
X14355539Y-14776436D02*
X14346015Y-14757388D01*
X14346015Y-14757388D02*
X14346015Y-14700246D01*
X14346015Y-14700246D02*
X14355539Y-14681198D01*
X14355539Y-14681198D02*
X14365063Y-14671674D01*
X14365063Y-14671674D02*
X14384110Y-14662150D01*
X14384110Y-14662150D02*
X14412682Y-14662150D01*
X14412682Y-14662150D02*
X14431730Y-14671674D01*
X14431730Y-14671674D02*
X14441253Y-14681198D01*
X14441253Y-14681198D02*
X14450777Y-14700246D01*
X14450777Y-14700246D02*
X14450777Y-14757388D01*
X14450777Y-14757388D02*
X14441253Y-14776436D01*
X14441253Y-14776436D02*
X14431730Y-14785960D01*
X14431730Y-14785960D02*
X14412682Y-14795484D01*
X14412682Y-14795484D02*
X14384110Y-14795484D01*
X14565063Y-14795484D02*
X14546015Y-14785960D01*
X14546015Y-14785960D02*
X14536491Y-14766912D01*
X14536491Y-14766912D02*
X14536491Y-14595484D01*
X14717444Y-14785960D02*
X14698396Y-14795484D01*
X14698396Y-14795484D02*
X14660301Y-14795484D01*
X14660301Y-14795484D02*
X14641253Y-14785960D01*
X14641253Y-14785960D02*
X14631730Y-14766912D01*
X14631730Y-14766912D02*
X14631730Y-14690722D01*
X14631730Y-14690722D02*
X14641253Y-14671674D01*
X14641253Y-14671674D02*
X14660301Y-14662150D01*
X14660301Y-14662150D02*
X14698396Y-14662150D01*
X14698396Y-14662150D02*
X14717444Y-14671674D01*
X14717444Y-14671674D02*
X14726968Y-14690722D01*
X14726968Y-14690722D02*
X14726968Y-14709769D01*
X14726968Y-14709769D02*
X14631730Y-14728817D01*
X14803158Y-14785960D02*
X14822206Y-14795484D01*
X14822206Y-14795484D02*
X14860301Y-14795484D01*
X14860301Y-14795484D02*
X14879349Y-14785960D01*
X14879349Y-14785960D02*
X14888872Y-14766912D01*
X14888872Y-14766912D02*
X14888872Y-14757388D01*
X14888872Y-14757388D02*
X14879349Y-14738341D01*
X14879349Y-14738341D02*
X14860301Y-14728817D01*
X14860301Y-14728817D02*
X14831730Y-14728817D01*
X14831730Y-14728817D02*
X14812682Y-14719293D01*
X14812682Y-14719293D02*
X14803158Y-14700246D01*
X14803158Y-14700246D02*
X14803158Y-14690722D01*
X14803158Y-14690722D02*
X14812682Y-14671674D01*
X14812682Y-14671674D02*
X14831730Y-14662150D01*
X14831730Y-14662150D02*
X14860301Y-14662150D01*
X14860301Y-14662150D02*
X14879349Y-14671674D01*
X14955539Y-14871674D02*
X14965063Y-14862150D01*
X14965063Y-14862150D02*
X14984111Y-14833579D01*
X14984111Y-14833579D02*
X14993634Y-14814531D01*
X14993634Y-14814531D02*
X15003158Y-14785960D01*
X15003158Y-14785960D02*
X15012682Y-14738341D01*
X15012682Y-14738341D02*
X15012682Y-14700246D01*
X15012682Y-14700246D02*
X15003158Y-14652627D01*
X15003158Y-14652627D02*
X14993634Y-14624055D01*
X14993634Y-14624055D02*
X14984111Y-14605008D01*
X14984111Y-14605008D02*
X14965063Y-14576436D01*
X14965063Y-14576436D02*
X14955539Y-14566912D01*
D13*
X9901100Y-14923550D02*
X9990000Y-15012450D01*
X9990000Y-14923550D02*
X9901100Y-15012450D01*
X9976981Y-14999431D02*
X9976981Y-14936569D01*
X9914119Y-14936569D01*
X9914119Y-14999431D01*
X9976981Y-14999431D01*
D11*
X10288872Y-14859484D02*
X10307920Y-14859484D01*
X10307920Y-14859484D02*
X10326967Y-14869008D01*
X10326967Y-14869008D02*
X10336491Y-14878531D01*
X10336491Y-14878531D02*
X10346015Y-14897579D01*
X10346015Y-14897579D02*
X10355539Y-14935674D01*
X10355539Y-14935674D02*
X10355539Y-14983293D01*
X10355539Y-14983293D02*
X10346015Y-15021388D01*
X10346015Y-15021388D02*
X10336491Y-15040436D01*
X10336491Y-15040436D02*
X10326967Y-15049960D01*
X10326967Y-15049960D02*
X10307920Y-15059484D01*
X10307920Y-15059484D02*
X10288872Y-15059484D01*
X10288872Y-15059484D02*
X10269824Y-15049960D01*
X10269824Y-15049960D02*
X10260301Y-15040436D01*
X10260301Y-15040436D02*
X10250777Y-15021388D01*
X10250777Y-15021388D02*
X10241253Y-14983293D01*
X10241253Y-14983293D02*
X10241253Y-14935674D01*
X10241253Y-14935674D02*
X10250777Y-14897579D01*
X10250777Y-14897579D02*
X10260301Y-14878531D01*
X10260301Y-14878531D02*
X10269824Y-14869008D01*
X10269824Y-14869008D02*
X10288872Y-14859484D01*
X10441253Y-15040436D02*
X10450777Y-15049960D01*
X10450777Y-15049960D02*
X10441253Y-15059484D01*
X10441253Y-15059484D02*
X10431729Y-15049960D01*
X10431729Y-15049960D02*
X10441253Y-15040436D01*
X10441253Y-15040436D02*
X10441253Y-15059484D01*
X10565063Y-14945198D02*
X10546015Y-14935674D01*
X10546015Y-14935674D02*
X10536491Y-14926150D01*
X10536491Y-14926150D02*
X10526967Y-14907103D01*
X10526967Y-14907103D02*
X10526967Y-14897579D01*
X10526967Y-14897579D02*
X10536491Y-14878531D01*
X10536491Y-14878531D02*
X10546015Y-14869008D01*
X10546015Y-14869008D02*
X10565063Y-14859484D01*
X10565063Y-14859484D02*
X10603158Y-14859484D01*
X10603158Y-14859484D02*
X10622205Y-14869008D01*
X10622205Y-14869008D02*
X10631729Y-14878531D01*
X10631729Y-14878531D02*
X10641253Y-14897579D01*
X10641253Y-14897579D02*
X10641253Y-14907103D01*
X10641253Y-14907103D02*
X10631729Y-14926150D01*
X10631729Y-14926150D02*
X10622205Y-14935674D01*
X10622205Y-14935674D02*
X10603158Y-14945198D01*
X10603158Y-14945198D02*
X10565063Y-14945198D01*
X10565063Y-14945198D02*
X10546015Y-14954722D01*
X10546015Y-14954722D02*
X10536491Y-14964246D01*
X10536491Y-14964246D02*
X10526967Y-14983293D01*
X10526967Y-14983293D02*
X10526967Y-15021388D01*
X10526967Y-15021388D02*
X10536491Y-15040436D01*
X10536491Y-15040436D02*
X10546015Y-15049960D01*
X10546015Y-15049960D02*
X10565063Y-15059484D01*
X10565063Y-15059484D02*
X10603158Y-15059484D01*
X10603158Y-15059484D02*
X10622205Y-15049960D01*
X10622205Y-15049960D02*
X10631729Y-15040436D01*
X10631729Y-15040436D02*
X10641253Y-15021388D01*
X10641253Y-15021388D02*
X10641253Y-14983293D01*
X10641253Y-14983293D02*
X10631729Y-14964246D01*
X10631729Y-14964246D02*
X10622205Y-14954722D01*
X10622205Y-14954722D02*
X10603158Y-14945198D01*
X10755539Y-14945198D02*
X10736491Y-14935674D01*
X10736491Y-14935674D02*
X10726967Y-14926150D01*
X10726967Y-14926150D02*
X10717444Y-14907103D01*
X10717444Y-14907103D02*
X10717444Y-14897579D01*
X10717444Y-14897579D02*
X10726967Y-14878531D01*
X10726967Y-14878531D02*
X10736491Y-14869008D01*
X10736491Y-14869008D02*
X10755539Y-14859484D01*
X10755539Y-14859484D02*
X10793634Y-14859484D01*
X10793634Y-14859484D02*
X10812682Y-14869008D01*
X10812682Y-14869008D02*
X10822205Y-14878531D01*
X10822205Y-14878531D02*
X10831729Y-14897579D01*
X10831729Y-14897579D02*
X10831729Y-14907103D01*
X10831729Y-14907103D02*
X10822205Y-14926150D01*
X10822205Y-14926150D02*
X10812682Y-14935674D01*
X10812682Y-14935674D02*
X10793634Y-14945198D01*
X10793634Y-14945198D02*
X10755539Y-14945198D01*
X10755539Y-14945198D02*
X10736491Y-14954722D01*
X10736491Y-14954722D02*
X10726967Y-14964246D01*
X10726967Y-14964246D02*
X10717444Y-14983293D01*
X10717444Y-14983293D02*
X10717444Y-15021388D01*
X10717444Y-15021388D02*
X10726967Y-15040436D01*
X10726967Y-15040436D02*
X10736491Y-15049960D01*
X10736491Y-15049960D02*
X10755539Y-15059484D01*
X10755539Y-15059484D02*
X10793634Y-15059484D01*
X10793634Y-15059484D02*
X10812682Y-15049960D01*
X10812682Y-15049960D02*
X10822205Y-15040436D01*
X10822205Y-15040436D02*
X10831729Y-15021388D01*
X10831729Y-15021388D02*
X10831729Y-14983293D01*
X10831729Y-14983293D02*
X10822205Y-14964246D01*
X10822205Y-14964246D02*
X10812682Y-14954722D01*
X10812682Y-14954722D02*
X10793634Y-14945198D01*
X10926967Y-15059484D02*
X10965063Y-15059484D01*
X10965063Y-15059484D02*
X10984110Y-15049960D01*
X10984110Y-15049960D02*
X10993634Y-15040436D01*
X10993634Y-15040436D02*
X11012682Y-15011865D01*
X11012682Y-15011865D02*
X11022205Y-14973769D01*
X11022205Y-14973769D02*
X11022205Y-14897579D01*
X11022205Y-14897579D02*
X11012682Y-14878531D01*
X11012682Y-14878531D02*
X11003158Y-14869008D01*
X11003158Y-14869008D02*
X10984110Y-14859484D01*
X10984110Y-14859484D02*
X10946015Y-14859484D01*
X10946015Y-14859484D02*
X10926967Y-14869008D01*
X10926967Y-14869008D02*
X10917444Y-14878531D01*
X10917444Y-14878531D02*
X10907920Y-14897579D01*
X10907920Y-14897579D02*
X10907920Y-14945198D01*
X10907920Y-14945198D02*
X10917444Y-14964246D01*
X10917444Y-14964246D02*
X10926967Y-14973769D01*
X10926967Y-14973769D02*
X10946015Y-14983293D01*
X10946015Y-14983293D02*
X10984110Y-14983293D01*
X10984110Y-14983293D02*
X11003158Y-14973769D01*
X11003158Y-14973769D02*
X11012682Y-14964246D01*
X11012682Y-14964246D02*
X11022205Y-14945198D01*
X11107920Y-15059484D02*
X11107920Y-14926150D01*
X11107920Y-14945198D02*
X11117444Y-14935674D01*
X11117444Y-14935674D02*
X11136491Y-14926150D01*
X11136491Y-14926150D02*
X11165063Y-14926150D01*
X11165063Y-14926150D02*
X11184110Y-14935674D01*
X11184110Y-14935674D02*
X11193634Y-14954722D01*
X11193634Y-14954722D02*
X11193634Y-15059484D01*
X11193634Y-14954722D02*
X11203158Y-14935674D01*
X11203158Y-14935674D02*
X11222205Y-14926150D01*
X11222205Y-14926150D02*
X11250777Y-14926150D01*
X11250777Y-14926150D02*
X11269824Y-14935674D01*
X11269824Y-14935674D02*
X11279348Y-14954722D01*
X11279348Y-14954722D02*
X11279348Y-15059484D01*
X11374586Y-15059484D02*
X11374586Y-14926150D01*
X11374586Y-14945198D02*
X11384110Y-14935674D01*
X11384110Y-14935674D02*
X11403158Y-14926150D01*
X11403158Y-14926150D02*
X11431729Y-14926150D01*
X11431729Y-14926150D02*
X11450777Y-14935674D01*
X11450777Y-14935674D02*
X11460301Y-14954722D01*
X11460301Y-14954722D02*
X11460301Y-15059484D01*
X11460301Y-14954722D02*
X11469824Y-14935674D01*
X11469824Y-14935674D02*
X11488872Y-14926150D01*
X11488872Y-14926150D02*
X11517443Y-14926150D01*
X11517443Y-14926150D02*
X11536491Y-14935674D01*
X11536491Y-14935674D02*
X11546015Y-14954722D01*
X11546015Y-14954722D02*
X11546015Y-15059484D01*
X11936491Y-14849960D02*
X11765063Y-15107103D01*
X12193634Y-14859484D02*
X12212682Y-14859484D01*
X12212682Y-14859484D02*
X12231729Y-14869008D01*
X12231729Y-14869008D02*
X12241253Y-14878531D01*
X12241253Y-14878531D02*
X12250777Y-14897579D01*
X12250777Y-14897579D02*
X12260301Y-14935674D01*
X12260301Y-14935674D02*
X12260301Y-14983293D01*
X12260301Y-14983293D02*
X12250777Y-15021388D01*
X12250777Y-15021388D02*
X12241253Y-15040436D01*
X12241253Y-15040436D02*
X12231729Y-15049960D01*
X12231729Y-15049960D02*
X12212682Y-15059484D01*
X12212682Y-15059484D02*
X12193634Y-15059484D01*
X12193634Y-15059484D02*
X12174586Y-15049960D01*
X12174586Y-15049960D02*
X12165063Y-15040436D01*
X12165063Y-15040436D02*
X12155539Y-15021388D01*
X12155539Y-15021388D02*
X12146015Y-14983293D01*
X12146015Y-14983293D02*
X12146015Y-14935674D01*
X12146015Y-14935674D02*
X12155539Y-14897579D01*
X12155539Y-14897579D02*
X12165063Y-14878531D01*
X12165063Y-14878531D02*
X12174586Y-14869008D01*
X12174586Y-14869008D02*
X12193634Y-14859484D01*
X12346015Y-15040436D02*
X12355539Y-15049960D01*
X12355539Y-15049960D02*
X12346015Y-15059484D01*
X12346015Y-15059484D02*
X12336491Y-15049960D01*
X12336491Y-15049960D02*
X12346015Y-15040436D01*
X12346015Y-15040436D02*
X12346015Y-15059484D01*
X12479348Y-14859484D02*
X12498396Y-14859484D01*
X12498396Y-14859484D02*
X12517444Y-14869008D01*
X12517444Y-14869008D02*
X12526967Y-14878531D01*
X12526967Y-14878531D02*
X12536491Y-14897579D01*
X12536491Y-14897579D02*
X12546015Y-14935674D01*
X12546015Y-14935674D02*
X12546015Y-14983293D01*
X12546015Y-14983293D02*
X12536491Y-15021388D01*
X12536491Y-15021388D02*
X12526967Y-15040436D01*
X12526967Y-15040436D02*
X12517444Y-15049960D01*
X12517444Y-15049960D02*
X12498396Y-15059484D01*
X12498396Y-15059484D02*
X12479348Y-15059484D01*
X12479348Y-15059484D02*
X12460301Y-15049960D01*
X12460301Y-15049960D02*
X12450777Y-15040436D01*
X12450777Y-15040436D02*
X12441253Y-15021388D01*
X12441253Y-15021388D02*
X12431729Y-14983293D01*
X12431729Y-14983293D02*
X12431729Y-14935674D01*
X12431729Y-14935674D02*
X12441253Y-14897579D01*
X12441253Y-14897579D02*
X12450777Y-14878531D01*
X12450777Y-14878531D02*
X12460301Y-14869008D01*
X12460301Y-14869008D02*
X12479348Y-14859484D01*
X12612682Y-14859484D02*
X12736491Y-14859484D01*
X12736491Y-14859484D02*
X12669825Y-14935674D01*
X12669825Y-14935674D02*
X12698396Y-14935674D01*
X12698396Y-14935674D02*
X12717444Y-14945198D01*
X12717444Y-14945198D02*
X12726967Y-14954722D01*
X12726967Y-14954722D02*
X12736491Y-14973769D01*
X12736491Y-14973769D02*
X12736491Y-15021388D01*
X12736491Y-15021388D02*
X12726967Y-15040436D01*
X12726967Y-15040436D02*
X12717444Y-15049960D01*
X12717444Y-15049960D02*
X12698396Y-15059484D01*
X12698396Y-15059484D02*
X12641253Y-15059484D01*
X12641253Y-15059484D02*
X12622206Y-15049960D01*
X12622206Y-15049960D02*
X12612682Y-15040436D01*
X12917444Y-14859484D02*
X12822206Y-14859484D01*
X12822206Y-14859484D02*
X12812682Y-14954722D01*
X12812682Y-14954722D02*
X12822206Y-14945198D01*
X12822206Y-14945198D02*
X12841253Y-14935674D01*
X12841253Y-14935674D02*
X12888872Y-14935674D01*
X12888872Y-14935674D02*
X12907920Y-14945198D01*
X12907920Y-14945198D02*
X12917444Y-14954722D01*
X12917444Y-14954722D02*
X12926967Y-14973769D01*
X12926967Y-14973769D02*
X12926967Y-15021388D01*
X12926967Y-15021388D02*
X12917444Y-15040436D01*
X12917444Y-15040436D02*
X12907920Y-15049960D01*
X12907920Y-15049960D02*
X12888872Y-15059484D01*
X12888872Y-15059484D02*
X12841253Y-15059484D01*
X12841253Y-15059484D02*
X12822206Y-15049960D01*
X12822206Y-15049960D02*
X12812682Y-15040436D01*
X13050777Y-14859484D02*
X13069825Y-14859484D01*
X13069825Y-14859484D02*
X13088872Y-14869008D01*
X13088872Y-14869008D02*
X13098396Y-14878531D01*
X13098396Y-14878531D02*
X13107920Y-14897579D01*
X13107920Y-14897579D02*
X13117444Y-14935674D01*
X13117444Y-14935674D02*
X13117444Y-14983293D01*
X13117444Y-14983293D02*
X13107920Y-15021388D01*
X13107920Y-15021388D02*
X13098396Y-15040436D01*
X13098396Y-15040436D02*
X13088872Y-15049960D01*
X13088872Y-15049960D02*
X13069825Y-15059484D01*
X13069825Y-15059484D02*
X13050777Y-15059484D01*
X13050777Y-15059484D02*
X13031729Y-15049960D01*
X13031729Y-15049960D02*
X13022206Y-15040436D01*
X13022206Y-15040436D02*
X13012682Y-15021388D01*
X13012682Y-15021388D02*
X13003158Y-14983293D01*
X13003158Y-14983293D02*
X13003158Y-14935674D01*
X13003158Y-14935674D02*
X13012682Y-14897579D01*
X13012682Y-14897579D02*
X13022206Y-14878531D01*
X13022206Y-14878531D02*
X13031729Y-14869008D01*
X13031729Y-14869008D02*
X13050777Y-14859484D01*
X13193634Y-14859484D02*
X13193634Y-14897579D01*
X13269825Y-14859484D02*
X13269825Y-14897579D01*
X13565063Y-15135674D02*
X13555539Y-15126150D01*
X13555539Y-15126150D02*
X13536491Y-15097579D01*
X13536491Y-15097579D02*
X13526968Y-15078531D01*
X13526968Y-15078531D02*
X13517444Y-15049960D01*
X13517444Y-15049960D02*
X13507920Y-15002341D01*
X13507920Y-15002341D02*
X13507920Y-14964246D01*
X13507920Y-14964246D02*
X13517444Y-14916627D01*
X13517444Y-14916627D02*
X13526968Y-14888055D01*
X13526968Y-14888055D02*
X13536491Y-14869008D01*
X13536491Y-14869008D02*
X13555539Y-14840436D01*
X13555539Y-14840436D02*
X13565063Y-14830912D01*
X13726968Y-14926150D02*
X13726968Y-15059484D01*
X13679348Y-14849960D02*
X13631729Y-14992817D01*
X13631729Y-14992817D02*
X13755539Y-14992817D01*
X13984110Y-15059484D02*
X13984110Y-14859484D01*
X14069825Y-15059484D02*
X14069825Y-14954722D01*
X14069825Y-14954722D02*
X14060301Y-14935674D01*
X14060301Y-14935674D02*
X14041253Y-14926150D01*
X14041253Y-14926150D02*
X14012682Y-14926150D01*
X14012682Y-14926150D02*
X13993634Y-14935674D01*
X13993634Y-14935674D02*
X13984110Y-14945198D01*
X14193634Y-15059484D02*
X14174587Y-15049960D01*
X14174587Y-15049960D02*
X14165063Y-15040436D01*
X14165063Y-15040436D02*
X14155539Y-15021388D01*
X14155539Y-15021388D02*
X14155539Y-14964246D01*
X14155539Y-14964246D02*
X14165063Y-14945198D01*
X14165063Y-14945198D02*
X14174587Y-14935674D01*
X14174587Y-14935674D02*
X14193634Y-14926150D01*
X14193634Y-14926150D02*
X14222206Y-14926150D01*
X14222206Y-14926150D02*
X14241253Y-14935674D01*
X14241253Y-14935674D02*
X14250777Y-14945198D01*
X14250777Y-14945198D02*
X14260301Y-14964246D01*
X14260301Y-14964246D02*
X14260301Y-15021388D01*
X14260301Y-15021388D02*
X14250777Y-15040436D01*
X14250777Y-15040436D02*
X14241253Y-15049960D01*
X14241253Y-15049960D02*
X14222206Y-15059484D01*
X14222206Y-15059484D02*
X14193634Y-15059484D01*
X14374587Y-15059484D02*
X14355539Y-15049960D01*
X14355539Y-15049960D02*
X14346015Y-15030912D01*
X14346015Y-15030912D02*
X14346015Y-14859484D01*
X14526968Y-15049960D02*
X14507920Y-15059484D01*
X14507920Y-15059484D02*
X14469825Y-15059484D01*
X14469825Y-15059484D02*
X14450777Y-15049960D01*
X14450777Y-15049960D02*
X14441253Y-15030912D01*
X14441253Y-15030912D02*
X14441253Y-14954722D01*
X14441253Y-14954722D02*
X14450777Y-14935674D01*
X14450777Y-14935674D02*
X14469825Y-14926150D01*
X14469825Y-14926150D02*
X14507920Y-14926150D01*
X14507920Y-14926150D02*
X14526968Y-14935674D01*
X14526968Y-14935674D02*
X14536491Y-14954722D01*
X14536491Y-14954722D02*
X14536491Y-14973769D01*
X14536491Y-14973769D02*
X14441253Y-14992817D01*
X14612682Y-15049960D02*
X14631730Y-15059484D01*
X14631730Y-15059484D02*
X14669825Y-15059484D01*
X14669825Y-15059484D02*
X14688872Y-15049960D01*
X14688872Y-15049960D02*
X14698396Y-15030912D01*
X14698396Y-15030912D02*
X14698396Y-15021388D01*
X14698396Y-15021388D02*
X14688872Y-15002341D01*
X14688872Y-15002341D02*
X14669825Y-14992817D01*
X14669825Y-14992817D02*
X14641253Y-14992817D01*
X14641253Y-14992817D02*
X14622206Y-14983293D01*
X14622206Y-14983293D02*
X14612682Y-14964246D01*
X14612682Y-14964246D02*
X14612682Y-14954722D01*
X14612682Y-14954722D02*
X14622206Y-14935674D01*
X14622206Y-14935674D02*
X14641253Y-14926150D01*
X14641253Y-14926150D02*
X14669825Y-14926150D01*
X14669825Y-14926150D02*
X14688872Y-14935674D01*
X14765063Y-15135674D02*
X14774587Y-15126150D01*
X14774587Y-15126150D02*
X14793634Y-15097579D01*
X14793634Y-15097579D02*
X14803158Y-15078531D01*
X14803158Y-15078531D02*
X14812682Y-15049960D01*
X14812682Y-15049960D02*
X14822206Y-15002341D01*
X14822206Y-15002341D02*
X14822206Y-14964246D01*
X14822206Y-14964246D02*
X14812682Y-14916627D01*
X14812682Y-14916627D02*
X14803158Y-14888055D01*
X14803158Y-14888055D02*
X14793634Y-14869008D01*
X14793634Y-14869008D02*
X14774587Y-14840436D01*
X14774587Y-14840436D02*
X14765063Y-14830912D01*
D13*
X9900000Y-15187000D02*
X9990000Y-15277000D01*
X9990000Y-15187000D02*
X9900000Y-15277000D01*
X9945000Y-15277000D02*
X9990000Y-15232000D01*
X9945000Y-15187000D01*
X9900000Y-15232000D01*
X9945000Y-15277000D01*
D11*
X10288872Y-15123484D02*
X10307920Y-15123484D01*
X10307920Y-15123484D02*
X10326967Y-15133008D01*
X10326967Y-15133008D02*
X10336491Y-15142531D01*
X10336491Y-15142531D02*
X10346015Y-15161579D01*
X10346015Y-15161579D02*
X10355539Y-15199674D01*
X10355539Y-15199674D02*
X10355539Y-15247293D01*
X10355539Y-15247293D02*
X10346015Y-15285388D01*
X10346015Y-15285388D02*
X10336491Y-15304436D01*
X10336491Y-15304436D02*
X10326967Y-15313960D01*
X10326967Y-15313960D02*
X10307920Y-15323484D01*
X10307920Y-15323484D02*
X10288872Y-15323484D01*
X10288872Y-15323484D02*
X10269824Y-15313960D01*
X10269824Y-15313960D02*
X10260301Y-15304436D01*
X10260301Y-15304436D02*
X10250777Y-15285388D01*
X10250777Y-15285388D02*
X10241253Y-15247293D01*
X10241253Y-15247293D02*
X10241253Y-15199674D01*
X10241253Y-15199674D02*
X10250777Y-15161579D01*
X10250777Y-15161579D02*
X10260301Y-15142531D01*
X10260301Y-15142531D02*
X10269824Y-15133008D01*
X10269824Y-15133008D02*
X10288872Y-15123484D01*
X10441253Y-15304436D02*
X10450777Y-15313960D01*
X10450777Y-15313960D02*
X10441253Y-15323484D01*
X10441253Y-15323484D02*
X10431729Y-15313960D01*
X10431729Y-15313960D02*
X10441253Y-15304436D01*
X10441253Y-15304436D02*
X10441253Y-15323484D01*
X10546015Y-15323484D02*
X10584110Y-15323484D01*
X10584110Y-15323484D02*
X10603158Y-15313960D01*
X10603158Y-15313960D02*
X10612682Y-15304436D01*
X10612682Y-15304436D02*
X10631729Y-15275865D01*
X10631729Y-15275865D02*
X10641253Y-15237769D01*
X10641253Y-15237769D02*
X10641253Y-15161579D01*
X10641253Y-15161579D02*
X10631729Y-15142531D01*
X10631729Y-15142531D02*
X10622205Y-15133008D01*
X10622205Y-15133008D02*
X10603158Y-15123484D01*
X10603158Y-15123484D02*
X10565063Y-15123484D01*
X10565063Y-15123484D02*
X10546015Y-15133008D01*
X10546015Y-15133008D02*
X10536491Y-15142531D01*
X10536491Y-15142531D02*
X10526967Y-15161579D01*
X10526967Y-15161579D02*
X10526967Y-15209198D01*
X10526967Y-15209198D02*
X10536491Y-15228246D01*
X10536491Y-15228246D02*
X10546015Y-15237769D01*
X10546015Y-15237769D02*
X10565063Y-15247293D01*
X10565063Y-15247293D02*
X10603158Y-15247293D01*
X10603158Y-15247293D02*
X10622205Y-15237769D01*
X10622205Y-15237769D02*
X10631729Y-15228246D01*
X10631729Y-15228246D02*
X10641253Y-15209198D01*
X10765063Y-15123484D02*
X10784110Y-15123484D01*
X10784110Y-15123484D02*
X10803158Y-15133008D01*
X10803158Y-15133008D02*
X10812682Y-15142531D01*
X10812682Y-15142531D02*
X10822205Y-15161579D01*
X10822205Y-15161579D02*
X10831729Y-15199674D01*
X10831729Y-15199674D02*
X10831729Y-15247293D01*
X10831729Y-15247293D02*
X10822205Y-15285388D01*
X10822205Y-15285388D02*
X10812682Y-15304436D01*
X10812682Y-15304436D02*
X10803158Y-15313960D01*
X10803158Y-15313960D02*
X10784110Y-15323484D01*
X10784110Y-15323484D02*
X10765063Y-15323484D01*
X10765063Y-15323484D02*
X10746015Y-15313960D01*
X10746015Y-15313960D02*
X10736491Y-15304436D01*
X10736491Y-15304436D02*
X10726967Y-15285388D01*
X10726967Y-15285388D02*
X10717444Y-15247293D01*
X10717444Y-15247293D02*
X10717444Y-15199674D01*
X10717444Y-15199674D02*
X10726967Y-15161579D01*
X10726967Y-15161579D02*
X10736491Y-15142531D01*
X10736491Y-15142531D02*
X10746015Y-15133008D01*
X10746015Y-15133008D02*
X10765063Y-15123484D01*
X10955539Y-15123484D02*
X10974586Y-15123484D01*
X10974586Y-15123484D02*
X10993634Y-15133008D01*
X10993634Y-15133008D02*
X11003158Y-15142531D01*
X11003158Y-15142531D02*
X11012682Y-15161579D01*
X11012682Y-15161579D02*
X11022205Y-15199674D01*
X11022205Y-15199674D02*
X11022205Y-15247293D01*
X11022205Y-15247293D02*
X11012682Y-15285388D01*
X11012682Y-15285388D02*
X11003158Y-15304436D01*
X11003158Y-15304436D02*
X10993634Y-15313960D01*
X10993634Y-15313960D02*
X10974586Y-15323484D01*
X10974586Y-15323484D02*
X10955539Y-15323484D01*
X10955539Y-15323484D02*
X10936491Y-15313960D01*
X10936491Y-15313960D02*
X10926967Y-15304436D01*
X10926967Y-15304436D02*
X10917444Y-15285388D01*
X10917444Y-15285388D02*
X10907920Y-15247293D01*
X10907920Y-15247293D02*
X10907920Y-15199674D01*
X10907920Y-15199674D02*
X10917444Y-15161579D01*
X10917444Y-15161579D02*
X10926967Y-15142531D01*
X10926967Y-15142531D02*
X10936491Y-15133008D01*
X10936491Y-15133008D02*
X10955539Y-15123484D01*
X11107920Y-15323484D02*
X11107920Y-15190150D01*
X11107920Y-15209198D02*
X11117444Y-15199674D01*
X11117444Y-15199674D02*
X11136491Y-15190150D01*
X11136491Y-15190150D02*
X11165063Y-15190150D01*
X11165063Y-15190150D02*
X11184110Y-15199674D01*
X11184110Y-15199674D02*
X11193634Y-15218722D01*
X11193634Y-15218722D02*
X11193634Y-15323484D01*
X11193634Y-15218722D02*
X11203158Y-15199674D01*
X11203158Y-15199674D02*
X11222205Y-15190150D01*
X11222205Y-15190150D02*
X11250777Y-15190150D01*
X11250777Y-15190150D02*
X11269824Y-15199674D01*
X11269824Y-15199674D02*
X11279348Y-15218722D01*
X11279348Y-15218722D02*
X11279348Y-15323484D01*
X11374586Y-15323484D02*
X11374586Y-15190150D01*
X11374586Y-15209198D02*
X11384110Y-15199674D01*
X11384110Y-15199674D02*
X11403158Y-15190150D01*
X11403158Y-15190150D02*
X11431729Y-15190150D01*
X11431729Y-15190150D02*
X11450777Y-15199674D01*
X11450777Y-15199674D02*
X11460301Y-15218722D01*
X11460301Y-15218722D02*
X11460301Y-15323484D01*
X11460301Y-15218722D02*
X11469824Y-15199674D01*
X11469824Y-15199674D02*
X11488872Y-15190150D01*
X11488872Y-15190150D02*
X11517443Y-15190150D01*
X11517443Y-15190150D02*
X11536491Y-15199674D01*
X11536491Y-15199674D02*
X11546015Y-15218722D01*
X11546015Y-15218722D02*
X11546015Y-15323484D01*
X11936491Y-15113960D02*
X11765063Y-15371103D01*
X12193634Y-15123484D02*
X12212682Y-15123484D01*
X12212682Y-15123484D02*
X12231729Y-15133008D01*
X12231729Y-15133008D02*
X12241253Y-15142531D01*
X12241253Y-15142531D02*
X12250777Y-15161579D01*
X12250777Y-15161579D02*
X12260301Y-15199674D01*
X12260301Y-15199674D02*
X12260301Y-15247293D01*
X12260301Y-15247293D02*
X12250777Y-15285388D01*
X12250777Y-15285388D02*
X12241253Y-15304436D01*
X12241253Y-15304436D02*
X12231729Y-15313960D01*
X12231729Y-15313960D02*
X12212682Y-15323484D01*
X12212682Y-15323484D02*
X12193634Y-15323484D01*
X12193634Y-15323484D02*
X12174586Y-15313960D01*
X12174586Y-15313960D02*
X12165063Y-15304436D01*
X12165063Y-15304436D02*
X12155539Y-15285388D01*
X12155539Y-15285388D02*
X12146015Y-15247293D01*
X12146015Y-15247293D02*
X12146015Y-15199674D01*
X12146015Y-15199674D02*
X12155539Y-15161579D01*
X12155539Y-15161579D02*
X12165063Y-15142531D01*
X12165063Y-15142531D02*
X12174586Y-15133008D01*
X12174586Y-15133008D02*
X12193634Y-15123484D01*
X12346015Y-15304436D02*
X12355539Y-15313960D01*
X12355539Y-15313960D02*
X12346015Y-15323484D01*
X12346015Y-15323484D02*
X12336491Y-15313960D01*
X12336491Y-15313960D02*
X12346015Y-15304436D01*
X12346015Y-15304436D02*
X12346015Y-15323484D01*
X12479348Y-15123484D02*
X12498396Y-15123484D01*
X12498396Y-15123484D02*
X12517444Y-15133008D01*
X12517444Y-15133008D02*
X12526967Y-15142531D01*
X12526967Y-15142531D02*
X12536491Y-15161579D01*
X12536491Y-15161579D02*
X12546015Y-15199674D01*
X12546015Y-15199674D02*
X12546015Y-15247293D01*
X12546015Y-15247293D02*
X12536491Y-15285388D01*
X12536491Y-15285388D02*
X12526967Y-15304436D01*
X12526967Y-15304436D02*
X12517444Y-15313960D01*
X12517444Y-15313960D02*
X12498396Y-15323484D01*
X12498396Y-15323484D02*
X12479348Y-15323484D01*
X12479348Y-15323484D02*
X12460301Y-15313960D01*
X12460301Y-15313960D02*
X12450777Y-15304436D01*
X12450777Y-15304436D02*
X12441253Y-15285388D01*
X12441253Y-15285388D02*
X12431729Y-15247293D01*
X12431729Y-15247293D02*
X12431729Y-15199674D01*
X12431729Y-15199674D02*
X12441253Y-15161579D01*
X12441253Y-15161579D02*
X12450777Y-15142531D01*
X12450777Y-15142531D02*
X12460301Y-15133008D01*
X12460301Y-15133008D02*
X12479348Y-15123484D01*
X12612682Y-15123484D02*
X12736491Y-15123484D01*
X12736491Y-15123484D02*
X12669825Y-15199674D01*
X12669825Y-15199674D02*
X12698396Y-15199674D01*
X12698396Y-15199674D02*
X12717444Y-15209198D01*
X12717444Y-15209198D02*
X12726967Y-15218722D01*
X12726967Y-15218722D02*
X12736491Y-15237769D01*
X12736491Y-15237769D02*
X12736491Y-15285388D01*
X12736491Y-15285388D02*
X12726967Y-15304436D01*
X12726967Y-15304436D02*
X12717444Y-15313960D01*
X12717444Y-15313960D02*
X12698396Y-15323484D01*
X12698396Y-15323484D02*
X12641253Y-15323484D01*
X12641253Y-15323484D02*
X12622206Y-15313960D01*
X12622206Y-15313960D02*
X12612682Y-15304436D01*
X12917444Y-15123484D02*
X12822206Y-15123484D01*
X12822206Y-15123484D02*
X12812682Y-15218722D01*
X12812682Y-15218722D02*
X12822206Y-15209198D01*
X12822206Y-15209198D02*
X12841253Y-15199674D01*
X12841253Y-15199674D02*
X12888872Y-15199674D01*
X12888872Y-15199674D02*
X12907920Y-15209198D01*
X12907920Y-15209198D02*
X12917444Y-15218722D01*
X12917444Y-15218722D02*
X12926967Y-15237769D01*
X12926967Y-15237769D02*
X12926967Y-15285388D01*
X12926967Y-15285388D02*
X12917444Y-15304436D01*
X12917444Y-15304436D02*
X12907920Y-15313960D01*
X12907920Y-15313960D02*
X12888872Y-15323484D01*
X12888872Y-15323484D02*
X12841253Y-15323484D01*
X12841253Y-15323484D02*
X12822206Y-15313960D01*
X12822206Y-15313960D02*
X12812682Y-15304436D01*
X13098396Y-15190150D02*
X13098396Y-15323484D01*
X13050777Y-15113960D02*
X13003158Y-15256817D01*
X13003158Y-15256817D02*
X13126967Y-15256817D01*
X13193634Y-15123484D02*
X13193634Y-15161579D01*
X13269825Y-15123484D02*
X13269825Y-15161579D01*
X13565063Y-15399674D02*
X13555539Y-15390150D01*
X13555539Y-15390150D02*
X13536491Y-15361579D01*
X13536491Y-15361579D02*
X13526968Y-15342531D01*
X13526968Y-15342531D02*
X13517444Y-15313960D01*
X13517444Y-15313960D02*
X13507920Y-15266341D01*
X13507920Y-15266341D02*
X13507920Y-15228246D01*
X13507920Y-15228246D02*
X13517444Y-15180627D01*
X13517444Y-15180627D02*
X13526968Y-15152055D01*
X13526968Y-15152055D02*
X13536491Y-15133008D01*
X13536491Y-15133008D02*
X13555539Y-15104436D01*
X13555539Y-15104436D02*
X13565063Y-15094912D01*
X13669825Y-15209198D02*
X13650777Y-15199674D01*
X13650777Y-15199674D02*
X13641253Y-15190150D01*
X13641253Y-15190150D02*
X13631729Y-15171103D01*
X13631729Y-15171103D02*
X13631729Y-15161579D01*
X13631729Y-15161579D02*
X13641253Y-15142531D01*
X13641253Y-15142531D02*
X13650777Y-15133008D01*
X13650777Y-15133008D02*
X13669825Y-15123484D01*
X13669825Y-15123484D02*
X13707920Y-15123484D01*
X13707920Y-15123484D02*
X13726968Y-15133008D01*
X13726968Y-15133008D02*
X13736491Y-15142531D01*
X13736491Y-15142531D02*
X13746015Y-15161579D01*
X13746015Y-15161579D02*
X13746015Y-15171103D01*
X13746015Y-15171103D02*
X13736491Y-15190150D01*
X13736491Y-15190150D02*
X13726968Y-15199674D01*
X13726968Y-15199674D02*
X13707920Y-15209198D01*
X13707920Y-15209198D02*
X13669825Y-15209198D01*
X13669825Y-15209198D02*
X13650777Y-15218722D01*
X13650777Y-15218722D02*
X13641253Y-15228246D01*
X13641253Y-15228246D02*
X13631729Y-15247293D01*
X13631729Y-15247293D02*
X13631729Y-15285388D01*
X13631729Y-15285388D02*
X13641253Y-15304436D01*
X13641253Y-15304436D02*
X13650777Y-15313960D01*
X13650777Y-15313960D02*
X13669825Y-15323484D01*
X13669825Y-15323484D02*
X13707920Y-15323484D01*
X13707920Y-15323484D02*
X13726968Y-15313960D01*
X13726968Y-15313960D02*
X13736491Y-15304436D01*
X13736491Y-15304436D02*
X13746015Y-15285388D01*
X13746015Y-15285388D02*
X13746015Y-15247293D01*
X13746015Y-15247293D02*
X13736491Y-15228246D01*
X13736491Y-15228246D02*
X13726968Y-15218722D01*
X13726968Y-15218722D02*
X13707920Y-15209198D01*
X13984110Y-15323484D02*
X13984110Y-15123484D01*
X14069825Y-15323484D02*
X14069825Y-15218722D01*
X14069825Y-15218722D02*
X14060301Y-15199674D01*
X14060301Y-15199674D02*
X14041253Y-15190150D01*
X14041253Y-15190150D02*
X14012682Y-15190150D01*
X14012682Y-15190150D02*
X13993634Y-15199674D01*
X13993634Y-15199674D02*
X13984110Y-15209198D01*
X14193634Y-15323484D02*
X14174587Y-15313960D01*
X14174587Y-15313960D02*
X14165063Y-15304436D01*
X14165063Y-15304436D02*
X14155539Y-15285388D01*
X14155539Y-15285388D02*
X14155539Y-15228246D01*
X14155539Y-15228246D02*
X14165063Y-15209198D01*
X14165063Y-15209198D02*
X14174587Y-15199674D01*
X14174587Y-15199674D02*
X14193634Y-15190150D01*
X14193634Y-15190150D02*
X14222206Y-15190150D01*
X14222206Y-15190150D02*
X14241253Y-15199674D01*
X14241253Y-15199674D02*
X14250777Y-15209198D01*
X14250777Y-15209198D02*
X14260301Y-15228246D01*
X14260301Y-15228246D02*
X14260301Y-15285388D01*
X14260301Y-15285388D02*
X14250777Y-15304436D01*
X14250777Y-15304436D02*
X14241253Y-15313960D01*
X14241253Y-15313960D02*
X14222206Y-15323484D01*
X14222206Y-15323484D02*
X14193634Y-15323484D01*
X14374587Y-15323484D02*
X14355539Y-15313960D01*
X14355539Y-15313960D02*
X14346015Y-15294912D01*
X14346015Y-15294912D02*
X14346015Y-15123484D01*
X14526968Y-15313960D02*
X14507920Y-15323484D01*
X14507920Y-15323484D02*
X14469825Y-15323484D01*
X14469825Y-15323484D02*
X14450777Y-15313960D01*
X14450777Y-15313960D02*
X14441253Y-15294912D01*
X14441253Y-15294912D02*
X14441253Y-15218722D01*
X14441253Y-15218722D02*
X14450777Y-15199674D01*
X14450777Y-15199674D02*
X14469825Y-15190150D01*
X14469825Y-15190150D02*
X14507920Y-15190150D01*
X14507920Y-15190150D02*
X14526968Y-15199674D01*
X14526968Y-15199674D02*
X14536491Y-15218722D01*
X14536491Y-15218722D02*
X14536491Y-15237769D01*
X14536491Y-15237769D02*
X14441253Y-15256817D01*
X14612682Y-15313960D02*
X14631730Y-15323484D01*
X14631730Y-15323484D02*
X14669825Y-15323484D01*
X14669825Y-15323484D02*
X14688872Y-15313960D01*
X14688872Y-15313960D02*
X14698396Y-15294912D01*
X14698396Y-15294912D02*
X14698396Y-15285388D01*
X14698396Y-15285388D02*
X14688872Y-15266341D01*
X14688872Y-15266341D02*
X14669825Y-15256817D01*
X14669825Y-15256817D02*
X14641253Y-15256817D01*
X14641253Y-15256817D02*
X14622206Y-15247293D01*
X14622206Y-15247293D02*
X14612682Y-15228246D01*
X14612682Y-15228246D02*
X14612682Y-15218722D01*
X14612682Y-15218722D02*
X14622206Y-15199674D01*
X14622206Y-15199674D02*
X14641253Y-15190150D01*
X14641253Y-15190150D02*
X14669825Y-15190150D01*
X14669825Y-15190150D02*
X14688872Y-15199674D01*
X14765063Y-15399674D02*
X14774587Y-15390150D01*
X14774587Y-15390150D02*
X14793634Y-15361579D01*
X14793634Y-15361579D02*
X14803158Y-15342531D01*
X14803158Y-15342531D02*
X14812682Y-15313960D01*
X14812682Y-15313960D02*
X14822206Y-15266341D01*
X14822206Y-15266341D02*
X14822206Y-15228246D01*
X14822206Y-15228246D02*
X14812682Y-15180627D01*
X14812682Y-15180627D02*
X14803158Y-15152055D01*
X14803158Y-15152055D02*
X14793634Y-15133008D01*
X14793634Y-15133008D02*
X14774587Y-15104436D01*
X14774587Y-15104436D02*
X14765063Y-15094912D01*
D13*
X9940000Y-15446000D02*
X9940000Y-15546000D01*
X9890000Y-15496000D02*
X9990000Y-15496000D01*
X9990000Y-15496000D02*
G75*
G02*
X9890000Y-15496000I-50000J0D01*
G01*
X9890000Y-15496000D02*
G75*
G02*
X9990000Y-15496000I50000J0D01*
G01*
D11*
X10355539Y-15587484D02*
X10241253Y-15587484D01*
X10298396Y-15587484D02*
X10298396Y-15387484D01*
X10298396Y-15387484D02*
X10279348Y-15416055D01*
X10279348Y-15416055D02*
X10260301Y-15435103D01*
X10260301Y-15435103D02*
X10241253Y-15444627D01*
X10441253Y-15568436D02*
X10450777Y-15577960D01*
X10450777Y-15577960D02*
X10441253Y-15587484D01*
X10441253Y-15587484D02*
X10431729Y-15577960D01*
X10431729Y-15577960D02*
X10441253Y-15568436D01*
X10441253Y-15568436D02*
X10441253Y-15587484D01*
X10574586Y-15387484D02*
X10593634Y-15387484D01*
X10593634Y-15387484D02*
X10612682Y-15397008D01*
X10612682Y-15397008D02*
X10622205Y-15406531D01*
X10622205Y-15406531D02*
X10631729Y-15425579D01*
X10631729Y-15425579D02*
X10641253Y-15463674D01*
X10641253Y-15463674D02*
X10641253Y-15511293D01*
X10641253Y-15511293D02*
X10631729Y-15549388D01*
X10631729Y-15549388D02*
X10622205Y-15568436D01*
X10622205Y-15568436D02*
X10612682Y-15577960D01*
X10612682Y-15577960D02*
X10593634Y-15587484D01*
X10593634Y-15587484D02*
X10574586Y-15587484D01*
X10574586Y-15587484D02*
X10555539Y-15577960D01*
X10555539Y-15577960D02*
X10546015Y-15568436D01*
X10546015Y-15568436D02*
X10536491Y-15549388D01*
X10536491Y-15549388D02*
X10526967Y-15511293D01*
X10526967Y-15511293D02*
X10526967Y-15463674D01*
X10526967Y-15463674D02*
X10536491Y-15425579D01*
X10536491Y-15425579D02*
X10546015Y-15406531D01*
X10546015Y-15406531D02*
X10555539Y-15397008D01*
X10555539Y-15397008D02*
X10574586Y-15387484D01*
X10765063Y-15387484D02*
X10784110Y-15387484D01*
X10784110Y-15387484D02*
X10803158Y-15397008D01*
X10803158Y-15397008D02*
X10812682Y-15406531D01*
X10812682Y-15406531D02*
X10822205Y-15425579D01*
X10822205Y-15425579D02*
X10831729Y-15463674D01*
X10831729Y-15463674D02*
X10831729Y-15511293D01*
X10831729Y-15511293D02*
X10822205Y-15549388D01*
X10822205Y-15549388D02*
X10812682Y-15568436D01*
X10812682Y-15568436D02*
X10803158Y-15577960D01*
X10803158Y-15577960D02*
X10784110Y-15587484D01*
X10784110Y-15587484D02*
X10765063Y-15587484D01*
X10765063Y-15587484D02*
X10746015Y-15577960D01*
X10746015Y-15577960D02*
X10736491Y-15568436D01*
X10736491Y-15568436D02*
X10726967Y-15549388D01*
X10726967Y-15549388D02*
X10717444Y-15511293D01*
X10717444Y-15511293D02*
X10717444Y-15463674D01*
X10717444Y-15463674D02*
X10726967Y-15425579D01*
X10726967Y-15425579D02*
X10736491Y-15406531D01*
X10736491Y-15406531D02*
X10746015Y-15397008D01*
X10746015Y-15397008D02*
X10765063Y-15387484D01*
X10955539Y-15387484D02*
X10974586Y-15387484D01*
X10974586Y-15387484D02*
X10993634Y-15397008D01*
X10993634Y-15397008D02*
X11003158Y-15406531D01*
X11003158Y-15406531D02*
X11012682Y-15425579D01*
X11012682Y-15425579D02*
X11022205Y-15463674D01*
X11022205Y-15463674D02*
X11022205Y-15511293D01*
X11022205Y-15511293D02*
X11012682Y-15549388D01*
X11012682Y-15549388D02*
X11003158Y-15568436D01*
X11003158Y-15568436D02*
X10993634Y-15577960D01*
X10993634Y-15577960D02*
X10974586Y-15587484D01*
X10974586Y-15587484D02*
X10955539Y-15587484D01*
X10955539Y-15587484D02*
X10936491Y-15577960D01*
X10936491Y-15577960D02*
X10926967Y-15568436D01*
X10926967Y-15568436D02*
X10917444Y-15549388D01*
X10917444Y-15549388D02*
X10907920Y-15511293D01*
X10907920Y-15511293D02*
X10907920Y-15463674D01*
X10907920Y-15463674D02*
X10917444Y-15425579D01*
X10917444Y-15425579D02*
X10926967Y-15406531D01*
X10926967Y-15406531D02*
X10936491Y-15397008D01*
X10936491Y-15397008D02*
X10955539Y-15387484D01*
X11107920Y-15587484D02*
X11107920Y-15454150D01*
X11107920Y-15473198D02*
X11117444Y-15463674D01*
X11117444Y-15463674D02*
X11136491Y-15454150D01*
X11136491Y-15454150D02*
X11165063Y-15454150D01*
X11165063Y-15454150D02*
X11184110Y-15463674D01*
X11184110Y-15463674D02*
X11193634Y-15482722D01*
X11193634Y-15482722D02*
X11193634Y-15587484D01*
X11193634Y-15482722D02*
X11203158Y-15463674D01*
X11203158Y-15463674D02*
X11222205Y-15454150D01*
X11222205Y-15454150D02*
X11250777Y-15454150D01*
X11250777Y-15454150D02*
X11269824Y-15463674D01*
X11269824Y-15463674D02*
X11279348Y-15482722D01*
X11279348Y-15482722D02*
X11279348Y-15587484D01*
X11374586Y-15587484D02*
X11374586Y-15454150D01*
X11374586Y-15473198D02*
X11384110Y-15463674D01*
X11384110Y-15463674D02*
X11403158Y-15454150D01*
X11403158Y-15454150D02*
X11431729Y-15454150D01*
X11431729Y-15454150D02*
X11450777Y-15463674D01*
X11450777Y-15463674D02*
X11460301Y-15482722D01*
X11460301Y-15482722D02*
X11460301Y-15587484D01*
X11460301Y-15482722D02*
X11469824Y-15463674D01*
X11469824Y-15463674D02*
X11488872Y-15454150D01*
X11488872Y-15454150D02*
X11517443Y-15454150D01*
X11517443Y-15454150D02*
X11536491Y-15463674D01*
X11536491Y-15463674D02*
X11546015Y-15482722D01*
X11546015Y-15482722D02*
X11546015Y-15587484D01*
X11936491Y-15377960D02*
X11765063Y-15635103D01*
X12193634Y-15387484D02*
X12212682Y-15387484D01*
X12212682Y-15387484D02*
X12231729Y-15397008D01*
X12231729Y-15397008D02*
X12241253Y-15406531D01*
X12241253Y-15406531D02*
X12250777Y-15425579D01*
X12250777Y-15425579D02*
X12260301Y-15463674D01*
X12260301Y-15463674D02*
X12260301Y-15511293D01*
X12260301Y-15511293D02*
X12250777Y-15549388D01*
X12250777Y-15549388D02*
X12241253Y-15568436D01*
X12241253Y-15568436D02*
X12231729Y-15577960D01*
X12231729Y-15577960D02*
X12212682Y-15587484D01*
X12212682Y-15587484D02*
X12193634Y-15587484D01*
X12193634Y-15587484D02*
X12174586Y-15577960D01*
X12174586Y-15577960D02*
X12165063Y-15568436D01*
X12165063Y-15568436D02*
X12155539Y-15549388D01*
X12155539Y-15549388D02*
X12146015Y-15511293D01*
X12146015Y-15511293D02*
X12146015Y-15463674D01*
X12146015Y-15463674D02*
X12155539Y-15425579D01*
X12155539Y-15425579D02*
X12165063Y-15406531D01*
X12165063Y-15406531D02*
X12174586Y-15397008D01*
X12174586Y-15397008D02*
X12193634Y-15387484D01*
X12346015Y-15568436D02*
X12355539Y-15577960D01*
X12355539Y-15577960D02*
X12346015Y-15587484D01*
X12346015Y-15587484D02*
X12336491Y-15577960D01*
X12336491Y-15577960D02*
X12346015Y-15568436D01*
X12346015Y-15568436D02*
X12346015Y-15587484D01*
X12479348Y-15387484D02*
X12498396Y-15387484D01*
X12498396Y-15387484D02*
X12517444Y-15397008D01*
X12517444Y-15397008D02*
X12526967Y-15406531D01*
X12526967Y-15406531D02*
X12536491Y-15425579D01*
X12536491Y-15425579D02*
X12546015Y-15463674D01*
X12546015Y-15463674D02*
X12546015Y-15511293D01*
X12546015Y-15511293D02*
X12536491Y-15549388D01*
X12536491Y-15549388D02*
X12526967Y-15568436D01*
X12526967Y-15568436D02*
X12517444Y-15577960D01*
X12517444Y-15577960D02*
X12498396Y-15587484D01*
X12498396Y-15587484D02*
X12479348Y-15587484D01*
X12479348Y-15587484D02*
X12460301Y-15577960D01*
X12460301Y-15577960D02*
X12450777Y-15568436D01*
X12450777Y-15568436D02*
X12441253Y-15549388D01*
X12441253Y-15549388D02*
X12431729Y-15511293D01*
X12431729Y-15511293D02*
X12431729Y-15463674D01*
X12431729Y-15463674D02*
X12441253Y-15425579D01*
X12441253Y-15425579D02*
X12450777Y-15406531D01*
X12450777Y-15406531D02*
X12460301Y-15397008D01*
X12460301Y-15397008D02*
X12479348Y-15387484D01*
X12612682Y-15387484D02*
X12736491Y-15387484D01*
X12736491Y-15387484D02*
X12669825Y-15463674D01*
X12669825Y-15463674D02*
X12698396Y-15463674D01*
X12698396Y-15463674D02*
X12717444Y-15473198D01*
X12717444Y-15473198D02*
X12726967Y-15482722D01*
X12726967Y-15482722D02*
X12736491Y-15501769D01*
X12736491Y-15501769D02*
X12736491Y-15549388D01*
X12736491Y-15549388D02*
X12726967Y-15568436D01*
X12726967Y-15568436D02*
X12717444Y-15577960D01*
X12717444Y-15577960D02*
X12698396Y-15587484D01*
X12698396Y-15587484D02*
X12641253Y-15587484D01*
X12641253Y-15587484D02*
X12622206Y-15577960D01*
X12622206Y-15577960D02*
X12612682Y-15568436D01*
X12831729Y-15587484D02*
X12869825Y-15587484D01*
X12869825Y-15587484D02*
X12888872Y-15577960D01*
X12888872Y-15577960D02*
X12898396Y-15568436D01*
X12898396Y-15568436D02*
X12917444Y-15539865D01*
X12917444Y-15539865D02*
X12926967Y-15501769D01*
X12926967Y-15501769D02*
X12926967Y-15425579D01*
X12926967Y-15425579D02*
X12917444Y-15406531D01*
X12917444Y-15406531D02*
X12907920Y-15397008D01*
X12907920Y-15397008D02*
X12888872Y-15387484D01*
X12888872Y-15387484D02*
X12850777Y-15387484D01*
X12850777Y-15387484D02*
X12831729Y-15397008D01*
X12831729Y-15397008D02*
X12822206Y-15406531D01*
X12822206Y-15406531D02*
X12812682Y-15425579D01*
X12812682Y-15425579D02*
X12812682Y-15473198D01*
X12812682Y-15473198D02*
X12822206Y-15492246D01*
X12822206Y-15492246D02*
X12831729Y-15501769D01*
X12831729Y-15501769D02*
X12850777Y-15511293D01*
X12850777Y-15511293D02*
X12888872Y-15511293D01*
X12888872Y-15511293D02*
X12907920Y-15501769D01*
X12907920Y-15501769D02*
X12917444Y-15492246D01*
X12917444Y-15492246D02*
X12926967Y-15473198D01*
X13098396Y-15454150D02*
X13098396Y-15587484D01*
X13050777Y-15377960D02*
X13003158Y-15520817D01*
X13003158Y-15520817D02*
X13126967Y-15520817D01*
X13193634Y-15387484D02*
X13193634Y-15425579D01*
X13269825Y-15387484D02*
X13269825Y-15425579D01*
X13565063Y-15663674D02*
X13555539Y-15654150D01*
X13555539Y-15654150D02*
X13536491Y-15625579D01*
X13536491Y-15625579D02*
X13526968Y-15606531D01*
X13526968Y-15606531D02*
X13517444Y-15577960D01*
X13517444Y-15577960D02*
X13507920Y-15530341D01*
X13507920Y-15530341D02*
X13507920Y-15492246D01*
X13507920Y-15492246D02*
X13517444Y-15444627D01*
X13517444Y-15444627D02*
X13526968Y-15416055D01*
X13526968Y-15416055D02*
X13536491Y-15397008D01*
X13536491Y-15397008D02*
X13555539Y-15368436D01*
X13555539Y-15368436D02*
X13565063Y-15358912D01*
X13746015Y-15587484D02*
X13631729Y-15587484D01*
X13688872Y-15587484D02*
X13688872Y-15387484D01*
X13688872Y-15387484D02*
X13669825Y-15416055D01*
X13669825Y-15416055D02*
X13650777Y-15435103D01*
X13650777Y-15435103D02*
X13631729Y-15444627D01*
X13841253Y-15587484D02*
X13879348Y-15587484D01*
X13879348Y-15587484D02*
X13898396Y-15577960D01*
X13898396Y-15577960D02*
X13907920Y-15568436D01*
X13907920Y-15568436D02*
X13926968Y-15539865D01*
X13926968Y-15539865D02*
X13936491Y-15501769D01*
X13936491Y-15501769D02*
X13936491Y-15425579D01*
X13936491Y-15425579D02*
X13926968Y-15406531D01*
X13926968Y-15406531D02*
X13917444Y-15397008D01*
X13917444Y-15397008D02*
X13898396Y-15387484D01*
X13898396Y-15387484D02*
X13860301Y-15387484D01*
X13860301Y-15387484D02*
X13841253Y-15397008D01*
X13841253Y-15397008D02*
X13831729Y-15406531D01*
X13831729Y-15406531D02*
X13822206Y-15425579D01*
X13822206Y-15425579D02*
X13822206Y-15473198D01*
X13822206Y-15473198D02*
X13831729Y-15492246D01*
X13831729Y-15492246D02*
X13841253Y-15501769D01*
X13841253Y-15501769D02*
X13860301Y-15511293D01*
X13860301Y-15511293D02*
X13898396Y-15511293D01*
X13898396Y-15511293D02*
X13917444Y-15501769D01*
X13917444Y-15501769D02*
X13926968Y-15492246D01*
X13926968Y-15492246D02*
X13936491Y-15473198D01*
X14174587Y-15587484D02*
X14174587Y-15387484D01*
X14260301Y-15587484D02*
X14260301Y-15482722D01*
X14260301Y-15482722D02*
X14250777Y-15463674D01*
X14250777Y-15463674D02*
X14231730Y-15454150D01*
X14231730Y-15454150D02*
X14203158Y-15454150D01*
X14203158Y-15454150D02*
X14184110Y-15463674D01*
X14184110Y-15463674D02*
X14174587Y-15473198D01*
X14384110Y-15587484D02*
X14365063Y-15577960D01*
X14365063Y-15577960D02*
X14355539Y-15568436D01*
X14355539Y-15568436D02*
X14346015Y-15549388D01*
X14346015Y-15549388D02*
X14346015Y-15492246D01*
X14346015Y-15492246D02*
X14355539Y-15473198D01*
X14355539Y-15473198D02*
X14365063Y-15463674D01*
X14365063Y-15463674D02*
X14384110Y-15454150D01*
X14384110Y-15454150D02*
X14412682Y-15454150D01*
X14412682Y-15454150D02*
X14431730Y-15463674D01*
X14431730Y-15463674D02*
X14441253Y-15473198D01*
X14441253Y-15473198D02*
X14450777Y-15492246D01*
X14450777Y-15492246D02*
X14450777Y-15549388D01*
X14450777Y-15549388D02*
X14441253Y-15568436D01*
X14441253Y-15568436D02*
X14431730Y-15577960D01*
X14431730Y-15577960D02*
X14412682Y-15587484D01*
X14412682Y-15587484D02*
X14384110Y-15587484D01*
X14565063Y-15587484D02*
X14546015Y-15577960D01*
X14546015Y-15577960D02*
X14536491Y-15558912D01*
X14536491Y-15558912D02*
X14536491Y-15387484D01*
X14717444Y-15577960D02*
X14698396Y-15587484D01*
X14698396Y-15587484D02*
X14660301Y-15587484D01*
X14660301Y-15587484D02*
X14641253Y-15577960D01*
X14641253Y-15577960D02*
X14631730Y-15558912D01*
X14631730Y-15558912D02*
X14631730Y-15482722D01*
X14631730Y-15482722D02*
X14641253Y-15463674D01*
X14641253Y-15463674D02*
X14660301Y-15454150D01*
X14660301Y-15454150D02*
X14698396Y-15454150D01*
X14698396Y-15454150D02*
X14717444Y-15463674D01*
X14717444Y-15463674D02*
X14726968Y-15482722D01*
X14726968Y-15482722D02*
X14726968Y-15501769D01*
X14726968Y-15501769D02*
X14631730Y-15520817D01*
X14803158Y-15577960D02*
X14822206Y-15587484D01*
X14822206Y-15587484D02*
X14860301Y-15587484D01*
X14860301Y-15587484D02*
X14879349Y-15577960D01*
X14879349Y-15577960D02*
X14888872Y-15558912D01*
X14888872Y-15558912D02*
X14888872Y-15549388D01*
X14888872Y-15549388D02*
X14879349Y-15530341D01*
X14879349Y-15530341D02*
X14860301Y-15520817D01*
X14860301Y-15520817D02*
X14831730Y-15520817D01*
X14831730Y-15520817D02*
X14812682Y-15511293D01*
X14812682Y-15511293D02*
X14803158Y-15492246D01*
X14803158Y-15492246D02*
X14803158Y-15482722D01*
X14803158Y-15482722D02*
X14812682Y-15463674D01*
X14812682Y-15463674D02*
X14831730Y-15454150D01*
X14831730Y-15454150D02*
X14860301Y-15454150D01*
X14860301Y-15454150D02*
X14879349Y-15463674D01*
X14955539Y-15663674D02*
X14965063Y-15654150D01*
X14965063Y-15654150D02*
X14984111Y-15625579D01*
X14984111Y-15625579D02*
X14993634Y-15606531D01*
X14993634Y-15606531D02*
X15003158Y-15577960D01*
X15003158Y-15577960D02*
X15012682Y-15530341D01*
X15012682Y-15530341D02*
X15012682Y-15492246D01*
X15012682Y-15492246D02*
X15003158Y-15444627D01*
X15003158Y-15444627D02*
X14993634Y-15416055D01*
X14993634Y-15416055D02*
X14984111Y-15397008D01*
X14984111Y-15397008D02*
X14965063Y-15368436D01*
X14965063Y-15368436D02*
X14955539Y-15358912D01*
D14*
X9971988Y-15803487D02*
X9971988Y-15716512D01*
X9885013Y-15716512D01*
X9885013Y-15803487D01*
X9971988Y-15803487D01*
X9990000Y-15760000D02*
G75*
G02*
X9867000Y-15760000I-61500J0D01*
G01*
X9867000Y-15760000D02*
G75*
G02*
X9990000Y-15760000I61500J0D01*
G01*
D11*
X10355539Y-15851484D02*
X10241253Y-15851484D01*
X10298396Y-15851484D02*
X10298396Y-15651484D01*
X10298396Y-15651484D02*
X10279348Y-15680055D01*
X10279348Y-15680055D02*
X10260301Y-15699103D01*
X10260301Y-15699103D02*
X10241253Y-15708627D01*
X10441253Y-15832436D02*
X10450777Y-15841960D01*
X10450777Y-15841960D02*
X10441253Y-15851484D01*
X10441253Y-15851484D02*
X10431729Y-15841960D01*
X10431729Y-15841960D02*
X10441253Y-15832436D01*
X10441253Y-15832436D02*
X10441253Y-15851484D01*
X10526967Y-15670531D02*
X10536491Y-15661008D01*
X10536491Y-15661008D02*
X10555539Y-15651484D01*
X10555539Y-15651484D02*
X10603158Y-15651484D01*
X10603158Y-15651484D02*
X10622205Y-15661008D01*
X10622205Y-15661008D02*
X10631729Y-15670531D01*
X10631729Y-15670531D02*
X10641253Y-15689579D01*
X10641253Y-15689579D02*
X10641253Y-15708627D01*
X10641253Y-15708627D02*
X10631729Y-15737198D01*
X10631729Y-15737198D02*
X10517444Y-15851484D01*
X10517444Y-15851484D02*
X10641253Y-15851484D01*
X10707920Y-15651484D02*
X10831729Y-15651484D01*
X10831729Y-15651484D02*
X10765063Y-15727674D01*
X10765063Y-15727674D02*
X10793634Y-15727674D01*
X10793634Y-15727674D02*
X10812682Y-15737198D01*
X10812682Y-15737198D02*
X10822205Y-15746722D01*
X10822205Y-15746722D02*
X10831729Y-15765769D01*
X10831729Y-15765769D02*
X10831729Y-15813388D01*
X10831729Y-15813388D02*
X10822205Y-15832436D01*
X10822205Y-15832436D02*
X10812682Y-15841960D01*
X10812682Y-15841960D02*
X10793634Y-15851484D01*
X10793634Y-15851484D02*
X10736491Y-15851484D01*
X10736491Y-15851484D02*
X10717444Y-15841960D01*
X10717444Y-15841960D02*
X10707920Y-15832436D01*
X10955539Y-15651484D02*
X10974586Y-15651484D01*
X10974586Y-15651484D02*
X10993634Y-15661008D01*
X10993634Y-15661008D02*
X11003158Y-15670531D01*
X11003158Y-15670531D02*
X11012682Y-15689579D01*
X11012682Y-15689579D02*
X11022205Y-15727674D01*
X11022205Y-15727674D02*
X11022205Y-15775293D01*
X11022205Y-15775293D02*
X11012682Y-15813388D01*
X11012682Y-15813388D02*
X11003158Y-15832436D01*
X11003158Y-15832436D02*
X10993634Y-15841960D01*
X10993634Y-15841960D02*
X10974586Y-15851484D01*
X10974586Y-15851484D02*
X10955539Y-15851484D01*
X10955539Y-15851484D02*
X10936491Y-15841960D01*
X10936491Y-15841960D02*
X10926967Y-15832436D01*
X10926967Y-15832436D02*
X10917444Y-15813388D01*
X10917444Y-15813388D02*
X10907920Y-15775293D01*
X10907920Y-15775293D02*
X10907920Y-15727674D01*
X10907920Y-15727674D02*
X10917444Y-15689579D01*
X10917444Y-15689579D02*
X10926967Y-15670531D01*
X10926967Y-15670531D02*
X10936491Y-15661008D01*
X10936491Y-15661008D02*
X10955539Y-15651484D01*
X11107920Y-15851484D02*
X11107920Y-15718150D01*
X11107920Y-15737198D02*
X11117444Y-15727674D01*
X11117444Y-15727674D02*
X11136491Y-15718150D01*
X11136491Y-15718150D02*
X11165063Y-15718150D01*
X11165063Y-15718150D02*
X11184110Y-15727674D01*
X11184110Y-15727674D02*
X11193634Y-15746722D01*
X11193634Y-15746722D02*
X11193634Y-15851484D01*
X11193634Y-15746722D02*
X11203158Y-15727674D01*
X11203158Y-15727674D02*
X11222205Y-15718150D01*
X11222205Y-15718150D02*
X11250777Y-15718150D01*
X11250777Y-15718150D02*
X11269824Y-15727674D01*
X11269824Y-15727674D02*
X11279348Y-15746722D01*
X11279348Y-15746722D02*
X11279348Y-15851484D01*
X11374586Y-15851484D02*
X11374586Y-15718150D01*
X11374586Y-15737198D02*
X11384110Y-15727674D01*
X11384110Y-15727674D02*
X11403158Y-15718150D01*
X11403158Y-15718150D02*
X11431729Y-15718150D01*
X11431729Y-15718150D02*
X11450777Y-15727674D01*
X11450777Y-15727674D02*
X11460301Y-15746722D01*
X11460301Y-15746722D02*
X11460301Y-15851484D01*
X11460301Y-15746722D02*
X11469824Y-15727674D01*
X11469824Y-15727674D02*
X11488872Y-15718150D01*
X11488872Y-15718150D02*
X11517443Y-15718150D01*
X11517443Y-15718150D02*
X11536491Y-15727674D01*
X11536491Y-15727674D02*
X11546015Y-15746722D01*
X11546015Y-15746722D02*
X11546015Y-15851484D01*
X11936491Y-15641960D02*
X11765063Y-15899103D01*
X12193634Y-15651484D02*
X12212682Y-15651484D01*
X12212682Y-15651484D02*
X12231729Y-15661008D01*
X12231729Y-15661008D02*
X12241253Y-15670531D01*
X12241253Y-15670531D02*
X12250777Y-15689579D01*
X12250777Y-15689579D02*
X12260301Y-15727674D01*
X12260301Y-15727674D02*
X12260301Y-15775293D01*
X12260301Y-15775293D02*
X12250777Y-15813388D01*
X12250777Y-15813388D02*
X12241253Y-15832436D01*
X12241253Y-15832436D02*
X12231729Y-15841960D01*
X12231729Y-15841960D02*
X12212682Y-15851484D01*
X12212682Y-15851484D02*
X12193634Y-15851484D01*
X12193634Y-15851484D02*
X12174586Y-15841960D01*
X12174586Y-15841960D02*
X12165063Y-15832436D01*
X12165063Y-15832436D02*
X12155539Y-15813388D01*
X12155539Y-15813388D02*
X12146015Y-15775293D01*
X12146015Y-15775293D02*
X12146015Y-15727674D01*
X12146015Y-15727674D02*
X12155539Y-15689579D01*
X12155539Y-15689579D02*
X12165063Y-15670531D01*
X12165063Y-15670531D02*
X12174586Y-15661008D01*
X12174586Y-15661008D02*
X12193634Y-15651484D01*
X12346015Y-15832436D02*
X12355539Y-15841960D01*
X12355539Y-15841960D02*
X12346015Y-15851484D01*
X12346015Y-15851484D02*
X12336491Y-15841960D01*
X12336491Y-15841960D02*
X12346015Y-15832436D01*
X12346015Y-15832436D02*
X12346015Y-15851484D01*
X12479348Y-15651484D02*
X12498396Y-15651484D01*
X12498396Y-15651484D02*
X12517444Y-15661008D01*
X12517444Y-15661008D02*
X12526967Y-15670531D01*
X12526967Y-15670531D02*
X12536491Y-15689579D01*
X12536491Y-15689579D02*
X12546015Y-15727674D01*
X12546015Y-15727674D02*
X12546015Y-15775293D01*
X12546015Y-15775293D02*
X12536491Y-15813388D01*
X12536491Y-15813388D02*
X12526967Y-15832436D01*
X12526967Y-15832436D02*
X12517444Y-15841960D01*
X12517444Y-15841960D02*
X12498396Y-15851484D01*
X12498396Y-15851484D02*
X12479348Y-15851484D01*
X12479348Y-15851484D02*
X12460301Y-15841960D01*
X12460301Y-15841960D02*
X12450777Y-15832436D01*
X12450777Y-15832436D02*
X12441253Y-15813388D01*
X12441253Y-15813388D02*
X12431729Y-15775293D01*
X12431729Y-15775293D02*
X12431729Y-15727674D01*
X12431729Y-15727674D02*
X12441253Y-15689579D01*
X12441253Y-15689579D02*
X12450777Y-15670531D01*
X12450777Y-15670531D02*
X12460301Y-15661008D01*
X12460301Y-15661008D02*
X12479348Y-15651484D01*
X12717444Y-15718150D02*
X12717444Y-15851484D01*
X12669825Y-15641960D02*
X12622206Y-15784817D01*
X12622206Y-15784817D02*
X12746015Y-15784817D01*
X12850777Y-15737198D02*
X12831729Y-15727674D01*
X12831729Y-15727674D02*
X12822206Y-15718150D01*
X12822206Y-15718150D02*
X12812682Y-15699103D01*
X12812682Y-15699103D02*
X12812682Y-15689579D01*
X12812682Y-15689579D02*
X12822206Y-15670531D01*
X12822206Y-15670531D02*
X12831729Y-15661008D01*
X12831729Y-15661008D02*
X12850777Y-15651484D01*
X12850777Y-15651484D02*
X12888872Y-15651484D01*
X12888872Y-15651484D02*
X12907920Y-15661008D01*
X12907920Y-15661008D02*
X12917444Y-15670531D01*
X12917444Y-15670531D02*
X12926967Y-15689579D01*
X12926967Y-15689579D02*
X12926967Y-15699103D01*
X12926967Y-15699103D02*
X12917444Y-15718150D01*
X12917444Y-15718150D02*
X12907920Y-15727674D01*
X12907920Y-15727674D02*
X12888872Y-15737198D01*
X12888872Y-15737198D02*
X12850777Y-15737198D01*
X12850777Y-15737198D02*
X12831729Y-15746722D01*
X12831729Y-15746722D02*
X12822206Y-15756246D01*
X12822206Y-15756246D02*
X12812682Y-15775293D01*
X12812682Y-15775293D02*
X12812682Y-15813388D01*
X12812682Y-15813388D02*
X12822206Y-15832436D01*
X12822206Y-15832436D02*
X12831729Y-15841960D01*
X12831729Y-15841960D02*
X12850777Y-15851484D01*
X12850777Y-15851484D02*
X12888872Y-15851484D01*
X12888872Y-15851484D02*
X12907920Y-15841960D01*
X12907920Y-15841960D02*
X12917444Y-15832436D01*
X12917444Y-15832436D02*
X12926967Y-15813388D01*
X12926967Y-15813388D02*
X12926967Y-15775293D01*
X12926967Y-15775293D02*
X12917444Y-15756246D01*
X12917444Y-15756246D02*
X12907920Y-15746722D01*
X12907920Y-15746722D02*
X12888872Y-15737198D01*
X13098396Y-15718150D02*
X13098396Y-15851484D01*
X13050777Y-15641960D02*
X13003158Y-15784817D01*
X13003158Y-15784817D02*
X13126967Y-15784817D01*
X13193634Y-15651484D02*
X13193634Y-15689579D01*
X13269825Y-15651484D02*
X13269825Y-15689579D01*
X13565063Y-15927674D02*
X13555539Y-15918150D01*
X13555539Y-15918150D02*
X13536491Y-15889579D01*
X13536491Y-15889579D02*
X13526968Y-15870531D01*
X13526968Y-15870531D02*
X13517444Y-15841960D01*
X13517444Y-15841960D02*
X13507920Y-15794341D01*
X13507920Y-15794341D02*
X13507920Y-15756246D01*
X13507920Y-15756246D02*
X13517444Y-15708627D01*
X13517444Y-15708627D02*
X13526968Y-15680055D01*
X13526968Y-15680055D02*
X13536491Y-15661008D01*
X13536491Y-15661008D02*
X13555539Y-15632436D01*
X13555539Y-15632436D02*
X13565063Y-15622912D01*
X13650777Y-15851484D02*
X13688872Y-15851484D01*
X13688872Y-15851484D02*
X13707920Y-15841960D01*
X13707920Y-15841960D02*
X13717444Y-15832436D01*
X13717444Y-15832436D02*
X13736491Y-15803865D01*
X13736491Y-15803865D02*
X13746015Y-15765769D01*
X13746015Y-15765769D02*
X13746015Y-15689579D01*
X13746015Y-15689579D02*
X13736491Y-15670531D01*
X13736491Y-15670531D02*
X13726968Y-15661008D01*
X13726968Y-15661008D02*
X13707920Y-15651484D01*
X13707920Y-15651484D02*
X13669825Y-15651484D01*
X13669825Y-15651484D02*
X13650777Y-15661008D01*
X13650777Y-15661008D02*
X13641253Y-15670531D01*
X13641253Y-15670531D02*
X13631729Y-15689579D01*
X13631729Y-15689579D02*
X13631729Y-15737198D01*
X13631729Y-15737198D02*
X13641253Y-15756246D01*
X13641253Y-15756246D02*
X13650777Y-15765769D01*
X13650777Y-15765769D02*
X13669825Y-15775293D01*
X13669825Y-15775293D02*
X13707920Y-15775293D01*
X13707920Y-15775293D02*
X13726968Y-15765769D01*
X13726968Y-15765769D02*
X13736491Y-15756246D01*
X13736491Y-15756246D02*
X13746015Y-15737198D01*
X13984110Y-15851484D02*
X13984110Y-15651484D01*
X14069825Y-15851484D02*
X14069825Y-15746722D01*
X14069825Y-15746722D02*
X14060301Y-15727674D01*
X14060301Y-15727674D02*
X14041253Y-15718150D01*
X14041253Y-15718150D02*
X14012682Y-15718150D01*
X14012682Y-15718150D02*
X13993634Y-15727674D01*
X13993634Y-15727674D02*
X13984110Y-15737198D01*
X14193634Y-15851484D02*
X14174587Y-15841960D01*
X14174587Y-15841960D02*
X14165063Y-15832436D01*
X14165063Y-15832436D02*
X14155539Y-15813388D01*
X14155539Y-15813388D02*
X14155539Y-15756246D01*
X14155539Y-15756246D02*
X14165063Y-15737198D01*
X14165063Y-15737198D02*
X14174587Y-15727674D01*
X14174587Y-15727674D02*
X14193634Y-15718150D01*
X14193634Y-15718150D02*
X14222206Y-15718150D01*
X14222206Y-15718150D02*
X14241253Y-15727674D01*
X14241253Y-15727674D02*
X14250777Y-15737198D01*
X14250777Y-15737198D02*
X14260301Y-15756246D01*
X14260301Y-15756246D02*
X14260301Y-15813388D01*
X14260301Y-15813388D02*
X14250777Y-15832436D01*
X14250777Y-15832436D02*
X14241253Y-15841960D01*
X14241253Y-15841960D02*
X14222206Y-15851484D01*
X14222206Y-15851484D02*
X14193634Y-15851484D01*
X14374587Y-15851484D02*
X14355539Y-15841960D01*
X14355539Y-15841960D02*
X14346015Y-15822912D01*
X14346015Y-15822912D02*
X14346015Y-15651484D01*
X14526968Y-15841960D02*
X14507920Y-15851484D01*
X14507920Y-15851484D02*
X14469825Y-15851484D01*
X14469825Y-15851484D02*
X14450777Y-15841960D01*
X14450777Y-15841960D02*
X14441253Y-15822912D01*
X14441253Y-15822912D02*
X14441253Y-15746722D01*
X14441253Y-15746722D02*
X14450777Y-15727674D01*
X14450777Y-15727674D02*
X14469825Y-15718150D01*
X14469825Y-15718150D02*
X14507920Y-15718150D01*
X14507920Y-15718150D02*
X14526968Y-15727674D01*
X14526968Y-15727674D02*
X14536491Y-15746722D01*
X14536491Y-15746722D02*
X14536491Y-15765769D01*
X14536491Y-15765769D02*
X14441253Y-15784817D01*
X14612682Y-15841960D02*
X14631730Y-15851484D01*
X14631730Y-15851484D02*
X14669825Y-15851484D01*
X14669825Y-15851484D02*
X14688872Y-15841960D01*
X14688872Y-15841960D02*
X14698396Y-15822912D01*
X14698396Y-15822912D02*
X14698396Y-15813388D01*
X14698396Y-15813388D02*
X14688872Y-15794341D01*
X14688872Y-15794341D02*
X14669825Y-15784817D01*
X14669825Y-15784817D02*
X14641253Y-15784817D01*
X14641253Y-15784817D02*
X14622206Y-15775293D01*
X14622206Y-15775293D02*
X14612682Y-15756246D01*
X14612682Y-15756246D02*
X14612682Y-15746722D01*
X14612682Y-15746722D02*
X14622206Y-15727674D01*
X14622206Y-15727674D02*
X14641253Y-15718150D01*
X14641253Y-15718150D02*
X14669825Y-15718150D01*
X14669825Y-15718150D02*
X14688872Y-15727674D01*
X14765063Y-15927674D02*
X14774587Y-15918150D01*
X14774587Y-15918150D02*
X14793634Y-15889579D01*
X14793634Y-15889579D02*
X14803158Y-15870531D01*
X14803158Y-15870531D02*
X14812682Y-15841960D01*
X14812682Y-15841960D02*
X14822206Y-15794341D01*
X14822206Y-15794341D02*
X14822206Y-15756246D01*
X14822206Y-15756246D02*
X14812682Y-15708627D01*
X14812682Y-15708627D02*
X14803158Y-15680055D01*
X14803158Y-15680055D02*
X14793634Y-15661008D01*
X14793634Y-15661008D02*
X14774587Y-15632436D01*
X14774587Y-15632436D02*
X14765063Y-15622912D01*
M02*
