G04 #@! TF.GenerationSoftware,KiCad,Pcbnew,8.0.4*
G04 #@! TF.CreationDate,2024-08-08T12:01:09+02:00*
G04 #@! TF.ProjectId,LED-board-PWM,4c45442d-626f-4617-9264-2d50574d2e6b,rev?*
G04 #@! TF.SameCoordinates,Original*
G04 #@! TF.FileFunction,Legend,Bot*
G04 #@! TF.FilePolarity,Positive*
%FSLAX46Y46*%
G04 Gerber Fmt 4.6, Leading zero omitted, Abs format (unit mm)*
G04 Created by KiCad (PCBNEW 8.0.4) date 2024-08-08 12:01:09*
%MOMM*%
%LPD*%
G01*
G04 APERTURE LIST*
G04 Aperture macros list*
%AMRoundRect*
0 Rectangle with rounded corners*
0 $1 Rounding radius*
0 $2 $3 $4 $5 $6 $7 $8 $9 X,Y pos of 4 corners*
0 Add a 4 corners polygon primitive as box body*
4,1,4,$2,$3,$4,$5,$6,$7,$8,$9,$2,$3,0*
0 Add four circle primitives for the rounded corners*
1,1,$1+$1,$2,$3*
1,1,$1+$1,$4,$5*
1,1,$1+$1,$6,$7*
1,1,$1+$1,$8,$9*
0 Add four rect primitives between the rounded corners*
20,1,$1+$1,$2,$3,$4,$5,0*
20,1,$1+$1,$4,$5,$6,$7,0*
20,1,$1+$1,$6,$7,$8,$9,0*
20,1,$1+$1,$8,$9,$2,$3,0*%
G04 Aperture macros list end*
%ADD10C,1.600000*%
%ADD11R,1.600000X1.600000*%
%ADD12R,1.524000X1.524000*%
%ADD13C,1.524000*%
%ADD14O,1.600000X1.600000*%
%ADD15RoundRect,0.250000X0.350000X0.625000X-0.350000X0.625000X-0.350000X-0.625000X0.350000X-0.625000X0*%
%ADD16O,1.200000X1.750000*%
%ADD17R,1.800000X1.800000*%
%ADD18C,1.800000*%
%ADD19R,1.397000X1.143000*%
%ADD20O,1.397000X1.143000*%
%ADD21RoundRect,0.102000X0.925000X-0.925000X0.925000X0.925000X-0.925000X0.925000X-0.925000X-0.925000X0*%
%ADD22C,2.054000*%
%ADD23C,1.440000*%
%ADD24RoundRect,0.250000X-0.350000X-0.625000X0.350000X-0.625000X0.350000X0.625000X-0.350000X0.625000X0*%
%ADD25R,2.000000X2.000000*%
%ADD26C,2.000000*%
%ADD27C,1.400000*%
%ADD28O,1.400000X1.400000*%
%ADD29R,1.700000X1.700000*%
%ADD30O,1.700000X1.700000*%
%ADD31R,1.500000X1.000000*%
%ADD32O,1.500000X1.000000*%
%ADD33RoundRect,0.102000X-0.679000X-0.679000X0.679000X-0.679000X0.679000X0.679000X-0.679000X0.679000X0*%
%ADD34C,1.562000*%
%ADD35RoundRect,0.102000X-0.925000X-0.925000X0.925000X-0.925000X0.925000X0.925000X-0.925000X0.925000X0*%
%ADD36RoundRect,0.102000X-0.704000X-0.704000X0.704000X-0.704000X0.704000X0.704000X-0.704000X0.704000X0*%
%ADD37C,1.612000*%
G04 APERTURE END LIST*
%LPC*%
D10*
X122850000Y-65750000D03*
D11*
X124850000Y-65750000D03*
X122844888Y-56000000D03*
D10*
X124844888Y-56000000D03*
D11*
X144600000Y-47800000D03*
D10*
X146600000Y-47800000D03*
D12*
X131000000Y-74825000D03*
D13*
X131000000Y-69745000D03*
X131000000Y-64665000D03*
X131000000Y-59585000D03*
D10*
X124825000Y-95530000D03*
D14*
X124825000Y-85370000D03*
D15*
X114380600Y-121400000D03*
D16*
X112380600Y-121400000D03*
D17*
X153450000Y-49400000D03*
D18*
X153450000Y-46860000D03*
D19*
X105614747Y-115038574D03*
D20*
X105614747Y-113006574D03*
X105614747Y-110974574D03*
X105614747Y-108942574D03*
D10*
X140550000Y-85070000D03*
D14*
X140550000Y-95230000D03*
D21*
X133700000Y-92080000D03*
D22*
X133700000Y-89540000D03*
X133700000Y-87000000D03*
D10*
X125050000Y-61450000D03*
X122550000Y-61450000D03*
D23*
X123950000Y-81100000D03*
X121410000Y-81100000D03*
X118870000Y-81100000D03*
D24*
X103380600Y-120400000D03*
D16*
X105380600Y-120400000D03*
D25*
X106700000Y-93800000D03*
D26*
X106700000Y-86200000D03*
D10*
X149000000Y-85250000D03*
X151500000Y-85250000D03*
D27*
X111705000Y-46700000D03*
D28*
X109805000Y-46700000D03*
D29*
X104300000Y-78000000D03*
D30*
X106840000Y-78000000D03*
D10*
X128200000Y-85370000D03*
D14*
X128200000Y-95530000D03*
D31*
X124200000Y-76700000D03*
D32*
X124200000Y-75430000D03*
X124200000Y-74160000D03*
D10*
X110900000Y-76150000D03*
X110900000Y-78650000D03*
X137300000Y-95235000D03*
D14*
X137300000Y-85075000D03*
D10*
X118025000Y-95525000D03*
D14*
X118025000Y-85365000D03*
D10*
X149900000Y-49500000D03*
X149900000Y-47000000D03*
X136850000Y-98200000D03*
D14*
X147010000Y-98200000D03*
D12*
X119709400Y-120916500D03*
D13*
X122249400Y-120916500D03*
X124789400Y-120916500D03*
X127329400Y-120916500D03*
X129869400Y-120916500D03*
X132409400Y-120916500D03*
D10*
X111300000Y-108600000D03*
X113800000Y-108600000D03*
D12*
X156088700Y-118941200D03*
D13*
X156088700Y-111321200D03*
X156088700Y-103701200D03*
D10*
X155500000Y-85500000D03*
D11*
X155500000Y-87500000D03*
D33*
X104250000Y-56560000D03*
D34*
X104250000Y-59100000D03*
X104250000Y-61640000D03*
X104250000Y-64180000D03*
X104250000Y-66720000D03*
X104250000Y-69260000D03*
X104250000Y-71800000D03*
X119490000Y-71800000D03*
X119490000Y-69260000D03*
X119490000Y-66720000D03*
X119490000Y-64180000D03*
X119490000Y-61640000D03*
X119490000Y-59100000D03*
X119490000Y-56560000D03*
D10*
X105620000Y-49600000D03*
D14*
X115780000Y-49600000D03*
D10*
X121450000Y-95525000D03*
D14*
X121450000Y-85365000D03*
D21*
X145940000Y-92080000D03*
D22*
X145940000Y-89540000D03*
X145940000Y-87000000D03*
D35*
X127600000Y-48700000D03*
D22*
X130140000Y-48700000D03*
X132680000Y-48700000D03*
D36*
X150500000Y-98250000D03*
D37*
X153000000Y-98250000D03*
X155500000Y-98250000D03*
X150500000Y-92250000D03*
X153000000Y-92250000D03*
X155500000Y-92250000D03*
D10*
X149000000Y-88000000D03*
X151500000Y-88000000D03*
D25*
X140250000Y-103250000D03*
D26*
X140250000Y-108250000D03*
D10*
X114600000Y-86655000D03*
D14*
X114600000Y-76495000D03*
D11*
X105950000Y-105910000D03*
D10*
X108490000Y-105910000D03*
X111030000Y-105910000D03*
X113570000Y-105910000D03*
X113570000Y-98290000D03*
X111030000Y-98290000D03*
X108490000Y-98290000D03*
X105950000Y-98290000D03*
X101900000Y-106560000D03*
D14*
X101900000Y-96400000D03*
D25*
X140250000Y-120867677D03*
D26*
X140250000Y-115867677D03*
D29*
X109345000Y-81650000D03*
D30*
X106805000Y-81650000D03*
X104265000Y-81650000D03*
%LPD*%
M02*
