M48
; DRILL file {KiCad 8.0.4} date 2024-08-08T12:01:30+0200
; FORMAT={-:-/ absolute / metric / decimal}
; #@! TF.CreationDate,2024-08-08T12:01:30+02:00
; #@! TF.GenerationSoftware,Kicad,Pcbnew,8.0.4
; #@! TF.FileFunction,Plated,1,2,PTH
FMAT,2
METRIC
; #@! TA.AperFunction,Plated,PTH,ViaDrill
T1C0.300
; #@! TA.AperFunction,Plated,PTH,ComponentDrill
T2C0.550
; #@! TA.AperFunction,Plated,PTH,ComponentDrill
T3C0.700
; #@! TA.AperFunction,Plated,PTH,ComponentDrill
T4C0.750
; #@! TA.AperFunction,Plated,PTH,ComponentDrill
T5C0.762
; #@! TA.AperFunction,Plated,PTH,ComponentDrill
T6C0.800
; #@! TA.AperFunction,Plated,PTH,ComponentDrill
T7C0.850
; #@! TA.AperFunction,Plated,PTH,ComponentDrill
T8C0.889
; #@! TA.AperFunction,Plated,PTH,ComponentDrill
T9C0.900
; #@! TA.AperFunction,Plated,PTH,ComponentDrill
T10C1.000
; #@! TA.AperFunction,Plated,PTH,ComponentDrill
T11C1.230
%
G90
G05
T1
X110.2Y-93.8
X113.25Y-55.75
X115.5Y-65.63
X115.9Y-94.7
X119.9Y-52.8
X122.25Y-71.25
X124.35Y-69.75
X130.6Y-90.15
T2
X124.2Y-74.16
X124.2Y-75.43
X124.2Y-76.7
T3
X109.805Y-46.7
X111.705Y-46.7
T4
X103.381Y-120.4
X105.381Y-120.4
X112.381Y-121.4
X114.381Y-121.4
T5
X119.709Y-120.916
X122.249Y-120.916
X124.789Y-120.916
X127.329Y-120.916
X129.869Y-120.916
X131.0Y-59.585
X131.0Y-64.665
X131.0Y-69.745
X131.0Y-74.825
X132.409Y-120.916
X156.089Y-103.701
X156.089Y-111.321
X156.089Y-118.941
T6
X101.9Y-96.4
X101.9Y-106.56
X105.62Y-49.6
X110.9Y-76.15
X110.9Y-78.65
X111.3Y-108.6
X113.8Y-108.6
X114.6Y-76.495
X114.6Y-86.655
X115.78Y-49.6
X118.025Y-85.365
X118.025Y-95.525
X118.87Y-81.1
X121.41Y-81.1
X121.45Y-85.365
X121.45Y-95.525
X122.55Y-61.45
X122.845Y-56.0
X122.85Y-65.75
X123.95Y-81.1
X124.825Y-85.37
X124.825Y-95.53
X124.845Y-56.0
X124.85Y-65.75
X125.05Y-61.45
X128.2Y-85.37
X128.2Y-95.53
X136.85Y-98.2
X137.3Y-85.075
X137.3Y-95.235
X140.55Y-85.07
X140.55Y-95.23
X144.6Y-47.8
X146.6Y-47.8
X147.01Y-98.2
X149.0Y-85.25
X149.0Y-88.0
X149.9Y-47.0
X149.9Y-49.5
X151.5Y-85.25
X151.5Y-88.0
X155.5Y-85.5
X155.5Y-87.5
T7
X104.25Y-56.56
X104.25Y-59.1
X104.25Y-61.64
X104.25Y-64.18
X104.25Y-66.72
X104.25Y-69.26
X104.25Y-71.8
X119.49Y-56.56
X119.49Y-59.1
X119.49Y-61.64
X119.49Y-64.18
X119.49Y-66.72
X119.49Y-69.26
X119.49Y-71.8
T8
X105.615Y-108.943
X105.615Y-110.975
X105.615Y-113.007
X105.615Y-115.039
T9
X150.5Y-92.25
X150.5Y-98.25
X153.0Y-92.25
X153.0Y-98.25
X153.45Y-46.86
X153.45Y-49.4
X155.5Y-92.25
X155.5Y-98.25
T10
X104.265Y-81.65
X104.3Y-78.0
X105.95Y-98.29
X105.95Y-105.91
X106.7Y-86.2
X106.7Y-93.8
X106.805Y-81.65
X106.84Y-78.0
X108.49Y-98.29
X108.49Y-105.91
X109.345Y-81.65
X111.03Y-98.29
X111.03Y-105.91
X113.57Y-98.29
X113.57Y-105.91
X140.25Y-103.25
X140.25Y-108.25
X140.25Y-115.868
X140.25Y-120.868
T11
X127.6Y-48.7
X130.14Y-48.7
X132.68Y-48.7
X133.7Y-87.0
X133.7Y-89.54
X133.7Y-92.08
X145.94Y-87.0
X145.94Y-89.54
X145.94Y-92.08
M30
